<?xml version="1.0" encoding="UTF-8"?>
<!DOCTYPE svg PUBLIC "-//W3C//DTD SVG 1.1//EN" "http://www.w3.org/Graphics/SVG/1.1/DTD/svg11.dtd">
<!-- Creator: CorelDRAW -->
<svg xmlns="http://www.w3.org/2000/svg" xml:space="preserve" width="200mm" height="150mm" version="1.1" style="shape-rendering:geometricPrecision; text-rendering:geometricPrecision; image-rendering:optimizeQuality; fill-rule:evenodd; clip-rule:evenodd"
viewBox="0 0 20000 15000"
 xmlns:xlink="http://www.w3.org/1999/xlink"
 xmlns:xodm="http://www.corel.com/coreldraw/odm/2003">
 <defs>
  <style type="text/css">
   <![CDATA[
    .str1 {stroke:#FEFEFE;stroke-width:200;stroke-miterlimit:22.9256}
    .str2 {stroke:#FEFEFE;stroke-width:20;stroke-miterlimit:22.9256}
    .str0 {stroke:black;stroke-width:20;stroke-miterlimit:22.9256}
    .fil1 {fill:none}
    .fil2 {fill:#FEFEFE}
    .fil0 {fill:#161623}
   ]]>
  </style>
 </defs>
 <g id="Layer_x0020_1">
  <metadata id="CorelCorpID_0Corel-Layer"/>
  <path class="fil0 str0" d="M2285.33 1654.7l15348.14 0c1297.42,0 2358.93,1061.51 2358.93,2358.93l0 9334.61 -20000 0 0 -9400.61c0,-1261.12 1031.81,-2292.93 2292.93,-2292.93z"/>
  <g id="_1612183538528">
   <path class="fil1 str1" d="M8409.03 4966.11l3179.55 0c892.62,0 1622.92,730.3 1622.92,1622.91l0 4540.3c0,127.52 -104.33,231.85 -231.85,231.85l-5961.69 0c-127.51,0 -231.84,-104.33 -231.84,-231.85l0 -4540.3c0,-892.61 730.3,-1622.91 1622.91,-1622.91z"/>
   <g>
    <circle class="fil2 str2" cx="8884.29" cy="7304.06" r="566.65"/>
    <circle class="fil2 str2" cx="11113.31" cy="7304.06" r="566.65"/>
   </g>
   <path class="fil2 str2" d="M6788.06 7152.22l-637.48 0c-213.55,0 -388.25,174.7 -388.25,388.24l0 1417.96c0,213.54 174.7,388.24 388.25,388.24l637.48 0 0 -2194.44z"/>
   <path class="fil2 str2" d="M13209.54 7152.22l637.48 0c213.55,0 388.25,174.7 388.25,388.24l0 1417.96c0,213.54 -174.7,388.24 -388.25,388.24l-637.48 0 0 -2194.44z"/>
   <g>
    <path class="fil2" d="M9902.97 5016.81l191.65 0 0 -1251.41c133.5,-40.94 230.59,-165.2 230.59,-312.12 0,-180.27 -146.14,-326.41 -326.41,-326.41 -180.27,0 -326.41,146.14 -326.41,326.41 0,146.92 97.08,271.18 230.58,312.12l0 1251.41z"/>
    <path class="fil1" d="M10094.62 5016.81l0 -1251.41c133.5,-40.94 230.6,-165.19 230.6,-312.12 0,-180.27 -146.15,-326.41 -326.42,-326.41 -180.27,0 -326.42,146.14 -326.42,326.41 0,146.93 97.09,271.17 230.59,312.12l0 1251.41"/>
   </g>
   <g>
    <polygon class="fil2" points="8471.08,11361.17 8471.08,9203.74 7643.46,9203.74 7643.46,11361.17 "/>
    <polygon class="fil2" points="8551.25,9203.74 8551.25,11361.17 9478.86,11361.17 9478.86,9203.74 "/>
    <polygon class="fil2" points="9559.04,9203.74 9559.04,11361.17 10438.56,11361.17 10438.56,9203.74 "/>
    <polygon class="fil2" points="10518.74,9203.74 10518.74,11361.17 11446.35,11361.17 11446.35,9203.74 "/>
    <polygon class="fil2" points="11526.52,9203.74 11526.52,11361.17 12354.14,11361.17 12354.14,9203.74 "/>
   </g>
  </g>
 </g>
</svg>
