<?xml version="1.0" encoding="UTF-8"?>
<!DOCTYPE svg PUBLIC "-//W3C//DTD SVG 1.1//EN" "http://www.w3.org/Graphics/SVG/1.1/DTD/svg11.dtd">
<!-- Creator: CorelDRAW -->
<svg xmlns="http://www.w3.org/2000/svg" xml:space="preserve" width="200mm" height="150mm" version="1.1" style="shape-rendering:geometricPrecision; text-rendering:geometricPrecision; image-rendering:optimizeQuality; fill-rule:evenodd; clip-rule:evenodd"
viewBox="0 0 20000 15000"
 xmlns:xlink="http://www.w3.org/1999/xlink"
 xmlns:xodm="http://www.corel.com/coreldraw/odm/2003">
 <defs>
  <style type="text/css">
   <![CDATA[
    .str0 {stroke:black;stroke-width:20;stroke-miterlimit:22.9256}
    .str1 {stroke:white;stroke-width:20;stroke-miterlimit:22.9256}
    .fil3 {fill:none}
    .fil1 {fill:black}
    .fil5 {fill:#000066}
    .fil6 {fill:#14B52F}
    .fil0 {fill:#161623}
    .fil4 {fill:#6666FF}
    .fil2 {fill:white}
   ]]>
  </style>
 </defs>
 <g id="Layer_x0020_1">
  <metadata id="CorelCorpID_0Corel-Layer"/>
  <path class="fil0 str0" d="M2285.33 1654.7l15348.14 0c1297.42,0 2358.93,1061.51 2358.93,2358.93l0 9334.61 -20000 0 0 -9400.61c0,-1261.12 1031.81,-2292.93 2292.93,-2292.93z"/>
  <g id="_1612829942208">
   <g>
    <rect class="fil1 str0" x="1632.15" y="4680.77" width="3214.91" height="5641.4" rx="454.64" ry="560.14"/>
    <rect class="fil2 str0" x="1934.92" y="5360.94" width="2609.37" height="4281.06"/>
    <circle class="fil2 str0" cx="2370.26" cy="5052.46" r="164.52"/>
    <circle class="fil1 str0" cx="2370.26" cy="5052.46" r="101.91"/>
    <rect class="fil3 str1" x="2850.71" y="9858.5" width="777.79" height="336.55" rx="168.28" ry="168.28"/>
   </g>
   <g>
    <rect class="fil1 str0" x="15137.73" y="4680.77" width="3214.91" height="5641.4" rx="454.64" ry="560.14"/>
    <rect class="fil2 str0" x="15440.51" y="5360.94" width="2609.37" height="4281.06"/>
    <circle class="fil2 str0" cx="17614.54" cy="5052.46" r="164.52"/>
    <circle class="fil1 str0" cx="17614.54" cy="5052.46" r="101.91"/>
    <rect class="fil3 str1" x="16356.3" y="9858.5" width="777.79" height="336.55" rx="168.28" ry="168.28"/>
   </g>
   <g>
    <circle class="fil4" cx="5922.24" cy="10180.14" r="549.06"/>
    <circle class="fil4" cx="7139.07" cy="10966.46" r="451.2"/>
    <circle class="fil4" cx="8344.15" cy="11472.28" r="417.96"/>
    <circle class="fil4" cx="9551.89" cy="11677.14" r="358.56"/>
    <circle class="fil4" cx="10547.52" cy="11749.54" r="305.84"/>
    <circle class="fil4" cx="11541.54" cy="11686.13" r="274.2"/>
    <circle class="fil4" cx="12473.68" cy="11511.71" r="221.47"/>
    <circle class="fil4" cx="13165.19" cy="11262.38" r="158.2"/>
    <circle class="fil4" cx="13732.03" cy="10985.16" r="126.56"/>
    <circle class="fil4" cx="14495.72" cy="10264.23" r="84.09"/>
    <circle class="fil4" cx="14170.06" cy="10622.42" r="105.47"/>
   </g>
   <g>
    <ellipse class="fil4" cx="13956.69" cy="4981.55" rx="539.03" ry="549.06"/>
    <ellipse class="fil4" cx="12762.09" cy="4195.23" rx="442.96" ry="451.2"/>
    <ellipse class="fil4" cx="11579.03" cy="3689.41" rx="410.32" ry="417.96"/>
    <ellipse class="fil4" cx="10393.35" cy="3484.55" rx="352.01" ry="358.56"/>
    <ellipse class="fil4" cx="9415.91" cy="3412.15" rx="300.25" ry="305.84"/>
    <ellipse class="fil4" cx="8440.05" cy="3475.56" rx="269.19" ry="274.2"/>
    <ellipse class="fil4" cx="7524.94" cy="3649.98" rx="217.42" ry="221.47"/>
    <ellipse class="fil4" cx="6846.07" cy="3899.31" rx="155.31" ry="158.2"/>
    <ellipse class="fil4" cx="6289.58" cy="4176.53" rx="124.25" ry="126.56"/>
    <ellipse class="fil4" cx="5539.84" cy="4897.46" rx="82.55" ry="84.09"/>
    <ellipse class="fil4" cx="5859.55" cy="4539.27" rx="103.54" ry="105.47"/>
   </g>
  </g>
  <circle class="fil5" cx="9992.4" cy="7501.47" r="2110.9"/>
  <path class="fil6" d="M10452.67 7882.33c7.22,11.48 14.44,23.57 21.66,36.24 -11.06,-12.75 -18.28,-24.83 -21.66,-36.24zm-358.15 -84.26c-340.08,78.46 -477.14,224.9 -411.16,439.29 -121.58,-221.82 -295.62,-341.29 -522.1,-358.43 -572.88,-198.42 -826.97,-81.27 -762.27,351.45 -183.91,127.61 -332.44,67.18 -445.59,-181.3 189.59,703.3 738.44,1289.27 1492.66,1491.36 357.31,95.75 717.78,93.83 1053.08,10.6 -56.3,-64.44 -58.23,-132.6 -5.77,-204.46 91.09,-27.58 80.86,-66.01 -30.7,-115.28 17.73,-33.96 36.99,-54.75 57.78,-62.38 114.56,57.99 179.66,39.74 195.3,-54.74 157.91,-32.55 195.43,-147.03 112.55,-343.43 101.18,119.19 183.49,143.98 246.92,74.37 351.21,48.75 282.35,-107.92 -206.6,-470.01 115.81,7.02 147.69,-20.01 95.63,-81.11 -122.89,-23.89 -159.93,-89.93 -111.13,-198.1 178.33,-67.63 203.4,-166.3 75.2,-295.98 -100.22,68.12 -159.93,53.13 -179.13,-44.96 -216.37,21.82 -315.21,64.28 -296.52,127.37 -117.79,-187.19 -237.16,-215.27 -358.15,-84.26z"/>
  <path class="fil6" d="M9993.4 5971.63c-8.7,-0.28 -17.72,-0.78 -27.05,-1.5 10.76,-1.3 19.77,-0.8 27.05,1.5zm-402.67 124.13c56.85,-56.76 105.27,-52.73 145.26,12.08 -28.1,119.12 15.35,167.89 130.36,146.3 -0.21,-77.75 29.21,-104.11 88.26,-79.08 66.13,-122.89 79.06,-190.7 38.79,-203.43 141.85,4.62 199.67,-48.76 173.47,-160.15 80.45,-209.03 51.83,-334.5 -85.87,-376.45 78.19,7.28 148.05,-0.57 209.59,-23.56 -97.41,-13.78 -196.97,-20.9 -298.19,-20.9 -249.29,0 -488.5,43.21 -710.52,122.56 4.3,12.48 5.33,23.26 3.08,32.34 -72,40.09 -85.68,81.26 -41.05,123.5 -39.43,95.67 7.97,156.75 142.17,183.23 -99.73,10.98 -142.48,45.84 -128.26,104.58 -152.08,169.22 -44.04,188.9 324.14,58.99 -45.34,59.05 -42.42,85.73 8.77,79.99z"/>
  <path class="fil3 str0" d="M11358.42 5892.17c-372.56,-18.88 -597.52,59.67 -674.88,235.68 106.15,132.4 57.98,203.52 -144.54,213.36 -247.77,-129.57 -412.95,3.49 -495.55,399.2 -262.39,139.65 -161.78,221.84 301.82,246.57 -156.22,398.69 98.65,476.94 764.61,234.75 381.04,-42.03 443.64,139.06 187.8,543.27 505.58,-58.36 715.73,134.89 630.45,579.73"/>
  <path class="fil6" d="M11358.42 5892.17c-372.56,-18.88 -597.52,59.67 -674.88,235.68 106.15,132.4 57.98,203.52 -144.54,213.36 -247.77,-129.57 -412.95,3.49 -495.55,399.2 -262.39,139.65 -161.78,221.84 301.82,246.57 -156.22,398.69 98.65,476.94 764.61,234.75 381.04,-42.03 443.64,139.06 187.8,543.27 505.58,-58.36 715.73,134.89 630.45,579.73 112.68,-258.28 175.17,-543.47 175.17,-843.26 0,-644.84 -289.14,-1222.14 -744.88,-1609.3z"/>
 </g>
</svg>
