<?xml version="1.0" encoding="UTF-8"?>
<!DOCTYPE svg PUBLIC "-//W3C//DTD SVG 1.1//EN" "http://www.w3.org/Graphics/SVG/1.1/DTD/svg11.dtd">
<!-- Creator: CorelDRAW -->
<svg xmlns="http://www.w3.org/2000/svg" xml:space="preserve" width="200mm" height="150mm" version="1.1" style="shape-rendering:geometricPrecision; text-rendering:geometricPrecision; image-rendering:optimizeQuality; fill-rule:evenodd; clip-rule:evenodd"
viewBox="0 0 20000 15000"
 xmlns:xlink="http://www.w3.org/1999/xlink"
 xmlns:xodm="http://www.corel.com/coreldraw/odm/2003">
 <defs>
  <style type="text/css">
   <![CDATA[
    .str0 {stroke:black;stroke-width:20;stroke-miterlimit:22.9256}
    .fil4 {fill:none}
    .fil5 {fill:#FEFEFE}
    .fil6 {fill:#2B2A29}
    .fil13 {fill:#E31E24}
    .fil2 {fill:#972420}
    .fil9 {fill:#C6B804}
    .fil7 {fill:#066B32}
    .fil12 {fill:blue}
    .fil8 {fill:lime}
    .fil11 {fill:#101594}
    .fil0 {fill:#161623}
    .fil3 {fill:red}
    .fil10 {fill:yellow}
    .fil1 {fill:white;fill-opacity:0.549020}
    .fil19 {fill:url(#id0)}
    .fil15 {fill:url(#id1)}
    .fil14 {fill:url(#id2)}
    .fil18 {fill:url(#id3)}
    .fil17 {fill:url(#id4)}
    .fil16 {fill:url(#id5)}
   ]]>
  </style>
  <linearGradient id="id0" gradientUnits="userSpaceOnUse" x1="9934.49" y1="8098.65" x2="9980.7" y2="9722.02">
   <stop offset="0" style="stop-opacity:1; stop-color:red"/>
   <stop offset="0.611765" style="stop-opacity:1; stop-color:#981818"/>
   <stop offset="1" style="stop-opacity:1; stop-color:#303030"/>
  </linearGradient>
  <linearGradient id="id1" gradientUnits="userSpaceOnUse" xlink:href="#id0" x1="11668.44" y1="9413.63" x2="11457.02" y2="7258.18">
  </linearGradient>
  <linearGradient id="id2" gradientUnits="userSpaceOnUse" xlink:href="#id0" x1="10437.47" y1="9602.65" x2="10445.74" y2="8010.67">
  </linearGradient>
  <linearGradient id="id3" gradientUnits="userSpaceOnUse" xlink:href="#id0" x1="8040.25" y1="7503.64" x2="8751.21" y2="9549.43">
  </linearGradient>
  <linearGradient id="id4" gradientUnits="userSpaceOnUse" xlink:href="#id0" x1="9192.57" y1="7031.24" x2="9557.84" y2="8580.78">
  </linearGradient>
  <linearGradient id="id5" gradientUnits="userSpaceOnUse" xlink:href="#id0" x1="9966.53" y1="8391.04" x2="10302.28" y2="6802.09">
  </linearGradient>
 </defs>
 <g id="Layer_x0020_1">
  <metadata id="CorelCorpID_0Corel-Layer"/>
  <path class="fil0 str0" d="M2285.33 1654.7l15348.14 0c1297.42,0 2358.93,1061.51 2358.93,2358.93l0 9334.61 -20000 0 0 -9400.61c0,-1261.12 1031.81,-2292.93 2292.93,-2292.93z"/>
  <g id="_1612405682672">
   <path class="fil1" d="M6578.68 6012.67c633.02,0 1146.19,112.18 1146.19,250.55 0,138.38 -513.17,250.55 -1146.19,250.55 -633.02,0 -1146.18,-112.17 -1146.18,-250.55 0,-138.37 513.16,-250.55 1146.18,-250.55z"/>
   <g>
    <g>
     <path class="fil2" d="M6057.1 5617.49c150.38,67.79 272.98,105.88 367.81,114.28 -1.03,-59.83 -1.56,-155.04 -1.56,-285.1l1.56 -402.16c11.26,-285.23 21.64,-517.48 31.16,-696.34 -57.78,69.88 -140.18,103.88 -214.88,79.86 -99.13,-31.87 -149.74,-154.66 -120.6,-282.31 -5.21,-0.12 -10.7,-0.26 -16.49,-0.44 29.35,127.82 -21.26,250.85 -120.5,282.76 -49.88,16.03 -103.19,6.2 -150.31,-22.9 1.82,85.16 4.45,183.52 7.9,294.97 7.28,235.15 10.93,411.52 10.93,529.61 0,110.3 -1.56,276.26 -4.69,497.36 -3.12,221.11 -4.68,386.55 -4.68,497.37 0,26.53 14.57,42.14 44.23,47.34 85.32,4.68 150.87,6.76 196.65,5.72l455.22 6.24c44.74,0.53 158.67,3.13 341.28,7.29 140.47,3.64 254.41,5.72 341.29,5.72 36.94,0 57.75,-1.04 62.95,-3.12 16.13,-5.2 26.53,-20.81 31.74,-46.82 24.97,-125.9 37.45,-275.74 37.45,-448.98 0,-23.41 -13.52,-34.86 -41.1,-34.86 -91.56,0 -228.38,4.68 -411,14.05 -165.92,8.51 -294.05,13.15 -384.77,13.93 -11.83,0.37 -23.62,0.41 -35.37,0.12 -19.47,0 -29.49,0 -30.39,0 -2.48,-0.56 -4.77,-1.25 -6.85,-2.09 -135.33,-11.76 -264.32,-68.92 -386.98,-171.5z"/>
     <circle class="fil2" transform="matrix(0.406552 -0.130708 0.168656 0.524584 5849.69 4179.29)" r="596.69"/>
     <circle class="fil2" transform="matrix(0.215174 -0.0691793 0.0892639 0.277644 5873.15 4303.2)" r="596.69"/>
     <path class="fil2" d="M5819.89 4137.53c70.91,-22.79 152.24,32.9 181.65,124.39 29.42,91.5 -4.22,184.15 -75.12,206.95 -70.91,22.8 -152.24,-32.9 -181.66,-124.39 -29.41,-91.49 4.22,-184.15 75.13,-206.95zm272.38 -36.24c-55.58,-172.87 -209.24,-278.09 -343.22,-235.02 -133.97,43.08 -197.53,218.14 -141.95,391.01 55.58,172.87 209.25,278.1 343.22,235.02 133.98,-43.07 197.53,-218.13 141.95,-391.01z"/>
     <path class="fil2" d="M6001.54 4261.92c-29.41,-91.49 -110.74,-147.18 -181.65,-124.39 -70.91,22.8 -104.54,115.46 -75.13,206.95 29.42,91.49 110.75,147.19 181.66,124.39 70.9,-22.8 104.54,-115.45 75.12,-206.95z"/>
     <circle class="fil2" transform="matrix(-0.406552 -0.130708 -0.168656 0.524584 6375.1 4179.29)" r="596.69"/>
     <circle class="fil2" transform="matrix(-0.215174 -0.0691793 -0.0892639 0.277644 6351.63 4303.2)" r="596.69"/>
     <path class="fil2" d="M6404.9 4137.53c-70.91,-22.79 -152.24,32.9 -181.66,124.39 -29.41,91.5 4.22,184.15 75.13,206.95 70.91,22.8 152.24,-32.9 181.66,-124.39 29.41,-91.49 -4.23,-184.15 -75.13,-206.95zm-272.39 -36.24c55.58,-172.87 209.25,-278.09 343.22,-235.02 133.98,43.08 197.53,218.14 141.95,391.01 -55.58,172.87 -209.24,278.1 -343.22,235.02 -133.97,-43.07 -197.53,-218.13 -141.95,-391.01z"/>
     <path class="fil2" d="M6223.24 4261.92c29.42,-91.49 110.75,-147.18 181.66,-124.39 70.9,22.8 104.54,115.46 75.13,206.95 -29.42,91.49 -110.75,147.19 -181.66,124.39 -70.91,-22.8 -104.54,-115.45 -75.13,-206.95z"/>
    </g>
    <g>
     <path class="fil3" d="M6164.45 5600.52c145.91,65.77 264.87,102.73 356.88,110.88 -1.01,-58.06 -1.52,-150.43 -1.52,-276.63l1.52 -390.2c10.92,-276.74 20.99,-502.1 30.23,-675.63 -56.07,67.8 -136.02,100.78 -208.5,77.48 -96.17,-30.92 -145.28,-150.06 -117.01,-273.92 -5.05,-0.11 -10.38,-0.25 -15.99,-0.42 28.47,124.01 -20.64,243.38 -116.93,274.35 -48.39,15.56 -100.11,6.02 -145.84,-22.22 1.77,82.63 4.32,178.06 7.67,286.2 7.06,228.16 10.6,399.28 10.6,513.87 0,107.01 -1.51,268.04 -4.55,482.57 -3.02,214.54 -4.54,375.06 -4.54,482.58 0,25.74 14.14,40.88 42.91,45.93 82.79,4.55 146.39,6.56 190.81,5.55l441.68 6.06c43.41,0.51 153.96,3.03 331.14,7.07 136.29,3.53 246.84,5.55 331.14,5.55 35.84,0 56.04,-1.01 61.08,-3.03 15.65,-5.04 25.75,-20.19 30.79,-45.43 24.23,-122.16 36.35,-267.54 36.35,-435.63 0,-22.71 -13.13,-33.82 -39.88,-33.82 -88.84,0 -221.6,4.54 -398.78,13.63 -160.99,8.26 -285.31,12.76 -373.33,13.52 -11.49,0.36 -22.93,0.4 -34.32,0.11 -18.89,0 -28.61,0 -29.49,0 -2.41,-0.54 -4.62,-1.21 -6.65,-2.03 -131.3,-11.4 -256.45,-66.87 -375.47,-166.39z"/>
     <circle class="fil4" transform="matrix(0.394464 -0.126822 0.163642 0.508988 5963.2 4205.07)" r="596.69"/>
     <circle class="fil4" transform="matrix(0.208776 -0.0671225 0.08661 0.269389 5985.97 4325.3)" r="596.69"/>
     <path class="fil5" d="M5934.29 4164.56c68.8,-22.12 147.71,31.92 176.25,120.69 28.54,88.78 -4.09,178.68 -72.89,200.8 -68.8,22.11 -147.71,-31.92 -176.25,-120.7 -28.55,-88.77 4.09,-178.67 72.89,-200.79zm264.29 -35.16c-53.93,-167.73 -203.03,-269.83 -333.02,-228.04 -129.99,41.8 -191.66,211.65 -137.73,379.38 53.93,167.74 203.02,269.83 333.02,228.04 129.99,-41.79 191.65,-211.65 137.73,-379.38z"/>
     <path class="fil6" d="M6110.54 4285.25c-28.54,-88.77 -107.45,-142.81 -176.25,-120.69 -68.8,22.12 -101.44,112.02 -72.89,200.79 28.54,88.78 107.45,142.81 176.25,120.7 68.8,-22.12 101.43,-112.02 72.89,-200.8z"/>
     <circle class="fil4" transform="matrix(-0.394464 -0.126822 -0.163642 0.508988 6472.99 4205.07)" r="596.69"/>
     <circle class="fil4" transform="matrix(-0.208776 -0.0671225 -0.08661 0.269389 6450.23 4325.3)" r="596.69"/>
     <path class="fil5" d="M6501.9 4164.56c-68.79,-22.12 -147.71,31.92 -176.25,120.69 -28.54,88.78 4.1,178.68 72.89,200.8 68.8,22.11 147.72,-31.92 176.26,-120.7 28.54,-88.77 -4.1,-178.67 -72.9,-200.79zm-264.28 -35.16c53.93,-167.73 203.02,-269.83 333.02,-228.04 129.99,41.8 191.65,211.65 137.73,379.38 -53.93,167.74 -203.03,269.83 -333.02,228.04 -129.99,-41.79 -191.66,-211.65 -137.73,-379.38z"/>
     <path class="fil6" d="M6325.65 4285.25c28.54,-88.77 107.46,-142.81 176.25,-120.69 68.8,22.12 101.44,112.02 72.9,200.79 -28.54,88.78 -107.46,142.81 -176.26,120.7 -68.79,-22.12 -101.43,-112.02 -72.89,-200.8z"/>
    </g>
   </g>
  </g>
  <g id="_1612405683056">
   <path class="fil1" d="M13302.48 5979.19c633.02,0 1146.19,112.17 1146.19,250.54 0,138.38 -513.17,250.55 -1146.19,250.55 -633.02,0 -1146.19,-112.17 -1146.19,-250.55 0,-138.37 513.17,-250.54 1146.19,-250.54z"/>
   <g>
    <g>
     <path class="fil7" d="M13054.51 5727.22c-33.45,-55.06 -49.91,-161.58 -49.91,-319.56 0,-132.76 4.11,-331.39 12.34,-596.4 8.24,-264.5 12.36,-463.13 12.36,-595.89 0,-22.13 -12.36,-33.45 -37.57,-33.45 -61.75,0 -154.37,-2.58 -278.9,-7.2 -124.54,-5.15 -217.16,-7.72 -278.4,-7.72 -21.1,0 -31.9,11.83 -31.9,36.01 0,115.79 5.66,290.23 16.98,523.34 11.32,232.59 16.98,407.55 16.98,524.36 0,40.14 -1.54,100.86 -4.63,182.17 -3.09,81.3 -4.63,142.54 -4.63,183.7 0,178.05 13.38,301.55 39.62,371.02 51.98,141.51 165.7,237.74 340.66,287.66 109.6,31.39 266.04,46.82 469.3,46.82 449.24,0 730.2,-85.42 842.89,-256.26 61.24,-93.14 92.12,-268.1 92.12,-524.37 0,-32.41 -0.52,-80.78 -1.55,-145.62 -1.02,-64.84 -1.54,-113.21 -1.54,-145.12 0,-116.81 4.63,-291.77 13.89,-524.36 9.27,-233.11 13.9,-407.55 13.9,-523.34 0,-24.18 -14.41,-36.01 -43.74,-36.01 -59.18,0 -148.72,2.57 -268.1,7.72 -119.39,4.62 -208.92,7.2 -268.1,7.2 -25.22,0 -37.57,15.95 -37.57,46.82 0,145.63 3.61,364.33 10.81,656.1 7.2,291.26 10.81,509.96 10.81,655.59 0,200.17 -102.92,300 -308.76,300 -140.99,0 -233.11,-37.56 -277.36,-113.21zm-226.63 -46.39c336.84,273.79 661.63,276.09 974.37,6.91 -328.94,453.79 -653.73,451.49 -974.37,-6.91z"/>
     <g>
      <circle class="fil7" transform="matrix(0.402125 -0.129285 0.16682 0.518872 12621.3 4209.24)" r="596.69"/>
      <circle class="fil7" transform="matrix(0.212831 -0.068426 0.0882919 0.274621 12644.5 4331.81)" r="596.69"/>
      <path class="fil7" d="M12591.82 4167.94c70.14,-22.55 150.58,32.54 179.68,123.04 29.09,90.49 -4.18,182.14 -74.31,204.69 -70.14,22.55 -150.58,-32.54 -179.68,-123.04 -29.09,-90.49 4.18,-182.14 74.31,-204.69zm269.42 -35.84c-54.98,-170.99 -206.97,-275.07 -339.48,-232.47 -132.52,42.61 -195.38,215.76 -140.41,386.75 54.97,170.99 206.97,275.07 339.48,232.47 132.52,-42.61 195.38,-215.76 140.41,-386.75z"/>
      <path class="fil7" d="M12771.5 4290.98c-29.1,-90.5 -109.54,-145.59 -179.68,-123.04 -70.13,22.55 -103.4,114.2 -74.31,204.69 29.1,90.5 109.54,145.59 179.68,123.04 70.13,-22.55 103.4,-114.2 74.31,-204.69z"/>
     </g>
     <g>
      <circle class="fil7" transform="matrix(-0.402125 -0.129285 -0.16682 0.518872 14030.3 4209.24)" r="596.69"/>
      <circle class="fil7" transform="matrix(-0.212831 -0.068426 -0.0882919 0.274621 14007.1 4331.81)" r="596.69"/>
      <path class="fil7" d="M14059.82 4167.94c-70.14,-22.55 -150.58,32.54 -179.67,123.04 -29.1,90.49 4.17,182.14 74.3,204.69 70.14,22.55 150.59,-32.54 179.68,-123.04 29.1,-90.49 -4.18,-182.14 -74.31,-204.69zm-269.42 -35.84c54.98,-170.99 206.97,-275.07 339.49,-232.47 132.51,42.61 195.37,215.76 140.4,386.75 -54.97,170.99 -206.97,275.07 -339.48,232.47 -132.52,-42.61 -195.38,-215.76 -140.41,-386.75z"/>
      <path class="fil7" d="M13880.15 4290.98c29.09,-90.5 109.53,-145.59 179.67,-123.04 70.13,22.55 103.41,114.2 74.31,204.69 -29.09,90.5 -109.54,145.59 -179.68,123.04 -70.13,-22.55 -103.4,-114.2 -74.3,-204.69z"/>
     </g>
    </g>
    <g>
     <path class="fil8" d="M13130.49 5699.69c-31.84,-52.42 -47.51,-153.81 -47.51,-304.19 0,-126.37 3.91,-315.45 11.75,-567.71 7.84,-251.77 11.76,-440.85 11.76,-567.22 0,-21.07 -11.76,-31.84 -35.76,-31.84 -58.78,0 -146.95,-2.45 -265.49,-6.86 -118.54,-4.9 -206.71,-7.35 -265,-7.35 -20.08,0 -30.37,11.27 -30.37,34.29 0,110.21 5.39,276.26 16.17,498.16 10.77,221.4 16.16,387.94 16.16,499.13 0,38.21 -1.47,96.01 -4.4,173.41 -2.95,77.39 -4.42,135.68 -4.42,174.86 0,169.49 12.74,287.04 37.72,353.17 49.48,134.71 157.73,226.3 324.27,273.82 104.33,29.88 253.24,44.57 446.73,44.57 427.62,0 695.06,-81.31 802.34,-243.93 58.29,-88.66 87.68,-255.21 87.68,-499.14 0,-30.86 -0.49,-76.91 -1.47,-138.62 -0.98,-61.72 -1.47,-107.76 -1.47,-138.14 0,-111.19 4.41,-277.73 13.23,-499.13 8.81,-221.9 13.22,-387.95 13.22,-498.16 0,-23.02 -13.72,-34.29 -41.63,-34.29 -56.34,0 -141.57,2.45 -255.21,7.35 -113.64,4.41 -198.87,6.86 -255.2,6.86 -24,0 -35.76,15.18 -35.76,44.57 0,138.62 3.43,346.8 10.29,624.54 6.86,277.24 10.29,485.42 10.29,624.04 0,190.54 -97.97,285.57 -293.9,285.57 -134.21,0 -221.9,-35.76 -264.02,-107.76zm-215.73 -44.16c320.64,260.62 629.8,262.81 927.5,6.58 -313.12,431.95 -622.29,429.76 -927.5,-6.58z"/>
     <g>
      <circle class="fil4" transform="matrix(0.382779 -0.123065 0.158794 0.49391 12718.1 4254.73)" r="596.69"/>
      <circle class="fil4" transform="matrix(0.202592 -0.0651341 0.0840443 0.261409 12740.2 4371.4)" r="596.69"/>
      <path class="fil5" d="M12690.06 4215.42c66.76,-21.46 143.34,30.98 171.03,117.12 27.7,86.14 -3.97,173.38 -70.73,194.84 -66.76,21.47 -143.34,-30.97 -171.04,-117.11 -27.69,-86.14 3.98,-173.38 70.74,-194.85zm256.45 -34.12c-52.32,-162.76 -197,-261.83 -323.15,-221.28 -126.14,40.56 -185.97,205.38 -133.65,368.14 52.33,162.77 197.02,261.84 323.16,221.29 126.14,-40.56 185.97,-205.38 133.64,-368.15z"/>
      <path class="fil6" d="M12861.09 4332.54c-27.69,-86.14 -104.27,-138.58 -171.03,-117.12 -66.76,21.47 -98.43,108.71 -70.74,194.85 27.7,86.14 104.28,138.58 171.04,117.11 66.76,-21.46 98.43,-108.7 70.73,-194.84z"/>
     </g>
     <g>
      <circle class="fil4" transform="matrix(-0.382779 -0.123065 -0.158794 0.49391 14059.4 4254.73)" r="596.69"/>
      <circle class="fil4" transform="matrix(-0.202592 -0.0651341 -0.0840443 0.261409 14037.3 4371.4)" r="596.69"/>
      <path class="fil5" d="M14087.43 4215.42c-66.76,-21.46 -143.33,30.98 -171.03,117.12 -27.69,86.14 3.98,173.38 70.74,194.84 66.76,21.47 143.33,-30.97 171.03,-117.11 27.7,-86.14 -3.98,-173.38 -70.74,-194.85zm-256.45 -34.12c52.33,-162.76 197.01,-261.83 323.15,-221.28 126.14,40.56 185.98,205.38 133.65,368.14 -52.33,162.77 -197.01,261.84 -323.15,221.29 -126.14,-40.56 -185.98,-205.38 -133.65,-368.15z"/>
      <path class="fil6" d="M13916.4 4332.54c27.7,-86.14 104.27,-138.58 171.03,-117.12 66.76,21.47 98.44,108.71 70.74,194.85 -27.7,86.14 -104.27,138.58 -171.03,117.11 -66.76,-21.46 -98.43,-108.7 -70.74,-194.84z"/>
     </g>
    </g>
   </g>
  </g>
  <g id="_1612394607504">
   <path class="fil1" d="M15359.43 10883.67c1047.81,0 1897.21,185.68 1897.21,414.72 0,229.05 -849.4,414.72 -1897.21,414.72 -1047.8,0 -1897.21,-185.67 -1897.21,-414.72 0,-229.04 849.41,-414.72 1897.21,-414.72z"/>
   <g>
    <path class="fil9" d="M13698.14 9660.87c0,491.65 158.2,903.8 475.42,1238.05 322.9,342.38 729.37,513.56 1218.59,513.56 492.46,0 899.73,-169.56 1221.01,-508.69 315.6,-334.26 472.99,-748.02 472.99,-1242.92 0,-489.21 -159.02,-903.79 -477.86,-1242.11 -324.52,-343.99 -730.17,-515.98 -1216.14,-515.98 -489.22,0 -895.69,171.99 -1218.59,515.98 -317.22,335.89 -475.42,749.65 -475.42,1242.11zm1112.3 606.05c-141.17,-161.45 -211.75,-363.47 -211.75,-606.05 0,-226.35 75.45,-426.75 225.54,-601.17 154.96,-180.92 344.8,-270.98 567.92,-270.98 234.46,0 426.74,86.81 577.64,261.24 143.61,166.32 215.81,368.34 215.81,606.05 0,227.16 -74.64,425.93 -223.11,597.11 -156.58,179.3 -347.24,268.55 -570.34,268.55 -239.34,0 -433.24,-85.19 -581.71,-254.75z"/>
    <g>
     <circle class="fil9" transform="matrix(0.633996 -0.203833 0.263011 0.818062 14872.9 8130.15)" r="596.69"/>
     <circle class="fil9" transform="matrix(0.335552 -0.107881 0.139202 0.432971 14909.5 8323.39)" r="596.69"/>
     <path class="fil9" d="M14826.39 8065.04c110.58,-35.55 237.41,51.3 283.28,193.97 45.87,142.68 -6.58,287.18 -117.15,322.73 -110.58,35.55 -237.42,-51.3 -283.29,-193.98 -45.87,-142.68 6.59,-287.17 117.16,-322.72zm424.77 -56.52c-86.67,-269.58 -326.31,-433.67 -535.24,-366.5 -208.92,67.17 -308.03,340.17 -221.36,609.75 86.67,269.59 326.31,433.68 535.24,366.51 208.92,-67.17 308.03,-340.17 221.36,-609.76z"/>
     <path class="fil9" d="M15109.67 8259.01c-45.87,-142.67 -172.7,-229.52 -283.28,-193.97 -110.57,35.55 -163.03,180.04 -117.16,322.72 45.87,142.68 172.71,229.53 283.29,193.98 110.57,-35.55 163.02,-180.05 117.15,-322.73z"/>
     <line class="fil4" x1="14715.92" y1="7642.01" x2="14652.09" y2= "7403.77" />
     <line class="fil4" x1="14774.87" y1="7630.91" x2="14754.45" y2= "7403.77" />
     <line class="fil4" x1="14830.87" y1="7629.27" x2="14840.85" y2= "7444.75" />
     <line class="fil4" x1="14652.78" y1="7670.36" x2="14569.83" y2= "7479.08" />
     <line class="fil4" x1="14606.61" y1="7705.43" x2="14519.15" y2= "7544.12" />
    </g>
    <g>
     <circle class="fil9" transform="matrix(-0.633996 -0.203833 -0.263011 0.818062 15911.4 8130.15)" r="596.69"/>
     <circle class="fil9" transform="matrix(-0.335552 -0.107881 -0.139202 0.432971 15874.8 8323.39)" r="596.69"/>
     <path class="fil9" d="M15957.89 8065.04c-110.58,-35.55 -237.41,51.3 -283.28,193.97 -45.87,142.68 6.58,287.18 117.15,322.73 110.58,35.55 237.42,-51.3 283.29,-193.98 45.87,-142.68 -6.59,-287.17 -117.16,-322.72zm-424.77 -56.52c86.67,-269.58 326.31,-433.67 535.23,-366.5 208.93,67.17 308.04,340.17 221.37,609.75 -86.67,269.59 -326.31,433.68 -535.24,366.51 -208.92,-67.17 -308.03,-340.17 -221.36,-609.76z"/>
     <path class="fil9" d="M15674.61 8259.01c45.87,-142.67 172.7,-229.52 283.28,-193.97 110.57,35.55 163.03,180.04 117.16,322.72 -45.87,142.68 -172.71,229.53 -283.29,193.98 -110.57,-35.55 -163.02,-180.05 -117.15,-322.73z"/>
     <line class="fil4" x1="16068.35" y1="7642.01" x2="16132.19" y2= "7403.77" />
     <line class="fil4" x1="16009.41" y1="7630.91" x2="16029.82" y2= "7403.77" />
     <line class="fil4" x1="15953.41" y1="7629.27" x2="15943.43" y2= "7444.75" />
     <line class="fil4" x1="16131.5" y1="7670.36" x2="16214.45" y2= "7479.08" />
     <line class="fil4" x1="16177.67" y1="7705.43" x2="16265.13" y2= "7544.12" />
    </g>
    <path class="fil10" d="M13603.89 9653.5c0,477.03 153.5,876.93 461.29,1201.24 313.3,332.2 707.68,498.29 1182.35,498.29 477.82,0 872.99,-164.52 1184.71,-493.56 306.22,-324.32 458.93,-725.78 458.93,-1205.97 0,-474.67 -154.29,-876.92 -463.65,-1205.18 -314.87,-333.76 -708.46,-500.65 -1179.99,-500.65 -474.67,0 -869.05,166.89 -1182.35,500.65 -307.79,325.9 -461.29,727.36 -461.29,1205.18zm1079.23 588.03c-136.97,-156.65 -205.46,-352.66 -205.46,-588.03 0,-219.62 73.21,-414.06 218.85,-583.3 150.34,-175.54 334.54,-262.93 551.02,-262.93 227.5,0 414.06,84.24 560.47,253.48 139.34,161.38 209.4,357.39 209.4,588.03 0,220.41 -72.42,413.27 -216.48,579.36 -151.93,173.97 -336.91,260.57 -553.39,260.57 -232.22,0 -420.35,-82.66 -564.41,-247.18z"/>
    <g>
     <g>
      <circle class="fil4" transform="matrix(0.615147 -0.197772 0.255191 0.79374 14743.7 8168.29)" r="596.69"/>
      <circle class="fil4" transform="matrix(0.325575 -0.104674 0.135064 0.420099 14779.2 8355.78)" r="596.69"/>
      <path class="fil5" d="M14698.6 8105.11c107.29,-34.49 230.35,49.78 274.86,188.21 44.5,138.44 -6.39,278.63 -113.68,313.13 -107.28,34.49 -230.35,-49.78 -274.86,-188.22 -44.5,-138.43 6.39,-278.63 113.68,-313.12zm412.14 -54.84c-84.1,-261.56 -316.61,-420.78 -519.32,-355.6 -202.72,65.17 -298.88,330.05 -214.79,591.62 84.1,261.57 316.61,420.79 519.33,355.61 202.71,-65.17 298.87,-330.05 214.78,-591.63z"/>
      <path class="fil6" d="M14973.46 8293.32c-44.51,-138.43 -167.57,-222.7 -274.86,-188.21 -107.29,34.49 -158.18,174.69 -113.68,313.12 44.51,138.44 167.58,222.71 274.86,188.22 107.29,-34.5 158.18,-174.69 113.68,-313.13z"/>
     </g>
     <g>
      <circle class="fil4" transform="matrix(-0.615147 -0.197772 -0.255191 0.79374 15751.4 8168.29)" r="596.69"/>
      <circle class="fil4" transform="matrix(-0.325575 -0.104674 -0.135064 0.420099 15715.9 8355.78)" r="596.69"/>
      <path class="fil5" d="M15796.45 8105.11c-107.28,-34.49 -230.34,49.78 -274.85,188.21 -44.51,138.44 6.38,278.63 113.67,313.13 107.29,34.49 230.35,-49.78 274.86,-188.22 44.51,-138.43 -6.39,-278.63 -113.68,-313.12zm-412.13 -54.84c84.09,-261.56 316.6,-420.78 519.32,-355.6 202.71,65.17 298.88,330.05 214.78,591.62 -84.1,261.57 -316.61,420.79 -519.32,355.61 -202.72,-65.17 -298.88,-330.05 -214.78,-591.63z"/>
      <path class="fil6" d="M15521.6 8293.32c44.51,-138.43 167.57,-222.7 274.85,-188.21 107.29,34.49 158.19,174.69 113.68,313.12 -44.51,138.44 -167.57,222.71 -274.86,188.22 -107.29,-34.5 -158.18,-174.69 -113.67,-313.13z"/>
     </g>
    </g>
   </g>
  </g>
  <g id="_1612829938368">
   <path class="fil1" d="M4699.91 10871.02c1047.81,0 1897.21,185.68 1897.21,414.72 0,229.05 -849.4,414.72 -1897.21,414.72 -1047.8,0 -1897.21,-185.67 -1897.21,-414.72 0,-229.04 849.41,-414.72 1897.21,-414.72z"/>
   <g>
    <g>
     <g>
      <circle class="fil11" transform="matrix(0.664358 -0.213594 0.275606 0.857239 3892.97 7943.7)" r="596.69"/>
      <circle class="fil11" transform="matrix(0.351621 -0.113048 0.145869 0.453706 3931.31 8146.19)" r="596.69"/>
      <path class="fil11" d="M3844.28 7875.47c115.87,-37.25 248.77,53.76 296.84,203.27 48.07,149.51 -6.9,300.92 -122.77,338.18 -115.87,37.25 -248.78,-53.76 -296.85,-203.28 -48.06,-149.5 6.91,-300.92 122.78,-338.17zm445.1 -59.22c-90.82,-282.49 -341.93,-454.44 -560.86,-384.06 -218.94,70.39 -322.79,356.46 -231.97,638.96 90.83,282.49 341.94,454.44 560.87,384.06 218.93,-70.39 322.79,-356.46 231.96,-638.96z"/>
      <path class="fil11" d="M4141.12 8078.74c-48.07,-149.51 -180.97,-240.52 -296.84,-203.27 -115.87,37.25 -170.84,188.67 -122.78,338.17 48.07,149.52 180.98,240.53 296.85,203.28 115.87,-37.26 170.84,-188.67 122.77,-338.18z"/>
     </g>
     <path class="fil11" d="M4196.27 10036c-3.39,-192.98 -5.1,-337.5 -5.1,-434.43 0,-97.76 1.71,-244.84 5.1,-441.23 3.41,-197.24 5.11,-344.32 5.11,-442.08 0,-68.01 127.52,-102.02 382.56,-102.02 278.86,0 502.45,91.82 671.63,276.3 167.48,177.68 251.65,406.38 251.65,686.93 0,295.01 -77.37,533.9 -231.24,714.14 -164.08,191.28 -390.23,286.5 -676.73,286.5 -265.25,0 -397.87,-35.71 -397.87,-107.12 0,-97.77 -1.7,-243.15 -5.11,-436.99zm1461.73 80.14c384.31,-121.67 648.08,-370.13 791.29,-745.38 -22.33,-195.95 -76.37,-388.06 -162.47,-575.99 -121.58,-268.65 -286.51,-477.79 -495.65,-627.42 -221.89,-159.82 -530.5,-259.29 -923.27,-299.25 -151.33,-14.45 -482.04,-22.11 -993.83,-22.11 -268.66,0 -461.64,6.8 -579.81,19.56 -48.46,6.81 -72.27,28.05 -72.27,62.91 0,188.74 6.8,474.39 20.41,855.26 13.6,380.87 20.4,667.38 20.4,857.81 0,182.78 -6.8,457.39 -20.4,822.96 -13.61,366.42 -20.41,641.02 -20.41,823.8 0,38.26 23.81,56.96 72.27,56.96 81.61,0 204.03,2.55 367.26,7.66 163.24,5.09 285.66,7.64 367.27,7.64 432.73,0 697.98,-1.7 794.05,-5.1 501.59,-17 890.12,-185.33 1168.12,-505.85 222.46,-254.41 365.83,-541.32 430.41,-860.72 -366.71,152.77 -621.17,195.19 -763.37,127.26z"/>
     <g>
      <circle class="fil11" transform="matrix(0.664358 -0.213594 0.275606 0.857239 3500.82 7943.7)" r="596.69"/>
      <circle class="fil11" transform="matrix(0.351621 -0.113048 0.145869 0.453706 3539.16 8146.19)" r="596.69"/>
      <path class="fil11" d="M3452.13 7875.47c115.87,-37.25 248.77,53.76 296.84,203.27 48.07,149.51 -6.9,300.92 -122.77,338.18 -115.87,37.25 -248.78,-53.76 -296.85,-203.28 -48.06,-149.5 6.91,-300.92 122.78,-338.17zm445.1 -59.22c-90.82,-282.49 -341.93,-454.44 -560.86,-384.06 -218.94,70.39 -322.79,356.46 -231.97,638.96 90.83,282.49 341.94,454.44 560.87,384.06 218.93,-70.39 322.79,-356.46 231.96,-638.96z"/>
      <path class="fil11" d="M3748.97 8078.74c-48.07,-149.51 -180.97,-240.52 -296.84,-203.27 -115.87,37.25 -170.84,188.67 -122.78,338.17 48.07,149.52 180.98,240.53 296.85,203.28 115.87,-37.26 170.84,-188.67 122.77,-338.18z"/>
     </g>
    </g>
    <g>
     <g>
      <circle class="fil4" transform="matrix(0.615147 -0.197772 0.255191 0.79374 3896.24 8052.31)" r="596.69"/>
      <circle class="fil4" transform="matrix(0.325575 -0.104674 0.135064 0.420099 3931.75 8239.8)" r="596.69"/>
      <path class="fil5" d="M3851.16 7989.13c107.28,-34.49 230.34,49.78 274.85,188.21 44.51,138.44 -6.38,278.64 -113.67,313.13 -107.29,34.49 -230.35,-49.78 -274.86,-188.22 -44.51,-138.43 6.39,-278.63 113.68,-313.12zm412.13 -54.84c-84.09,-261.56 -316.6,-420.77 -519.32,-355.6 -202.71,65.17 -298.88,330.06 -214.78,591.62 84.1,261.57 316.61,420.79 519.32,355.61 202.72,-65.17 298.88,-330.05 214.78,-591.63z"/>
      <path class="fil6" d="M4126.01 8177.34c-44.51,-138.43 -167.57,-222.7 -274.85,-188.21 -107.29,34.49 -158.19,174.69 -113.68,313.12 44.51,138.44 167.57,222.71 274.86,188.22 107.29,-34.49 158.18,-174.69 113.67,-313.13z"/>
     </g>
     <path class="fil12" d="M4177.08 9989.62c-3.15,-178.69 -4.72,-312.5 -4.72,-402.25 0,-90.52 1.57,-226.7 4.72,-408.55 3.15,-182.62 4.73,-318.81 4.73,-409.33 0,-62.97 118.07,-94.46 354.22,-94.46 258.21,0 465.23,85.01 621.88,255.83 155.08,164.52 233.01,376.28 233.01,636.05 0,273.15 -71.64,494.35 -214.11,661.24 -151.93,177.11 -361.33,265.28 -626.61,265.28 -245.59,0 -368.39,-33.07 -368.39,-99.19 0,-90.53 -1.58,-225.13 -4.73,-404.62zm1353.45 74.21c355.84,-112.67 600.07,-342.72 732.68,-690.17 -20.68,-181.44 -70.71,-359.32 -150.44,-533.33 -112.57,-248.74 -265.28,-442.39 -458.93,-580.94 -205.45,-147.98 -491.21,-240.09 -854.88,-277.08 -140.12,-13.38 -446.34,-20.47 -920.22,-20.47 -248.75,0 -427.44,6.29 -536.86,18.1 -44.87,6.31 -66.91,25.98 -66.91,58.26 0,174.75 6.29,439.24 18.89,791.9 12.6,352.66 18.89,617.94 18.89,794.27 0,169.24 -6.29,423.51 -18.89,762 -12.6,339.28 -18.89,593.53 -18.89,762.78 0,35.42 22.04,52.74 66.91,52.74 75.57,0 188.92,2.36 340.06,7.09 151.14,4.72 264.5,7.08 340.07,7.08 400.67,0 646.27,-1.58 735.23,-4.72 464.43,-15.75 824.18,-171.61 1081.59,-468.38 205.98,-235.57 338.73,-501.23 398.53,-796.97 -339.55,141.45 -575.16,180.73 -706.83,117.84z"/>
     <g>
      <circle class="fil4" transform="matrix(0.615147 -0.197772 0.255191 0.79374 3533.14 8052.31)" r="596.69"/>
      <circle class="fil4" transform="matrix(0.325575 -0.104674 0.135064 0.420099 3568.64 8239.8)" r="596.69"/>
      <path class="fil5" d="M3488.05 7989.13c107.29,-34.49 230.35,49.78 274.86,188.21 44.51,138.44 -6.39,278.64 -113.67,313.13 -107.29,34.49 -230.36,-49.78 -274.86,-188.22 -44.51,-138.43 6.39,-278.63 113.67,-313.12zm412.14 -54.84c-84.09,-261.56 -316.61,-420.77 -519.32,-355.6 -202.72,65.17 -298.88,330.06 -214.78,591.62 84.09,261.57 316.6,420.79 519.32,355.61 202.71,-65.17 298.88,-330.05 214.78,-591.63z"/>
      <path class="fil6" d="M3762.91 8177.34c-44.51,-138.43 -167.57,-222.7 -274.86,-188.21 -107.28,34.49 -158.18,174.69 -113.67,313.12 44.5,138.44 167.57,222.71 274.86,188.22 107.28,-34.49 158.18,-174.69 113.67,-313.13z"/>
     </g>
    </g>
   </g>
  </g>
  <g id="_1612829936544">
   <path class="fil1" d="M10941.22 9359.6c684.14,0 1238.73,121.23 1238.73,270.78 0,149.55 -554.59,270.78 -1238.73,270.78 -314.89,0 -602.28,-25.69 -820.83,-68 -227.2,57.98 -564.51,94.73 -941.12,94.73 -684.11,0 -1238.71,-121.25 -1238.71,-270.78 0,-149.55 554.6,-270.79 1238.71,-270.79 314.89,0 602.27,25.71 820.83,68.01 227.19,-57.98 564.5,-94.73 941.12,-94.73z"/>
   <g>
    <path class="fil13" d="M10978.94 8503.31c-54.41,-86.4 -58.64,-231.92 -9.4,-323.37l169.27 -314.38 323.12 -600.14c49.24,-91.44 134.04,-95.57 188.45,-9.17l34.55 54.85c-65.77,-151.46 -216.19,-255.35 -388.42,-250.81 -21.26,0.56 -42.09,2.75 -62.39,6.46l74.24 -2.21c103.82,-3.08 149.8,68.3 102.17,158.62l-323.62 613.83 -152.59 289.42c-47.62,90.32 -171.53,166.75 -275.35,169.83l-352.78 10.48 -685.41 20.36c-96.69,2.87 -143.21,-58.85 -110.67,-140.31 -57.08,121.9 -54.38,267.75 20.18,389.39 8.21,13.39 17.08,26.15 26.55,38.24l-27.7 -44.84c-54.58,-88.36 -15.75,-163.87 86.28,-167.79l691.97 -26.59 328.38 -12.62c102.03,-3.92 230.17,65.17 284.75,153.54l182.16 294.92 363.64 588.76c54.57,88.37 15.75,163.88 -86.28,167.8l-45.06 1.73c152.73,5.34 301.48,-72.29 378.1,-213.47 2.56,-4.72 5.02,-9.47 7.38,-14.25l-8.93 16.59c-49.24,91.45 -134.05,95.58 -188.46,9.17l-368.9 -585.79 -175.23 -278.25z"/>
    <path class="fil14" d="M9610.39 8393.34c-102.65,3.95 -141.71,79.91 -86.8,168.82l549.1 889.03c54.91,88.91 183.83,158.42 286.48,154.47l1026.53 -39.44c102.65,-3.95 141.71,-79.91 86.8,-168.82l-549.1 -889.03c-54.91,-88.91 -183.83,-158.42 -286.48,-154.47l-1026.53 39.44z"/>
    <path class="fil15" d="M11518.53 9372.84c54.75,86.93 140.07,82.78 189.6,-9.23l495.38 -920.06c49.54,-92 45.28,-238.4 -9.47,-325.33l-547.42 -869.27c-54.74,-86.93 -140.06,-82.78 -189.6,9.23l-495.38 920.06c-49.53,92 -45.27,238.4 9.47,325.33l547.42 869.27z"/>
    <path class="fil16" d="M11424.44 7218.66c47.91,-90.87 1.66,-162.68 -102.79,-159.58l-1044.48 31.02c-104.45,3.1 -229.1,79.99 -277.01,170.86l-479.11 908.73c-47.91,90.87 -1.65,162.68 102.8,159.58l1044.48 -31.02c104.44,-3.11 229.1,-79.99 277.01,-170.86l479.1 -908.73z"/>
    <g>
     <g>
      <circle class="fil5" transform="matrix(-0.0690038 0.109701 -0.0687597 -0.0977908 11984.5 8417.73)" r="1158.64"/>
      <circle class="fil5" transform="matrix(-0.0690038 0.109701 -0.0687597 -0.0977908 11540 7785.52)" r="1158.64"/>
      <circle class="fil5" transform="matrix(-0.0690038 0.109701 -0.0687597 -0.0977908 11757.4 8094.75)" r="1158.64"/>
     </g>
     <g>
      <circle class="fil5" transform="matrix(-0.0690038 0.109701 -0.0687597 -0.0977908 11674.2 8911.09)" r="1158.64"/>
      <circle class="fil5" transform="matrix(-0.0690038 0.109701 -0.0687597 -0.0977908 11229.7 8278.88)" r="1158.64"/>
      <circle class="fil5" transform="matrix(-0.0690038 0.109701 -0.0687597 -0.0977908 11447.1 8588.11)" r="1158.64"/>
     </g>
    </g>
    <g>
     <circle class="fil5" transform="matrix(-0.0329122 0.1174 -0.116452 0.00306893 10320.1 7433.86)" r="1158.64"/>
     <circle class="fil5" transform="matrix(-0.0329122 0.1174 -0.116452 0.00306893 10556.7 7951.71)" r="1158.64"/>
    </g>
    <g>
     <circle class="fil5" transform="matrix(0.0684073 0.122855 -0.124572 0.00328291 10636.3 8735.71)" r="1158.64"/>
     <circle class="fil5" transform="matrix(0.0684073 0.122855 -0.124572 0.00328291 10041.1 8751.39)" r="1158.64"/>
     <circle class="fil5" transform="matrix(0.0684073 0.122855 -0.124572 0.00328291 10944 9288.22)" r="1158.64"/>
     <circle class="fil5" transform="matrix(0.0684073 0.122855 -0.124572 0.00328291 10348.7 9303.91)" r="1158.64"/>
    </g>
   </g>
   <g>
    <path class="fil13" d="M8923.98 8226.9c73.16,71.23 111.4,211.71 84.98,312.15l-90.84 345.31 -173.39 659.17c-26.42,100.45 -107.89,124.35 -181.04,53.11l-46.45 -45.22c99.45,131.82 270.04,197.53 436.41,152.73 20.52,-5.52 40.26,-12.54 59.13,-20.9l-71.65 19.55c-100.2,27.34 -161.64,-31.26 -136.52,-130.24l170.66 -672.59 80.47 -317.14c25.12,-98.97 127.65,-202.32 227.85,-229.66l340.48 -92.91 661.53 -180.51c93.33,-25.46 153.02,23.62 140.49,110.44 26.91,-131.89 -9.92,-273.04 -110.93,-373.8 -11.12,-11.09 -22.74,-21.41 -34.77,-30.95l37.44 37.1c73.78,73.1 53.74,155.61 -44.53,183.34l-666.44 188.11 -316.27 89.27c-98.27,27.74 -239.03,-9.38 -312.81,-82.49l-246.24 -243.99 -491.56 -487.07c-73.77,-73.1 -53.74,-155.61 44.53,-183.35l43.39 -12.24c-149.72,30.62 -276.11,140.96 -317.49,296.17 -1.39,5.19 -2.67,10.39 -3.84,15.58l4.8 -18.22c26.42,-100.44 107.89,-124.34 181.05,-53.11l495.98 482.96 235.58 229.4z"/>
    <path class="fil17" d="M10280.16 8012.9c98.87,-27.91 119.03,-110.92 44.8,-184.47l-742.27 -735.49c-74.22,-73.54 -215.84,-110.89 -314.71,-82.98l-988.65 279.05c-98.87,27.91 -119.03,110.92 -44.8,184.47l742.26 735.49c74.23,73.54 215.85,110.89 314.71,82.98l988.66 -279.05z"/>
    <path class="fil18" d="M8195.54 7508.14c-73.6,-71.66 -155.57,-47.62 -182.15,53.44l-265.82 1010.56c-26.58,101.06 11.89,242.38 85.49,314.04l736 716.68c73.6,71.67 155.56,47.62 182.15,-53.44l265.82 -1010.56c26.58,-101.06 -11.89,-242.37 -85.49,-314.04l-736 -716.68z"/>
    <path class="fil19" d="M8792.14 9580.2c-25.27,99.57 36.54,158.53 137.35,131.03l1008.08 -275.08c100.81,-27.51 203.96,-131.48 229.23,-231.05l252.66 -995.73c25.26,-99.58 -36.54,-158.54 -137.35,-131.03l-1008.09 275.07c-100.8,27.51 -203.96,131.49 -229.22,231.06l-252.66 995.73z"/>
    <g>
     <g>
      <circle class="fil5" transform="matrix(0.0413561 -0.122823 0.0897735 0.0789408 7966.5 8545.9)" r="1158.64"/>
      <circle class="fil5" transform="matrix(0.0413561 -0.122823 0.0897735 0.0789408 8546.87 9056.25)" r="1158.64"/>
      <circle class="fil5" transform="matrix(0.0413561 -0.122823 0.0897735 0.0789408 8262.99 8806.62)" r="1158.64"/>
     </g>
     <g>
      <circle class="fil5" transform="matrix(0.0413561 -0.122823 0.0897735 0.0789408 8152.49 7993.53)" r="1158.64"/>
      <circle class="fil5" transform="matrix(0.0413561 -0.122823 0.0897735 0.0789408 8732.86 8503.87)" r="1158.64"/>
      <circle class="fil5" transform="matrix(0.0413561 -0.122823 0.0897735 0.0789408 8448.98 8254.25)" r="1158.64"/>
     </g>
    </g>
    <g>
     <circle class="fil5" transform="matrix(0.00446535 -0.121845 0.112486 -0.0302902 9815.26 9112.04)" r="1158.64"/>
     <circle class="fil5" transform="matrix(0.00446535 -0.121845 0.112486 -0.0302902 9463.83 8664.1)" r="1158.64"/>
    </g>
    <g>
     <circle class="fil5" transform="matrix(-0.0953084 -0.103389 0.120329 -0.0324022 9202.56 7920.65)" r="1158.64"/>
     <circle class="fil5" transform="matrix(-0.0953084 -0.103389 0.120329 -0.0324022 9777.54 7765.82)" r="1158.64"/>
     <circle class="fil5" transform="matrix(-0.0953084 -0.103389 0.120329 -0.0324022 8773.93 7455.67)" r="1158.64"/>
     <circle class="fil5" transform="matrix(-0.0953084 -0.103389 0.120329 -0.0324022 9348.91 7300.84)" r="1158.64"/>
    </g>
   </g>
  </g>
 </g>
</svg>
