<?xml version="1.0" encoding="UTF-8" standalone="no"?>
<!-- Created with Inkscape (http://www.inkscape.org/) -->

<svg
   version="1.1"
   id="svg2"
   width="666.66669"
   height="666.66669"
   viewBox="0 0 666.66669 666.66669"
   sodipodi:docname="golden(crown).ai"
   xmlns:inkscape="http://www.inkscape.org/namespaces/inkscape"
   xmlns:sodipodi="http://sodipodi.sourceforge.net/DTD/sodipodi-0.dtd"
   xmlns="http://www.w3.org/2000/svg"
   xmlns:svg="http://www.w3.org/2000/svg">
  <defs
     id="defs6">
    <clipPath
       clipPathUnits="userSpaceOnUse"
       id="clipPath18">
      <path
         d="M 0,500 H 500 V 0 H 0 Z"
         id="path16" />
    </clipPath>
  </defs>
  <sodipodi:namedview
     id="namedview4"
     pagecolor="#ffffff"
     bordercolor="#000000"
     borderopacity="0.25"
     inkscape:showpageshadow="2"
     inkscape:pageopacity="0.0"
     inkscape:pagecheckerboard="0"
     inkscape:deskcolor="#d1d1d1" />
  <g
     id="g8"
     inkscape:groupmode="layer"
     inkscape:label="golden(crown)"
     transform="matrix(1.3333333,0,0,-1.3333333,0,666.66667)">
    <g
       id="g12">
      <g
         id="g14"
         clip-path="url(#clipPath18)">
        
        
        <g
           id="g28"
           transform="translate(126.2583,342.2725)">
          <path
             d="m 0,0 c 4.161,-1.573 8.366,-3.168 12.043,-5.671 3.678,-2.503 6.833,-6.039 7.998,-10.333 1.163,-4.293 -0.015,-9.364 -3.543,-12.072 -2.403,-1.844 -5.572,-2.426 -8.598,-2.315 -2.594,0.096 -5.291,0.721 -7.227,2.45 -2.49,2.225 -3.238,5.796 -3.465,9.128 C -3.201,-12.801 -2.357,-6.706 0,0"
             style="fill:#FFD700;fill-opacity:1;fill-rule:nonzero;stroke:none"
             id="path30" />
        </g>     
        <g
           id="g32"
           transform="translate(130.2915,271.5854)">
          <path
             d="m 0,0 c -0.473,-9.804 -3.159,-19.447 -7.39,-28.304 -2.062,-4.319 -4.845,-8.772 -9.345,-10.403 -4.805,-1.74 -10.341,0.367 -13.983,3.952 -3.643,3.584 -5.76,8.405 -6.894,12.714 2.382,-3.143 4.831,-6.349 8.131,-8.507 3.3,-2.16 7.674,-3.102 11.226,-1.388 2.208,1.065 3.866,3.029 5.095,5.15 2.585,4.46 3.494,9.657 4.995,14.588 C -6.664,-7.268 -4.281,-2.229 0,0"
             style="fill:#FFD700;fill-opacity:1;fill-rule:nonzero;stroke:none"
             id="path34" />
        </g>
        <g
           id="g36"
           transform="translate(124.3887,285.3462)">
          <path
             d="M 0,0 C 0,1.63 1.321,2.951 2.952,2.951 4.582,2.951 5.903,1.63 5.903,0 5.903,-1.63 4.582,-2.951 2.952,-2.951 1.321,-2.951 0,-1.63 0,0"
             style="fill:#FFD700;fill-opacity:1;fill-rule:nonzero;stroke:none"
             id="path38" />
        </g>
        <g
           id="g40"
           transform="translate(125.5532,277.5962)">
          <path
             d="M 0,0 C 0,1.63 1.322,2.951 2.952,2.951 4.582,2.951 5.903,1.63 5.903,0 5.903,-1.63 4.582,-2.951 2.952,-2.951 1.322,-2.951 0,-1.63 0,0"
             style="fill:#FFD700;fill-opacity:1;fill-rule:nonzero;stroke:none"
             id="path42" />
        </g>
        <g
           id="g44"
           transform="translate(122.4653,265.3682)">
          <path
             d="M 0,0 C 1.073,2.723 3.033,5.089 5.536,6.618 3.536,7.381 1.794,8.805 0.79,10.683 -0.883,7.449 -1.216,3.548 0,0"
             style="fill:#FFD700;fill-opacity:1;fill-rule:nonzero;stroke:none"
             id="path46" />
        </g>
        <g
           id="g48"
           transform="translate(105.019,251.4932)">
          <path
             d="M 0,0 -0.223,-8.448 C -3.852,-6.331 -6.149,-2.115 -5.859,2.385 -4.159,0.939 -1.977,0.07 0,0"
             style="fill:#FFD700;fill-opacity:1;fill-rule:nonzero;stroke:none"
             id="path50" />
        </g>
        <g
           id="g52"
           transform="translate(97.9722,249.6255)">
          <path
             d="m 0,0 c 0.156,2.272 -0.141,4.574 -0.869,6.731 -0.207,0.018 2.28,-0.19 2.28,-0.19 -0.442,2.763 -2.01,5.329 -4.266,6.984 0.161,-0.021 2.48,-0.415 2.48,-0.415 0.122,2.817 -0.607,5.666 -2.067,8.078 -0.022,-2.98 -1.374,-5.677 -2.482,-8.334 C -6.031,10.199 -6.921,7.18 -5.918,4.61 -4.178,2.817 -2.249,1.207 0,0"
             style="fill:#FFD700;fill-opacity:1;fill-rule:nonzero;stroke:none"
             id="path54" />
               </g>
        <g
           id="g56"
           transform="translate(92.9063,271.2417)">
          <path
             d="m 0,0 c 0.225,-2.38 -0.308,-4.826 -1.503,-6.896 -1.196,-2.07 -3.048,-3.755 -5.222,-4.75 -1.064,1.019 -1.798,2.166 -1.685,3.315 3.449,1.839 6.3,4.778 8.41,8.331"
             style="fill:#FFD700;fill-opacity:1;fill-rule:nonzero;stroke:none"
             id="path58" />
        </g>
        <g
           id="g60"
           transform="translate(84.5186,279.7812)">
          <path
             d="M 0,0 0.996,2.769 C 3.468,1.05 5.263,-1.73 5.46,-4.734 c 0.198,-3.004 -1.356,-6.141 -4.031,-7.521 -1.254,-0.646 -2.765,-0.896 -4.093,-0.419 -1.207,0.433 -2.147,1.414 -2.837,2.494 -0.691,1.08 -1.175,2.278 -1.769,3.415 -1.881,3.604 -4.92,6.592 -9.037,8.355 2.655,0.729 5.489,0.795 8.174,0.21 -0.543,3.345 -0.193,6.83 1.078,9.669 C -6.56,9.071 -4.748,7.205 -3.092,5.401 -1.437,3.597 0.221,1.508 0,0"
             style="fill:#FFD700;fill-opacity:1;fill-rule:nonzero;stroke:none"
             id="path62" />
        </g>
        <g
           id="g64"
           transform="translate(209.1108,268.6929)">
          <path
             d="m 0,0 c -3.871,-4.297 -9.282,-7.176 -15.008,-7.985 -5.727,-0.81 -11.724,0.456 -16.346,4.195 5.124,5.345 8.521,12.32 9.506,19.693 -1.744,1.339 -2.565,3.771 -1.693,5.851 2.002,-2.106 4.975,-3.249 7.873,-3.026 2.897,0.223 5.66,1.806 7.277,3.739 0.292,-2.264 -0.602,-4.648 -1.824,-6.226 C -8.586,9.639 -4.61,3.642 0,0"
             style="fill:#FFD700;fill-opacity:1;fill-rule:nonzero;stroke:none"
             id="path66" />
        </g>
        <g
           id="g68"
           transform="translate(192.728,307.6323)">
          <path
             d="m 0,0 c 2.094,-3.156 3.534,-6.745 4.201,-10.474 0.214,-0.208 2.64,0.54 2.64,0.54 0.438,-2.537 -0.705,-5.28 -2.816,-6.755 -2.111,-1.474 -5.081,-1.604 -7.312,-0.319 -2.231,1.285 -3.609,3.918 -3.078,6.546 0.964,-0.064 1.91,-0.364 3.203,-0.822 C -3.014,-7.34 -1.793,-3.442 0,0"
             style="fill:#FFD700;fill-opacity:1;fill-rule:nonzero;stroke:none"
             id="path70" />
        </g>
        <g
           id="g72"
           transform="translate(151.8691,299.3916)">
          <path
             d="M 0,0 C 0,2.209 1.791,4 4,4 6.209,4 8,2.209 8,0 8,-2.209 6.209,-4 4,-4 1.791,-4 0,-2.209 0,0"
             style="fill:#FFD700;fill-opacity:1;fill-rule:nonzero;stroke:none"
             id="path74" />
        </g>
        <g
           id="g76"
           transform="translate(155.8691,290.9106)">
          <path
             d="m 0,0 c 0,1.923 1.558,3.481 3.481,3.481 1.922,0 3.48,-1.558 3.48,-3.481 0,-1.922 -1.558,-3.48 -3.48,-3.48 C 1.558,-3.48 0,-1.922 0,0"
             style="fill:#FFD700;fill-opacity:1;fill-rule:nonzero;stroke:none"
             id="path78" />
        </g>
        <g
           id="g80"
           transform="translate(160.3691,283.1641)">
          <path
             d="M 0,0 C 0,1.804 1.462,3.266 3.266,3.266 5.07,3.266 6.532,1.804 6.532,0 6.532,-1.804 5.07,-3.267 3.266,-3.267 1.462,-3.267 0,-1.804 0,0"
             style="fill:#FFD700;fill-opacity:1;fill-rule:nonzero;stroke:none"
             id="path82" />
        </g>
        <g
           id="g84"
           transform="translate(164.8691,276.0513)">
          <path
             d="M 0,0 C 0,1.804 1.462,3.266 3.266,3.266 5.07,3.266 6.532,1.804 6.532,0 6.532,-1.804 5.07,-3.266 3.266,-3.266 1.462,-3.266 0,-1.804 0,0"
             style="fill:#FFD700;fill-opacity:1;fill-rule:nonzero;stroke:none"
             id="path86" />
        </g>
        <g
           id="g88"
           transform="translate(170.6567,269.147)">
          <path
             d="M 0,0 C 0,1.689 1.369,3.058 3.058,3.058 4.747,3.058 6.115,1.689 6.115,0 6.115,-1.688 4.747,-3.058 3.058,-3.058 1.369,-3.058 0,-1.688 0,0"
             style="fill:#FFD700;fill-opacity:1;fill-rule:nonzero;stroke:none"
             id="path90" />
        </g>
        <g
           id="g92"
           transform="translate(203.9067,280.5474)">
          <path
             d="M 0,0 C 0,1.689 1.369,3.058 3.058,3.058 4.747,3.058 6.115,1.689 6.115,0 6.115,-1.688 4.747,-3.058 3.058,-3.058 1.369,-3.058 0,-1.688 0,0"
             style="fill:#FFD700;fill-opacity:1;fill-rule:nonzero;stroke:none"
             id="path94" />
        </g>
        <g
           id="g96"
           transform="translate(209.1108,273.7676)">
          <path
             d="M 0,0 C 0,1.689 1.369,3.058 3.058,3.058 4.747,3.058 6.116,1.689 6.116,0 6.116,-1.689 4.747,-3.058 3.058,-3.058 1.369,-3.058 0,-1.689 0,0"
             style="fill:#FFD700;fill-opacity:1;fill-rule:nonzero;stroke:none"
             id="path98" />
        </g>
        <g
           id="g100"
           transform="translate(110.9487,190.9814)">
          <path
             d="M 0,0 C -0.951,-2.506 -1.493,-5.167 -1.597,-7.846 -4.175,-5.424 -5.404,-2.04 -5.279,1.421 -3.483,1.524 -1.66,1.104 0,0"
             style="fill:#FFD700;fill-opacity:1;fill-rule:nonzero;stroke:none"
             id="path102" />
        </g>
        <g
           id="g104"
           transform="translate(250,345.6631)">
         <path
             d="m 0,0 c 2.925,0 5.269,-0.001 8.076,-1 2.807,-0.998 5.254,-3.678 4.963,-6.643 -0.198,-2.021 -1.565,-3.704 -2.425,-5.545 -1.914,-4.096 -1.279,-8.894 -0.304,-13.309 3.627,-16.44 11.35,-31.738 20.59,-45.81 4.1,-6.246 8.748,-12.498 15.35,-15.995 8.277,-4.383 18.659,-3.659 27.053,0.494 8.394,4.153 14.957,11.381 19.8,19.398 4.842,8.016 8.119,16.86 11.367,25.645 -3.317,4.233 -5.571,9.775 -5.557,15.343 2.324,-5.076 6.268,-8.94 11.03,-10.841 4.762,-1.902 10.282,-1.816 14.984,0.231 -2.965,-5.376 -9.009,-7.718 -14.385,-6.448 -3.746,-8.124 -5.807,-17.026 -6.562,-26.039 -8.011,-8.296 -14.797,-18.175 -23.737,-25.859 -8.939,-7.685 -21.14,-13.097 -32.459,-9.807 -9.298,2.703 -16.058,10.632 -21.481,18.654 C 10.733,-64.499 1.783,-37.347 0,-9.604 c -1.783,-27.743 -10.733,-54.895 -26.303,-77.927 -5.423,-8.022 -12.183,-15.951 -21.481,-18.654 -11.319,-3.29 -23.52,2.122 -32.459,9.807 -8.94,7.684 -15.726,17.563 -23.737,25.859 -0.755,9.013 -2.816,17.915 -6.562,26.039 -5.376,-1.27 -11.42,1.072 -14.385,6.448 4.702,-2.047 10.222,-2.133 14.984,-0.231 4.762,1.901 8.706,5.765 11.03,10.841 0.014,-5.568 -2.24,-11.11 -5.557,-15.343 3.248,-8.785 6.525,-17.629 11.367,-25.645 4.843,-8.017 11.406,-15.245 19.8,-19.398 8.394,-4.153 18.776,-4.877 27.053,-0.494 6.602,3.497 11.25,9.749 15.35,15.995 9.24,14.072 16.963,29.37 20.59,45.81 0.975,4.415 1.61,9.213 -0.304,13.309 -0.86,1.841 -2.227,3.524 -2.425,5.545 -0.291,2.965 2.156,5.645 4.963,6.643 2.807,0.999 5.151,1 8.076,1"
             style="fill:#FFD700;fill-opacity:1;fill-rule:nonzero;stroke:none"
             id="path106" />
        </g>
        <g
           id="g108"
           transform="translate(250,349.9316)">
          <path
             d="m 0,0 c 2.814,0 5.213,-0.261 7.956,-1.152 2.742,-0.891 5.321,-2.49 6.989,-4.843 1.668,-2.352 2.316,-5.508 1.305,-8.208 -0.645,-1.72 -1.928,-3.539 -1.158,-5.207 0.524,-1.133 1.938,-1.692 3.159,-1.432 1.221,0.26 2.219,1.207 2.772,2.327 0.554,1.119 0.712,2.394 0.717,3.643 0.009,2.608 -0.629,5.216 -1.842,7.525 -0.596,1.137 -1.346,2.466 -0.77,3.613 0.399,0.796 1.321,1.183 2.197,1.341 3.358,0.606 6.997,-1.546 8.085,-4.78 0.801,-2.38 0.302,-5.013 -0.605,-7.355 -1.743,-4.504 -4.996,-8.408 -9.112,-10.934 5.238,1.378 10.342,4.579 13.518,9.283 3.176,4.703 4.208,10.971 2.036,16.214 C 33.075,5.278 27.478,9.099 21.829,8.559 19.088,8.296 16.45,7.057 14.498,5.114 9.58,7.613 5.305,8.61 0,8.61 c -5.304,0 -9.58,-0.997 -14.498,-3.496 -1.952,1.943 -4.59,3.182 -7.331,3.445 -5.649,0.54 -11.246,-3.281 -13.418,-8.524 -2.172,-5.243 -1.14,-11.511 2.036,-16.214 3.176,-4.704 8.28,-7.905 13.518,-9.283 -4.116,2.526 -7.37,6.43 -9.112,10.934 -0.907,2.342 -1.406,4.975 -0.605,7.355 1.088,3.234 4.727,5.386 8.085,4.78 0.876,-0.158 1.798,-0.545 2.197,-1.341 0.576,-1.147 -0.174,-2.476 -0.771,-3.613 -1.212,-2.309 -1.85,-4.917 -1.841,-7.525 0.005,-1.249 0.163,-2.524 0.716,-3.643 0.554,-1.12 1.552,-2.067 2.773,-2.327 1.221,-0.26 2.635,0.299 3.159,1.432 0.77,1.668 -0.514,3.487 -1.158,5.207 -1.011,2.7 -0.363,5.856 1.305,8.208 1.668,2.353 4.247,3.952 6.989,4.843 C -5.213,-0.261 -2.814,0 0,0"
             style="fill:#FFD700;fill-opacity:1;fill-rule:nonzero;stroke:none"
             id="path110" />
        </g>
        <g
           id="g112"
           transform="translate(373.7412,342.2725)">
          <path
             d="m 0,0 c -4.16,-1.573 -8.365,-3.168 -12.043,-5.671 -3.678,-2.503 -6.833,-6.039 -7.997,-10.333 -1.163,-4.293 0.015,-9.364 3.543,-12.072 2.402,-1.844 5.571,-2.426 8.598,-2.315 2.593,0.096 5.291,0.721 7.226,2.45 2.49,2.225 3.238,5.796 3.466,9.128 C 3.201,-12.801 2.357,-6.706 0,0"
             style="fill:#FFD700;fill-opacity:1;fill-rule:nonzero;stroke:none"
             id="path114" />
        </g>
        <g
           id="g116"
           transform="translate(369.708,271.5854)">
          <path
             d="m 0,0 c 0.474,-9.804 3.159,-19.447 7.391,-28.304 2.061,-4.319 4.844,-8.772 9.344,-10.403 4.805,-1.74 10.341,0.367 13.984,3.952 3.642,3.584 5.76,8.405 6.893,12.714 -2.382,-3.143 -4.831,-6.349 -8.131,-8.507 -3.299,-2.16 -7.673,-3.102 -11.225,-1.388 -2.208,1.065 -3.866,3.029 -5.096,5.15 -2.585,4.46 -3.494,9.657 -4.995,14.588 C 6.664,-7.268 4.281,-2.229 0,0"
             style="fill:#FFD700;fill-opacity:1;fill-rule:nonzero;stroke:none"
             id="path118" />
        </g>
        <g
           id="g120"
           transform="translate(375.6113,285.3462)">
          <path
             d="m 0,0 c 0,1.63 -1.321,2.951 -2.952,2.951 -1.63,0 -2.951,-1.321 -2.951,-2.951 0,-1.63 1.321,-2.951 2.951,-2.951 C -1.321,-2.951 0,-1.63 0,0"
             style="fill:#FFD700;fill-opacity:1;fill-rule:nonzero;stroke:none"
             id="path122" />
        </g>
        <g
           id="g124"
           transform="translate(374.4473,277.5962)">
          <path
             d="m 0,0 c 0,1.63 -1.322,2.951 -2.952,2.951 -1.63,0 -2.951,-1.321 -2.951,-2.951 0,-1.63 1.321,-2.951 2.951,-2.951 C -1.322,-2.951 0,-1.63 0,0"
             style="fill:#FFD700;fill-opacity:1;fill-rule:nonzero;stroke:none"
             id="path126" />
        </g>
        <g
           id="g128"
           transform="translate(377.5352,265.3682)">
          <path
             d="m 0,0 c -1.073,2.723 -3.033,5.089 -5.536,6.618 2,0.763 3.741,2.187 4.746,4.065 C 0.883,7.449 1.216,3.548 0,0"
             style="fill:#FFD700;fill-opacity:1;fill-rule:nonzero;stroke:none"
             id="path130" />
        </g>
        <g
           id="g132"
           transform="translate(394.9814,251.4932)">
          <path
             d="M 0,0 0.223,-8.448 C 3.852,-6.331 6.148,-2.115 5.858,2.385 4.158,0.939 1.977,0.07 0,0"
             style="fill:#FFD700;fill-opacity:1;fill-rule:nonzero;stroke:none"
             id="path134" />
        </g>
        <g
           id="g136"
           transform="translate(402.0273,249.6255)">
          <path
             d="M 0,0 C -0.155,2.272 0.142,4.574 0.869,6.731 1.076,6.749 -1.41,6.541 -1.41,6.541 -0.969,9.304 0.6,11.87 2.855,13.525 2.694,13.504 0.375,13.11 0.375,13.11 0.254,15.927 0.982,18.776 2.442,21.188 2.465,18.208 3.816,15.511 4.925,12.854 6.031,10.199 6.922,7.18 5.919,4.61 4.179,2.817 2.249,1.207 0,0"
             style="fill:#FFD700;fill-opacity:1;fill-rule:nonzero;stroke:none"
             id="path138" />
        </g>
        <g
           id="g140"
           transform="translate(407.0937,271.2417)">
          <path
             d="m 0,0 c -0.225,-2.38 0.308,-4.826 1.503,-6.896 1.196,-2.07 3.048,-3.755 5.222,-4.75 1.064,1.019 1.797,2.166 1.685,3.315 C 4.961,-6.492 2.11,-3.553 0,0"
             style="fill:#FFD700;fill-opacity:1;fill-rule:nonzero;stroke:none"
             id="path142" />
        </g>
        <g
           id="g144"
           transform="translate(415.4814,279.7812)">
          <path
             d="M 0,0 -0.996,2.769 C -3.468,1.05 -5.263,-1.73 -5.46,-4.734 c -0.198,-3.004 1.356,-6.141 4.031,-7.521 1.254,-0.646 2.765,-0.896 4.093,-0.419 1.207,0.433 2.147,1.414 2.837,2.494 0.691,1.08 1.175,2.278 1.769,3.415 1.881,3.604 4.92,6.592 9.037,8.355 C 13.652,2.319 10.818,2.385 8.133,1.8 8.676,5.145 8.326,8.63 7.055,11.469 6.56,9.071 4.748,7.205 3.092,5.401 1.437,3.597 -0.221,1.508 0,0"
             style="fill:#FFD700;fill-opacity:1;fill-rule:nonzero;stroke:none"
             id="path146" />
        </g>
        <g
           id="g148"
           transform="translate(290.8896,268.6929)">
          <path
             d="m 0,0 c 3.87,-4.297 9.281,-7.176 15.008,-7.985 5.726,-0.81 11.723,0.456 16.346,4.195 -5.125,5.345 -8.521,12.32 -9.506,19.693 1.744,1.339 2.564,3.771 1.693,5.851 -2.003,-2.106 -4.976,-3.249 -7.873,-3.026 -2.897,0.223 -5.66,1.806 -7.277,3.739 C 8.099,20.203 8.992,17.819 10.215,16.241 8.586,9.639 4.609,3.642 0,0"
             style="fill:#FFD700;fill-opacity:1;fill-rule:nonzero;stroke:none"
             id="path150" />
        </g>
        <g
           id="g152"
           transform="translate(307.2725,307.6323)">
          <path
             d="m 0,0 c -2.095,-3.156 -3.534,-6.745 -4.201,-10.474 -0.214,-0.208 -2.641,0.54 -2.641,0.54 -0.437,-2.537 0.705,-5.28 2.817,-6.755 2.111,-1.474 5.081,-1.604 7.311,-0.319 2.232,1.285 3.61,3.918 3.078,6.546 C 5.4,-10.526 4.454,-10.826 3.161,-11.284 3.014,-7.34 1.793,-3.442 0,0"
             style="fill:#FFD700;fill-opacity:1;fill-rule:nonzero;stroke:none"
             id="path154" />
              </g>
        <g
           id="g156"
           transform="translate(348.1309,299.3916)">
          <path
             d="m 0,0 c 0,2.209 -1.791,4 -4,4 -2.209,0 -4,-1.791 -4,-4 0,-2.209 1.791,-4 4,-4 2.209,0 4,1.791 4,4"
             style="fill:#FFD700;fill-opacity:1;fill-rule:nonzero;stroke:none"
             id="path158" />
        </g>
        <g
           id="g160"
           transform="translate(344.1309,290.9106)">
          <path
             d="m 0,0 c 0,1.923 -1.558,3.481 -3.48,3.481 -1.923,0 -3.481,-1.558 -3.481,-3.481 0,-1.922 1.558,-3.48 3.481,-3.48 C -1.558,-3.48 0,-1.922 0,0"
             style="fill:#FFD700;fill-opacity:1;fill-rule:nonzero;stroke:none"
             id="path162" />
        </g>
        <g
           id="g164"
           transform="translate(339.6309,283.1641)">
          <path
             d="M 0,0 C 0,1.804 -1.462,3.266 -3.266,3.266 -5.07,3.266 -6.532,1.804 -6.532,0 c 0,-1.804 1.462,-3.267 3.266,-3.267 C -1.462,-3.267 0,-1.804 0,0"
             style="fill:#FFD700;fill-opacity:1;fill-rule:nonzero;stroke:none"
             id="path166" />
        </g>
        <g
           id="g168"
           transform="translate(335.1309,276.0513)">
          <path
             d="M 0,0 C 0,1.804 -1.462,3.266 -3.266,3.266 -5.07,3.266 -6.532,1.804 -6.532,0 c 0,-1.804 1.462,-3.266 3.266,-3.266 C -1.462,-3.266 0,-1.804 0,0"
             style="fill:#FFD700;fill-opacity:1;fill-rule:nonzero;stroke:none"
             id="path170" />
        </g>
        <g
           id="g172"
           transform="translate(329.3437,269.147)">
          <path
             d="m 0,0 c 0,1.689 -1.369,3.058 -3.059,3.058 -1.688,0 -3.056,-1.369 -3.056,-3.058 0,-1.688 1.368,-3.058 3.056,-3.058 C -1.369,-3.058 0,-1.688 0,0"
             style="fill:#FFD700;fill-opacity:1;fill-rule:nonzero;stroke:none"
             id="path174" />
        </g>
        <g
           id="g176"
           transform="translate(296.0937,280.5474)">
          <path
             d="m 0,0 c 0,1.689 -1.369,3.058 -3.059,3.058 -1.688,0 -3.056,-1.369 -3.056,-3.058 0,-1.688 1.368,-3.058 3.056,-3.058 C -1.369,-3.058 0,-1.688 0,0"
             style="fill:#FFD700;fill-opacity:1;fill-rule:nonzero;stroke:none"
             id="path178" />
        </g>
        <g
           id="g180"
           transform="translate(290.8896,273.7676)">
          <path
             d="m 0,0 c 0,1.689 -1.369,3.058 -3.059,3.058 -1.688,0 -3.057,-1.369 -3.057,-3.058 0,-1.689 1.369,-3.058 3.057,-3.058 C -1.369,-3.058 0,-1.689 0,0"
             style="fill:#FFD700;fill-opacity:1;fill-rule:nonzero;stroke:none"
             id="path182" />
        </g>
        <g
           id="g184"
           transform="translate(389.0518,190.9814)">
          <path
             d="M 0,0 C 0.95,-2.506 1.492,-5.167 1.597,-7.846 4.175,-5.424 5.403,-2.04 5.278,1.421 3.482,1.524 1.659,1.104 0,0"
             style="fill:#FFD700;fill-opacity:1;fill-rule:nonzero;stroke:none"
             id="path186" />
        </g>
        <g
           id="g188"
           transform="translate(251.5791,367.5215)">
          <path
             d="m 0,0 c -0.745,-0.832 -2.163,-0.94 -3.025,-0.23 -0.861,0.711 -1.027,2.123 -0.352,3.013 0.674,0.89 2.078,1.113 2.995,0.475 C 0.828,2.417 0.744,0.832 0,0 M 14.804,4.788 C 12.477,4.328 10.325,3.026 8.764,1.036 9.266,5.098 8.449,9.312 6.47,12.893 c -1.842,3.33 -4.681,6.097 -8.049,7.864 -3.368,-1.767 -6.207,-4.534 -8.048,-7.864 -1.98,-3.581 -2.796,-7.795 -2.294,-11.857 -1.562,1.99 -3.714,3.292 -6.04,3.752 -2.328,0.46 -4.811,0.075 -6.89,-1.07 2.382,-1.82 4.403,-4.132 6.006,-6.764 0.929,0.413 1.927,0.671 2.941,0.745 0.449,0.03 1.012,-0.046 1.161,-0.47 0.154,-0.442 -0.275,-0.856 -0.662,-1.121 -0.719,-0.489 -1.471,-0.926 -2.238,-1.337 0.636,-1.306 1.182,-2.67 1.61,-4.089 5.004,1.853 9.313,2.786 14.454,2.786 5.142,0 9.45,-0.933 14.453,-2.786 0.43,1.419 0.975,2.783 1.611,4.089 -0.766,0.411 -1.519,0.848 -2.238,1.337 -0.388,0.265 -0.816,0.679 -0.662,1.121 0.148,0.424 0.712,0.5 1.161,0.47 1.015,-0.074 2.012,-0.332 2.941,-0.745 1.603,2.632 3.624,4.944 6.005,6.764 -2.078,1.145 -4.562,1.53 -6.888,1.07"
             style="fill:#FFD700;fill-opacity:1;fill-rule:nonzero;stroke:none"
             id="path190" />
        </g>
        <g
           id="g192"
           transform="translate(189.8921,174.8604)">
          <path
             d="m 0,0 c 0,2.792 -2.263,5.056 -5.056,5.056 -2.792,0 -5.056,-2.264 -5.056,-5.056 0,-2.792 2.264,-5.056 5.056,-5.056 C -2.263,-5.056 0,-2.792 0,0"
             style="fill:#FFD700;fill-opacity:1;fill-rule:nonzero;stroke:none"
             id="path194" />
        </g>
        <g
           id="g196"
           transform="translate(128.7344,158.8955)">
          <path
             d="m 0,0 c 0,1.864 -1.512,3.376 -3.376,3.376 -1.865,0 -3.376,-1.512 -3.376,-3.376 0,-1.865 1.511,-3.377 3.376,-3.377 C -1.512,-3.377 0,-1.865 0,0"
             style="fill:#FFD700;fill-opacity:1;fill-rule:nonzero;stroke:none"
             id="path198" />
        </g>
        <g
           id="g200"
           transform="translate(139.394,163.4395)">
          <path
             d="m 0,0 c 0,2.097 -1.7,3.797 -3.797,3.797 -2.097,0 -3.797,-1.7 -3.797,-3.797 0,-2.097 1.7,-3.797 3.797,-3.797 C -1.7,-3.797 0,-2.097 0,0"
             style="fill:#FFD700;fill-opacity:1;fill-rule:nonzero;stroke:none"
             id="path202" />
        </g>
        <g
           id="g204"
    transform="translate(151.3154,167.2363)">
          <path
             d="M 0,0 C 0,2.306 -1.869,4.175 -4.175,4.175 -6.48,4.175 -8.35,2.306 -8.35,0 c 0,-2.306 1.87,-4.175 4.175,-4.175 C -1.869,-4.175 0,-2.306 0,0"
             style="fill:#FFD700;fill-opacity:1;fill-rule:nonzero;stroke:none"
             id="path206" />
        </g>
        <g
           id="g208"
           transform="translate(163.6616,170.2744)">
          <path
             d="m 0,0 c 0,2.532 -2.053,4.586 -4.586,4.586 -2.533,0 -4.586,-2.054 -4.586,-4.586 0,-2.533 2.053,-4.586 4.586,-4.586 C -2.053,-4.586 0,-2.533 0,0"
             style="fill:#FFD700;fill-opacity:1;fill-rule:nonzero;stroke:none"
             id="path210" />
        </g>
        <g
           id="g212"
           transform="translate(176.1001,172.5928)">
          <path
             d="m 0,0 c 0,2.703 -2.191,4.894 -4.894,4.894 -2.703,0 -4.895,-2.191 -4.895,-4.894 0,-2.703 2.192,-4.895 4.895,-4.895 C -2.191,-4.895 0,-2.703 0,0"
             style="fill:#FFD700;fill-opacity:1;fill-rule:nonzero;stroke:none"
             id="path214" />
        </g>
        <g
           id="g216"
           transform="translate(393.0254,219.0293)">
          <path
             d="m 0,0 c -4.103,-1.466 -8.805,-0.815 -12.609,1.305 -3.805,2.121 -6.745,5.607 -8.654,9.522 -1.909,3.916 -2.838,8.251 -3.218,12.59 1.519,-3.351 3.191,-7.926 5.923,-11.882 2.733,-3.956 6.692,-7.291 11.405,-8.241 C -1.521,2.157 4.631,4.818 7.841,9.585 7.436,5.177 4.102,1.465 0,0 m -16.944,-46.437 0.005,-0.01 c -17.374,10.713 -38.415,15.299 -58.859,18.266 -9.559,1.387 -18.949,2.452 -28.252,3.244 l 0.086,0.009 c -6.37,0.587 -8.29,6.725 -0.163,6.112 22.013,-2.115 43.699,-6.166 65.682,-12.607 8.511,-2.494 17.068,-5.42 24.686,-9.789 6.334,-3.891 4.25,-9.322 -3.185,-5.225 m -2.354,-17.93 c -13.426,5.84 -35.135,10.598 -61.728,13.532 h 0.014 c -8.284,0.925 -6.981,14.258 1.489,13.381 7.058,-1.153 14.166,-2.49 21.38,-4.006 14.596,-3.065 29.474,-7.205 42.003,-15.001 4.742,-3.752 1.711,-9.319 -3.159,-7.903 z m -123.728,-38.423 c -63.638,0 -129.463,9.052 -129.463,24.2 0,15.149 65.825,24.2 129.463,24.2 63.639,0 129.464,-9.051 129.464,-24.2 0,-15.148 -65.825,-24.2 -129.464,-24.2 m -61.998,51.955 c -26.594,-2.933 -48.303,-7.692 -61.729,-13.532 l 10e-4,0.003 c -4.87,-1.416 -7.9,4.151 -3.159,7.903 12.529,7.796 27.407,11.936 42.003,15.001 7.215,1.516 14.323,2.853 21.381,4.006 8.469,0.877 9.772,-12.456 1.488,-13.381 z m -67.268,9.623 c 7.618,4.369 16.175,7.295 24.687,9.789 21.981,6.441 43.669,10.492 65.681,12.607 8.127,0.613 6.208,-5.525 -0.163,-6.112 l 0.086,-0.009 c -9.303,-0.792 -18.692,-1.857 -28.252,-3.244 -20.445,-2.967 -41.485,-7.553 -58.858,-18.266 l 0.005,0.01 c -7.436,-4.097 -9.52,1.334 -3.186,5.225 m 33.129,58.794 c 1.611,-1.078 3.321,-2.009 4.881,-3.158 1.561,-1.15 2.992,-2.556 3.804,-4.316 0.813,-1.759 0.925,-3.921 -0.054,-5.592 -0.979,-1.673 -3.173,-2.652 -4.974,-1.936 -1.336,0.531 -2.221,1.824 -2.768,3.152 -1.497,3.625 -1.029,7.722 -0.889,11.85 m 13.211,-19.662 c 2.247,-2.027 4.381,-4.183 6.384,-6.451 1.84,1.892 3.192,4.29 4.128,6.84 0.105,-0.056 4.36,-4.576 4.36,-4.576 l 6.281,4.358 c -1.684,-4.286 -4.555,-8.149 -8.37,-10.725 -3.815,-2.575 -8.592,-3.798 -13.134,-3.044 -4.542,0.754 -8.768,3.563 -10.853,7.643 2.099,-1.001 4.362,-1.662 6.776,-2.099 -0.012,1.832 -0.021,3.663 -0.031,5.494 1.388,-0.574 2.825,-1.374 4.172,-2.303 0.195,-0.107 0.287,4.863 0.287,4.863 m 57.895,6.732 c 3.245,0 5.875,-2.631 5.875,-5.875 0,-3.245 -2.63,-5.875 -5.875,-5.875 -3.245,0 -5.875,2.63 -5.875,5.875 0,3.244 2.63,5.875 5.875,5.875 m 21.753,10e-4 c 0.902,1.868 1.926,3.678 3.063,5.413 l 4.031,-5.866 9.858,2.845 c -2.276,-3.822 -5.265,-7.218 -8.771,-9.957 -1.314,-1.027 -2.825,-2.002 -4.492,-1.956 -1.763,0.049 -3.274,1.224 -4.588,2.402 -3.327,2.983 -6.372,6.439 -8.005,10.598 0.27,0.069 8.904,-3.479 8.904,-3.479 m -0.572,24.263 c 1.092,2.031 2.543,3.846 3.984,5.647 2.802,-3.037 4.849,-6.549 5.694,-10.338 0.31,-1.397 0.462,-2.85 0.212,-4.258 -0.251,-1.407 -0.936,-2.774 -2.065,-3.653 -1.82,-1.418 -4.573,-1.287 -6.464,0.036 -1.891,1.322 -2.941,3.639 -3.061,5.943 -0.118,2.305 0.606,4.59 1.7,6.623 m 28.882,-24.264 c 3.245,0 5.875,-2.631 5.875,-5.875 0,-3.245 -2.63,-5.875 -5.875,-5.875 -3.245,0 -5.875,2.63 -5.875,5.875 0,3.244 2.63,5.875 5.875,5.875 m 43.022,-10.919 c 0,0 4.256,4.52 4.362,4.576 0.935,-2.55 2.287,-4.948 4.128,-6.84 2.003,2.268 4.135,4.424 6.383,6.451 0,0 0.092,-4.97 0.287,-4.863 1.347,0.929 2.785,1.729 4.172,2.303 -0.009,-1.831 -0.019,-3.662 -0.03,-5.494 2.413,0.437 4.676,1.098 6.775,2.099 -2.084,-4.08 -6.31,-6.889 -10.852,-7.643 -4.542,-0.754 -9.319,0.469 -13.135,3.044 -3.815,2.576 -6.685,6.439 -8.369,10.725 z m 19.399,16.375 c 0.812,1.76 2.243,3.166 3.803,4.316 1.561,1.149 3.271,2.08 4.881,3.158 0.141,-4.128 0.609,-8.225 -0.887,-11.85 -0.548,-1.328 -1.433,-2.621 -2.769,-3.152 -1.801,-0.716 -3.995,0.263 -4.975,1.936 -0.978,1.671 -0.866,3.833 -0.053,5.592 M -293.891,9.585 c 3.21,-4.767 9.361,-7.428 14.994,-6.291 4.713,0.95 8.672,4.285 11.404,8.241 2.733,3.956 4.404,8.531 5.924,11.882 -0.381,-4.339 -1.31,-8.674 -3.219,-12.59 -1.909,-3.915 -4.848,-7.401 -8.653,-9.522 -3.805,-2.12 -8.507,-2.771 -12.609,-1.305 -4.102,1.465 -7.436,5.177 -7.841,9.585 M 12.256,20.478 C 9.5,15.21 5.163,10.13 -0.71,9.205 c -4.516,-0.712 -9.154,1.252 -12.523,4.343 -3.369,3.09 -5.629,7.197 -7.463,11.384 -6.974,15.918 -8.48,34.172 -4.206,51.017 0,0 -5.981,2.863 -6.131,2.293 -3.583,-9.667 -4.682,-20.154 -3.991,-30.441 0.691,-10.287 3.133,-20.399 6.445,-30.162 1.67,-4.927 3.595,-9.839 6.631,-14.064 3.035,-4.225 7.308,-7.747 12.362,-8.981 5.054,-1.235 10.89,0.155 13.984,4.159 -0.351,-2.23 -1.831,-4.176 -3.69,-5.454 -1.861,-1.278 -4.076,-1.949 -6.3,-2.335 -4.5,-0.783 -9.365,-0.405 -13.261,1.983 -5.418,3.324 -7.955,9.739 -10.087,15.726 -4.725,13.263 -9.248,26.865 -9.852,41.302 -6.854,-10.813 -15.903,-20.228 -26.437,-27.504 -6.171,-4.263 -13.085,-7.869 -20.561,-8.474 -11.35,-0.918 -22.329,5.339 -29.894,13.85 -7.563,8.51 -12.304,19.097 -16.936,29.166 2.498,-8.216 5.042,-16.466 8.874,-24.15 3.833,-7.684 9.047,-14.843 16.038,-19.83 6.989,-4.986 15.898,-7.624 24.7,-5.544 -9.918,-3.802 -21.529,-0.244 -29.631,6.626 -8.1,6.87 -13.258,16.558 -17.422,26.33 -6.036,14.167 -10.396,29.047 -12.964,44.231 -2.568,-15.184 -6.929,-30.064 -12.965,-44.231 -4.163,-9.772 -9.322,-19.46 -17.423,-26.33 -8.101,-6.87 -19.712,-10.428 -29.629,-6.626 8.801,-2.08 17.709,0.558 24.7,5.544 6.99,4.987 12.204,12.146 16.037,19.83 3.832,7.684 6.376,15.934 8.874,24.15 -4.631,-10.069 -9.373,-20.656 -16.937,-29.166 -7.564,-8.511 -18.544,-14.768 -29.893,-13.85 -7.475,0.605 -14.389,4.211 -20.56,8.474 -10.534,7.276 -19.584,16.691 -26.437,27.504 -0.604,-14.437 -5.128,-28.039 -9.852,-41.302 -2.134,-5.987 -4.669,-12.402 -10.088,-15.726 -3.896,-2.388 -8.76,-2.766 -13.26,-1.983 -2.225,0.386 -4.439,1.057 -6.3,2.335 -1.861,1.278 -3.34,3.224 -3.691,5.454 3.095,-4.004 8.93,-5.394 13.985,-4.159 5.052,1.234 9.326,4.756 12.361,8.981 3.037,4.225 4.961,9.137 6.631,14.064 3.311,9.763 5.755,19.875 6.446,30.162 0.691,10.287 -0.409,20.774 -3.992,30.441 -0.15,0.57 -6.13,-2.293 -6.13,-2.293 4.273,-16.845 2.768,-35.099 -4.206,-51.017 -1.834,-4.187 -4.095,-8.294 -7.463,-11.384 -3.37,-3.091 -8.009,-5.055 -12.523,-4.343 -5.873,0.925 -10.21,6.005 -12.967,11.273 -2.755,5.267 -4.528,11.101 -8.127,15.833 7.102,-19.624 13.342,-39.759 18.66,-60.136 0.28,-0.352 2.613,-0.104 2.613,-0.104 0.233,2.799 1.162,5.537 2.682,7.899 2.449,-3.191 3.965,-7.184 4.14,-11.245 0.173,-4.063 -0.995,-8.171 -3.285,-11.533 0.27,-2.57 0.832,-5.138 1.638,-7.629 -3.114,-4.255 0.407,-7.644 0.407,-7.644 -0.792,-3.58 -1.002,-6.921 -0.492,-10.049 -5.644,-6.394 -0.278,-9.869 -0.278,-9.869 h 10e-4 c -0.827,-1.348 -1.263,-2.722 -1.263,-4.119 0,-16.845 62.047,-30.5 138.585,-30.5 76.54,0 138.586,13.655 138.586,30.5 0,1.397 -0.437,2.772 -1.263,4.119 h 0.001 c 0,0 5.366,3.475 -0.277,9.869 0.509,3.128 0.299,6.469 -0.493,10.049 0,0 3.521,3.389 0.408,7.644 0.806,2.491 1.368,5.059 1.636,7.629 -2.289,3.362 -3.458,7.47 -3.283,11.533 0.174,4.061 1.69,8.054 4.14,11.245 1.518,-2.362 2.448,-5.1 2.68,-7.899 0,0 2.333,-0.248 2.615,0.104 C 7.042,-3.448 13.28,16.687 20.383,36.311 16.785,31.579 15.011,25.745 12.256,20.478"
             style="fill:#FFD700;fill-opacity:1;fill-rule:nonzero;stroke:none"
             id="path218" />
        </g>
        <g
           id="g220"
           transform="translate(249.9556,135.5391)">
          <path
             d="m 0,0 c -72.054,0 -114.495,11.331 -118.523,12.454 -5.538,-2.449 -8.496,-5.022 -8.496,-7.554 0,-10.528 51.057,-21.799 127.063,-21.799 76.006,0 127.064,11.271 127.064,21.799 0,2.532 -2.958,5.105 -8.496,7.554 C 114.582,11.33 72.052,0 0,0"
             style="fill:#FFD700;fill-opacity:1;fill-rule:nonzero;stroke:none"
             id="path222" />
        </g>
        <g
           id="g224"
           transform="translate(249.9556,137.9395)">
          <path
             d="M 0,0 C 63.075,0 103.376,8.702 114.855,11.554 95.388,18.617 54.008,24.3 0.044,24.3 -53.92,24.3 -95.299,18.617 -114.766,11.554 -103.288,8.702 -63.075,0 0,0"
             style="fill:#FFD700;fill-opacity:1;fill-rule:nonzero;stroke:none"
             id="path226" />
        </g>
        <g
           id="g232"
           transform="translate(310.1074,174.8604)">
          <path
             d="m 0,0 c 0,2.792 2.264,5.056 5.057,5.056 2.792,0 5.055,-2.264 5.055,-5.056 0,-2.792 -2.263,-5.056 -5.055,-5.056 C 2.264,-5.056 0,-2.792 0,0"
             style="fill:#FFD700;fill-opacity:1;fill-rule:nonzero;stroke:none"
             id="path234" />
        </g>
        <g
           id="g236"
           transform="translate(371.2656,158.8955)">
          <path
             d="M 0,0 C 0,1.864 1.512,3.376 3.376,3.376 5.241,3.376 6.753,1.864 6.753,0 6.753,-1.865 5.241,-3.377 3.376,-3.377 1.512,-3.377 0,-1.865 0,0"
             style="fill:#FFD700;fill-opacity:1;fill-rule:nonzero;stroke:none"
             id="path238" />
        </g>
        <g
           id="g240"
           transform="translate(360.6055,163.4395)">
          <path
             d="M 0,0 C 0,2.097 1.7,3.797 3.797,3.797 5.895,3.797 7.594,2.097 7.594,0 7.594,-2.097 5.895,-3.797 3.797,-3.797 1.7,-3.797 0,-2.097 0,0"
             style="fill:#FFD700;fill-opacity:1;fill-rule:nonzero;stroke:none"
             id="path242" />
        </g>
        <g
           id="g244"
           transform="translate(348.6846,167.2363)">
          <path
             d="M 0,0 C 0,2.306 1.869,4.175 4.175,4.175 6.48,4.175 8.35,2.306 8.35,0 8.35,-2.306 6.48,-4.175 4.175,-4.175 1.869,-4.175 0,-2.306 0,0"
             style="fill:#FFD700;fill-opacity:1;fill-rule:nonzero;stroke:none"
             id="path246" />
        </g>
        <g
           id="g248"
           transform="translate(336.3389,170.2744)">
          <path
             d="M 0,0 C 0,2.532 2.053,4.586 4.586,4.586 7.118,4.586 9.172,2.532 9.172,0 9.172,-2.533 7.118,-4.586 4.586,-4.586 2.053,-4.586 0,-2.533 0,0"
             style="fill:#FFD700;fill-opacity:1;fill-rule:nonzero;stroke:none"
             id="path250" />
        </g>
        <g
           id="g252"
           transform="translate(323.8994,172.5928)">
          <path
             d="M 0,0 C 0,2.703 2.191,4.894 4.895,4.894 7.598,4.894 9.789,2.703 9.789,0 9.789,-2.703 7.598,-4.895 4.895,-4.895 2.191,-4.895 0,-2.703 0,0"
             style="fill:#FFD700;fill-opacity:1;fill-rule:nonzero;stroke:none"
             id="path254" />
        </g>
        <g
           id="g256"
           transform="translate(250,180.9561)">
          <path
             d="m 0,0 c 5.87,6.463 6.608,10.826 6.608,10.826 l 4.957,-1.695 c 0,0 -1.957,8.608 -11.565,8.608 -9.609,0 -11.565,-8.608 -11.565,-8.608 l 4.956,1.695 C -6.609,10.826 -5.87,6.463 0,0"
             style="fill:#FFD700;fill-opacity:1;fill-rule:nonzero;stroke:none"
             id="path258" />
        </g>
      </g>
    </g>
  </g>
</svg>
                      