<?xml version="1.0" encoding="UTF-8"?>
<!DOCTYPE svg PUBLIC "-//W3C//DTD SVG 1.1//EN" "http://www.w3.org/Graphics/SVG/1.1/DTD/svg11.dtd">
<!-- Creator: CorelDRAW -->
<svg xmlns="http://www.w3.org/2000/svg" xml:space="preserve" width="200mm" height="200mm" version="1.1" style="shape-rendering:geometricPrecision; text-rendering:geometricPrecision; image-rendering:optimizeQuality; fill-rule:evenodd; clip-rule:evenodd"
viewBox="0 0 20000 20000"
 xmlns:xlink="http://www.w3.org/1999/xlink"
 xmlns:xodm="http://www.corel.com/coreldraw/odm/2003">
 <defs>
  <style type="text/css">
   <![CDATA[
    .str1 {stroke:#2B2A29;stroke-width:20;stroke-miterlimit:22.9256}
    .str0 {stroke:black;stroke-width:20;stroke-miterlimit:22.9256}
    .fil0 {fill:none}
    .fil2 {fill:#2B6DFF}
    .fil3 {fill:#50FF00}
    .fil1 {fill:#F7FF00}
    .fil4 {fill:red}
    .fil6 {fill:#1C47A6;fill-rule:nonzero}
    .fil7 {fill:#2A8400;fill-rule:nonzero}
    .fil5 {fill:#A5AA00;fill-rule:nonzero}
    .fil8 {fill:#B30007;fill-rule:nonzero}
   ]]>
  </style>
 </defs>
 <g id="Layer_x0020_1">
  <metadata id="CorelCorpID_0Corel-Layer"/>
  <rect class="fil0 str0" x="-7.6" y="7.6" width="20000" height="20000"/>
  <line class="fil0 str0" x1="-7.6" y1="7.6" x2="19992.4" y2= "20007.6" />
  <line class="fil0 str0" x1="19992.4" y1="7.6" x2="-7.6" y2= "20007.6" />
  <polygon class="fil1 str1" points="19992.4,20007.6 9992.4,10007.6 -7.6,20007.6 "/>
  <polygon class="fil2 str1" points="9992.4,10007.6 19992.4,20007.6 19992.4,7.6 "/>
  <polygon class="fil3 str1" points="9992.4,10007.6 19992.4,7.6 -7.6,7.6 "/>
  <polygon class="fil4 str1" points="9992.4,10007.6 -7.6,7.6 -7.6,20007.6 "/>
  <path class="fil5" d="M8072.61 18740.19c0,17.94 -3.92,29.32 -11.33,33.26 -3.49,2.62 -15.25,4.81 -35.74,6.56 -51.86,5.25 -124.64,7.88 -219.21,7.88 -132.93,0 -211.38,-2.63 -234.91,-7.88 -23.1,-5.25 -34.87,-16.63 -34.87,-34.57 0,-67.38 3.05,-168.89 9.16,-304.53 6.09,-135.64 9.15,-236.71 9.15,-304.53 0,-33.25 -9.15,-52.5 -27.9,-57.75 -29.19,-6.57 -132.04,-10.07 -309.42,-10.07 -178.25,0 -281.98,3.5 -311.62,10.07 -18.73,4.37 -28.32,23.62 -28.32,57.75 0,66.95 2.18,166.71 6.53,299.28 4.36,133.02 6.54,232.78 6.54,299.28 0,25.82 -11.33,40.69 -34.43,45.07 -27.45,5.25 -107.21,7.88 -240.14,7.88 -114.61,0 -187.83,-2.63 -219.21,-7.88 -24.84,-4.38 -37.04,-17.5 -37.04,-39.82 0,-92.32 4.35,-231.46 13.07,-417.85 8.71,-185.96 13.07,-325.97 13.07,-419.17 0,-98.89 -4.36,-247.65 -13.07,-446.3 -8.72,-198.64 -13.07,-347.84 -13.07,-446.73 0,-18.81 9.15,-28.44 27.01,-28.44 26.16,0 65.81,1.31 118.98,3.94 53.18,2.62 93.27,3.94 119.42,3.94 27.46,0 68.43,-1.32 123.34,-3.94 54.91,-2.63 95.88,-3.94 122.89,-3.94 14.38,0 21.79,7.88 21.79,23.19 0,64.32 -4.35,160.14 -13.06,287.9 -8.73,127.77 -13.08,223.59 -13.08,287.47 0,30.19 8.27,47.69 24.4,52.94 21.79,6.57 130.75,10.07 326.43,10.07 182.18,0 287.64,-3.5 316.84,-10.07 20.48,-5.25 30.51,-22.75 30.51,-52.94 0,-61.25 -3.06,-154.45 -9.15,-278.71 -6.11,-124.27 -9.16,-217.46 -9.16,-280.03 0,-26.26 10.46,-39.82 31.82,-39.82 24.84,0 62.32,1.31 112.87,3.94 50.56,2.62 88.91,3.94 114.19,3.94 24.84,0 62.32,-1.32 112.88,-3.94 50.55,-2.63 88.9,-3.94 114.18,-3.94 24.84,0 37.04,10.5 37.04,31.07 0,98.01 -3.91,246.33 -11.76,444.54 -7.85,198.21 -11.77,346.97 -11.77,445.86 0,93.2 4.36,233.21 13.07,419.17 8.72,186.39 13.08,325.53 13.08,417.85zm2008.68 -857.58c0,266.9 -84.55,490.05 -254.08,670.31 -172.59,182.9 -391.36,274.34 -655.9,274.34 -262.8,0 -481.15,-92.32 -654.61,-276.96 -170.4,-180.27 -255.39,-402.54 -255.39,-667.69 0,-265.59 84.99,-488.74 255.39,-669.89 173.46,-185.52 391.81,-278.27 654.61,-278.27 261.05,0 478.96,92.75 653.29,278.27 171.27,182.46 256.69,406.05 256.69,669.89zm-483.75 -2.63c0,-128.2 -38.8,-237.15 -115.93,-326.85 -81.07,-94.07 -184.35,-140.89 -310.3,-140.89 -119.86,0 -221.83,48.57 -305.08,146.14 -80.63,94.08 -121.15,202.15 -121.15,324.23 0,130.82 37.9,239.77 113.74,326.84 79.76,91.45 183.92,137.39 312.49,137.39 119.84,0 222.26,-48.13 306.37,-144.83 79.76,-92.32 119.86,-199.52 119.86,-322.03zm2580.91 860.21c0,26.69 -12.2,39.82 -37.04,39.82l-451.52 0c-24.84,0 -37.04,-14.88 -37.04,-44.63 0,-86.2 3.05,-215.27 9.16,-387.66 6.09,-172.4 9.15,-301.47 9.15,-387.67 0,-24.5 -4.36,-38.07 -13.08,-39.38 -9.59,4.81 -66.68,136.52 -171.27,395.1 -61.46,151.83 -122.9,302.79 -184.36,453.74 -8.28,19.25 -18.74,30.63 -31.38,34.13 -4.36,0.87 -21.35,1.31 -50.98,1.31 -43.59,0 -69.74,-8.75 -78.45,-25.82 -46.2,-93.63 -106.78,-230.14 -181.74,-409.54 -80.62,-189.45 -140.76,-326.41 -180.87,-411.29 -1.74,-3.94 -5.66,-8.75 -11.76,-14 -5.67,7.87 -8.71,20.13 -8.71,37.19 0,84.01 2.18,209.58 6.53,376.73 4.36,167.58 6.53,293.15 6.53,377.16 0,29.75 -11.76,44.63 -35.72,44.63l-426.67 0c-17.01,0 -27.46,-2.63 -31.38,-8.31 -3.92,-5.69 -5.67,-15.32 -5.67,-28.88 0,-93.2 4.36,-233.21 13.07,-419.61 8.72,-186.83 13.08,-326.84 13.08,-420.04 0,-98.89 -4.36,-284.84 -13.08,-557.43 -0.87,-70.88 -4.79,-176.33 -11.76,-316.79l-1.31 -21.43c-0.87,-17.07 17,-25.82 53.61,-25.82 47.06,0 117.23,-1.31 211.36,-3.94 93.71,-2.62 163.87,-3.94 210.95,-3.94 9.58,0 22.66,17.94 39.65,53.82l373.5 820.4c26.58,55.57 48.81,83.57 66.68,83.57 9.59,0 29.64,-32.38 60.14,-96.26 86.3,-179.39 213.99,-449.8 382.65,-811.65 14.82,-33.25 30.51,-49.88 47.5,-49.88 24.84,0 61.89,1.32 111.57,3.94 49.68,2.63 87.16,3.94 112.88,3.94 21.36,0 53.61,-2.19 97.63,-6.56 43.57,-4.38 76.26,-6.57 97.18,-6.57 25.71,0 38.35,10.5 38.35,31.07 0,100.63 -3.49,251.15 -10.46,451.55 -6.97,200.39 -10.46,351.34 -10.46,451.98 0,93.2 3.93,232.77 11.78,419.17 7.83,186.39 11.76,325.53 11.76,417.85zm1542.36 -357.91c0,36.76 -7.41,104.14 -21.8,202.15 -15.25,106.32 -29.19,170.2 -40.96,190.33 -10.03,16.19 -24.41,24.5 -42.28,24.5 -7.4,0 -20.48,-1.31 -38.35,-3.94 -61.88,-8.31 -243.18,-12.68 -543.46,-12.68 -65.81,0 -163,-0.44 -292.43,-1.32 -129.44,-0.87 -226.63,-1.31 -291.13,-1.31 -28.33,0 -42.27,-12.25 -42.27,-37.19 0,-95.82 5.23,-239.34 15.69,-431.42 10.45,-191.65 15.68,-335.16 15.68,-430.98 0,-97.58 -5.23,-279.16 -15.68,-544.75 -2.62,-68.25 -7.41,-170.64 -14.39,-306.28l-1.3 -17.94c-1.74,-19.69 9.15,-29.31 31.81,-29.31 63.19,0 157.77,1.31 284.58,4.81 126.39,3.5 220.97,5.25 284.16,5.25 62.32,0 156.02,-1.75 281.1,-5.25 125.09,-3.5 218.79,-4.81 281.11,-4.81 44.45,0 69.72,16.62 76.7,49.44 4.36,19.69 11.33,79.2 20.48,178.52 9.16,98.88 13.51,159.26 13.51,180.7 0,17.94 -8.71,26.69 -25.71,26.69 -4.8,0 -13.94,-0.43 -26.58,-1.31 -227.06,-18.37 -430.59,-27.56 -611.46,-27.56 -44.89,0 -72.78,10.5 -82.8,31.94 -4.36,10.5 -6.53,43.31 -6.53,98.88 0,58.2 8.71,96.26 25.7,115.08 14.39,16.19 42.28,24.5 83.24,24.5 8.28,0 24.85,-0.44 49.69,-1.75 24.84,-1.31 45.33,-2.19 61.45,-2.19 107.65,0 216.17,-2.62 326.43,-8.31 9.15,-0.88 32.68,-3.06 70.16,-6.56 29.21,-3.07 51.87,-4.82 69.3,-4.82 20.49,0 30.51,9.63 30.51,29.32 0,-17.94 -7.85,47.69 -23.54,196.46 -6.97,68.25 -10.46,136.51 -10.46,204.77 0,17.06 -12.2,25.81 -37.04,25.81 0,0 -38.35,-4.37 -115.06,-12.69 -48.37,-5.25 -159.5,-7.87 -332.09,-7.87l-135.54 0c-34.86,0 -55.35,8.75 -61.45,25.81 -0.88,3.94 -1.3,30.63 -1.3,79.64 0,64.75 4.35,106.76 12.63,125.57 14.82,32.38 69.29,51.63 163.87,57.76 -1.75,0 60.14,0 186.53,0 44.89,0 112,-3.94 201.35,-11.82 88.91,-7.87 155.58,-11.81 200.04,-11.81 18.73,0 27.89,15.31 27.89,45.94z"/>
  <path class="fil6" d="M18755.54 11992.78c17.94,0 29.32,3.93 33.25,11.33 2.63,3.49 4.82,15.26 6.57,35.74 5.25,51.86 7.87,124.65 7.87,219.22 0,132.92 -2.62,211.37 -7.87,234.9 -5.25,23.1 -16.63,34.87 -34.57,34.87 -67.39,0 -168.9,-3.05 -304.53,-9.15 -135.64,-6.1 -236.72,-9.15 -304.53,-9.15 -33.26,0 -52.51,9.15 -57.76,27.89 -6.56,29.2 -10.06,132.05 -10.06,309.43 0,178.25 3.5,281.97 10.06,311.61 4.37,18.74 23.63,28.33 57.76,28.33 66.94,0 166.7,-2.18 299.28,-6.54 133.01,-4.36 232.78,-6.54 299.28,-6.54 25.81,0 40.69,11.33 45.07,34.43 5.25,27.46 7.87,107.21 7.87,240.14 0,114.62 -2.62,187.84 -7.87,219.21 -4.38,24.85 -17.5,37.05 -39.82,37.05 -92.32,0 -231.46,-4.36 -417.86,-13.08 -185.95,-8.71 -325.97,-13.07 -419.17,-13.07 -98.88,0 -247.64,4.36 -446.29,13.07 -198.65,8.72 -347.85,13.08 -446.74,13.08 -18.82,0 -28.44,-9.15 -28.44,-27.02 0,-26.15 1.31,-65.81 3.94,-118.98 2.62,-53.17 3.94,-93.27 3.94,-119.41 0,-27.46 -1.32,-68.43 -3.94,-123.34 -2.63,-54.91 -3.94,-95.88 -3.94,-122.9 0,-14.38 7.88,-21.79 23.2,-21.79 64.31,0 160.13,4.36 287.89,13.07 127.77,8.72 223.6,13.08 287.48,13.08 30.19,0 47.69,-8.28 52.94,-24.41 6.56,-21.79 10.06,-130.74 10.06,-326.43 0,-182.17 -3.5,-287.64 -10.06,-316.84 -5.25,-20.48 -22.75,-30.5 -52.94,-30.5 -61.26,0 -154.46,3.05 -278.72,9.15 -124.26,6.1 -217.46,9.15 -280.03,9.15 -26.25,0 -39.82,-10.46 -39.82,-31.81 0,-24.85 1.31,-62.33 3.94,-112.88 2.62,-50.56 3.94,-88.91 3.94,-114.19 0,-24.84 -1.32,-62.32 -3.94,-112.87 -2.63,-50.56 -3.94,-88.91 -3.94,-114.19 0,-24.84 10.51,-37.04 31.07,-37.04 98,0 246.34,3.92 444.54,11.77 198.22,7.84 346.98,11.76 445.86,11.76 93.2,0 233.22,-4.36 419.17,-13.07 186.4,-8.72 325.54,-13.08 417.86,-13.08zm-857.59 -2008.68c266.91,0 490.05,84.55 670.32,254.08 182.89,172.59 274.34,391.37 274.34,655.91 0,262.8 -92.32,481.14 -276.96,654.6 -180.27,170.4 -402.55,255.39 -667.7,255.39 -265.6,0 -488.74,-84.99 -669.88,-255.39 -185.53,-173.46 -278.28,-391.8 -278.28,-654.6 0,-261.06 92.75,-478.97 278.28,-653.29 182.45,-171.28 406.04,-256.7 669.88,-256.7zm-2.63 483.76c-128.19,0 -237.14,38.79 -326.84,115.93 -94.08,81.06 -140.89,184.35 -140.89,310.3 0,119.85 48.57,221.83 146.14,305.07 94.07,80.63 202.14,121.16 324.22,121.16 130.83,0 239.78,-37.92 326.84,-113.75 91.46,-79.75 137.4,-183.91 137.4,-312.48 0,-119.85 -48.13,-222.27 -144.84,-306.38 -92.31,-79.76 -199.51,-119.85 -322.03,-119.85zm860.22 -2580.92c26.7,0 39.82,12.2 39.82,37.04l0 451.51c0,24.84 -14.88,37.05 -44.63,37.05 -86.2,0 -215.28,-3.05 -387.67,-9.16 -172.39,-6.1 -301.47,-9.15 -387.66,-9.15 -24.51,0 -38.07,4.36 -39.39,13.08 4.82,9.58 136.52,66.68 395.11,171.27 151.83,61.45 302.78,122.9 453.74,184.35 19.25,8.29 30.63,18.74 34.12,31.38 0.88,4.36 1.32,21.36 1.32,50.99 0,43.59 -8.75,69.74 -25.82,78.45 -93.64,46.2 -230.14,106.78 -409.54,181.74 -189.46,80.62 -326.41,140.77 -411.3,180.86 -3.93,1.75 -8.74,5.67 -13.99,11.77 7.87,5.67 20.12,8.72 37.18,8.72 84.02,0 209.59,-2.18 376.73,-6.54 167.58,-4.36 293.16,-6.54 377.17,-6.54 29.75,0 44.63,11.77 44.63,35.74l0 426.66c0,17 -2.62,27.46 -8.32,31.38 -5.69,3.93 -15.31,5.67 -28.87,5.67 -93.2,0 -233.22,-4.36 -419.61,-13.08 -186.83,-8.71 -326.85,-13.07 -420.05,-13.07 -98.88,0 -284.84,4.36 -557.43,13.07 -70.89,0.88 -176.33,4.8 -316.78,11.77l-21.44 1.31c-17.07,0.87 -25.82,-17 -25.82,-53.61 0,-47.06 -1.31,-117.23 -3.94,-211.37 -2.62,-93.7 -3.94,-163.87 -3.94,-210.93 0,-9.59 17.94,-22.67 53.83,-39.66l820.4 -373.5c55.57,-26.59 83.57,-48.81 83.57,-66.68 0,-9.59 -32.38,-29.64 -96.26,-60.14 -179.4,-86.3 -449.8,-213.99 -811.65,-382.65 -33.26,-14.82 -49.89,-30.51 -49.89,-47.51 0,-24.84 1.32,-61.88 3.94,-111.57 2.63,-49.68 3.94,-87.16 3.94,-112.87 0,-21.36 -2.18,-53.61 -6.56,-97.63 -4.38,-43.58 -6.57,-76.26 -6.57,-97.18 0,-25.72 10.5,-38.36 31.08,-38.36 100.62,0 251.14,3.49 451.54,10.46 200.39,6.98 351.35,10.46 451.98,10.46 93.2,0 232.78,-3.92 419.17,-11.76 186.4,-7.85 325.54,-11.77 417.86,-11.77zm-357.91 -1542.37c36.75,0 104.14,7.41 202.15,21.79 106.32,15.26 170.2,29.2 190.33,40.97 16.19,10.03 24.5,24.41 24.5,42.28 0,7.41 -1.31,20.48 -3.94,38.35 -8.31,61.88 -12.69,243.18 -12.69,543.46 0,65.81 -0.43,163 -1.31,292.44 -0.87,129.44 -1.31,226.62 -1.31,291.12 0,28.33 -12.25,42.28 -37.19,42.28 -95.83,0 -239.34,-5.23 -431.42,-15.69 -191.65,-10.46 -335.17,-15.69 -430.99,-15.69 -97.57,0 -279.15,5.23 -544.75,15.69 -68.25,2.61 -170.64,7.41 -306.28,14.38l-17.94 1.31c-19.69,1.74 -29.31,-9.15 -29.31,-31.82 0,-63.19 1.31,-157.76 4.82,-284.59 3.49,-126.38 5.25,-220.96 5.25,-284.15 0,-62.32 -1.76,-156.02 -5.25,-281.1 -3.51,-125.08 -4.82,-218.78 -4.82,-281.1 0,-44.46 16.62,-69.74 49.44,-76.71 19.69,-4.36 79.19,-11.33 178.52,-20.48 98.89,-9.15 159.27,-13.51 180.71,-13.51 17.94,0 26.69,8.71 26.69,25.71 0,4.8 -0.44,13.95 -1.32,26.59 -18.37,227.06 -27.56,430.58 -27.56,611.45 0,44.89 10.5,72.78 31.94,82.8 10.5,4.36 43.32,6.54 98.89,6.54 58.19,0 96.26,-8.71 115.07,-25.71 16.19,-14.38 24.5,-42.28 24.5,-83.24 0,-8.28 -0.43,-24.84 -1.75,-49.69 -1.31,-24.84 -2.19,-45.32 -2.19,-61.45 0,-107.64 -2.62,-216.16 -8.31,-326.42 -0.87,-9.16 -3.06,-32.69 -6.56,-70.17 -3.07,-29.2 -4.81,-51.86 -4.81,-69.3 0,-20.48 9.62,-30.5 29.31,-30.5 -17.94,0 47.69,7.84 196.46,23.53 68.26,6.97 136.52,10.46 204.77,10.46 17.06,0 25.82,12.2 25.82,37.04 0,0 -4.38,38.36 -12.69,115.06 -5.25,48.38 -7.88,159.51 -7.88,332.09l0 135.54c0,34.87 8.75,55.35 25.82,61.45 3.94,0.88 30.62,1.31 79.63,1.31 64.76,0 106.77,-4.36 125.58,-12.64 32.38,-14.81 51.62,-69.29 57.75,-163.86 0,1.74 0,-60.15 0,-186.53 0,-44.89 -3.94,-112.01 -11.81,-201.35 -7.88,-88.91 -11.81,-155.59 -11.81,-200.04 0,-18.74 15.31,-27.9 45.94,-27.9z"/>
  <path class="fil7" d="M12008.14 1309.88c0,-17.94 3.92,-29.32 11.32,-33.26 3.49,-2.62 15.26,-4.81 35.74,-6.56 51.87,-5.25 124.65,-7.88 219.22,-7.88 132.93,0 211.38,2.63 234.9,7.88 23.1,5.25 34.88,16.63 34.88,34.57 0,67.38 -3.06,168.89 -9.16,304.53 -6.1,135.63 -9.15,236.71 -9.15,304.53 0,33.25 9.15,52.5 27.89,57.75 29.2,6.57 132.05,10.07 309.43,10.07 178.25,0 281.98,-3.5 311.61,-10.07 18.74,-4.37 28.33,-23.63 28.33,-57.75 0,-66.95 -2.19,-166.71 -6.54,-299.28 -4.36,-133.02 -6.53,-232.78 -6.53,-299.28 0,-25.82 11.32,-40.69 34.42,-45.07 27.46,-5.25 107.22,-7.88 240.14,-7.88 114.62,0 187.84,2.63 219.21,7.88 24.84,4.38 37.05,17.5 37.05,39.82 0,92.32 -4.36,231.46 -13.07,417.85 -8.72,185.96 -13.08,325.97 -13.08,419.17 0,98.88 4.36,247.65 13.08,446.29 8.71,198.65 13.07,347.85 13.07,446.73 0,18.82 -9.16,28.44 -27.02,28.44 -26.15,0 -65.81,-1.31 -118.98,-3.93 -53.17,-2.63 -93.27,-3.94 -119.41,-3.94 -27.46,0 -68.42,1.31 -123.34,3.94 -54.92,2.62 -95.87,3.93 -122.9,3.93 -14.38,0 -21.79,-7.87 -21.79,-23.19 0,-64.32 4.36,-160.14 13.08,-287.9 8.71,-127.76 13.06,-223.58 13.06,-287.47 0,-30.19 -8.27,-47.69 -24.4,-52.94 -21.79,-6.56 -130.74,-10.06 -326.43,-10.06 -182.17,0 -287.64,3.5 -316.83,10.06 -20.49,5.25 -30.51,22.75 -30.51,52.94 0,61.26 3.05,154.46 9.15,278.72 6.1,124.26 9.16,217.46 9.16,280.03 0,26.25 -10.47,39.81 -31.83,39.81 -24.84,0 -62.31,-1.31 -112.87,-3.93 -50.55,-2.63 -88.91,-3.94 -114.19,-3.94 -24.84,0 -62.31,1.31 -112.87,3.94 -50.55,2.62 -88.91,3.93 -114.19,3.93 -24.84,0 -37.04,-10.5 -37.04,-31.06 0,-98.01 3.92,-246.34 11.77,-444.55 7.84,-198.2 11.76,-346.97 11.76,-445.85 0,-93.2 -4.35,-233.21 -13.07,-419.17 -8.72,-186.39 -13.07,-325.53 -13.07,-417.85zm-2008.69 857.58c0,-266.9 84.55,-490.05 254.07,-670.32 172.59,-182.89 391.37,-274.33 655.92,-274.33 262.8,0 481.14,92.32 654.6,276.96 170.4,180.27 255.38,402.54 255.38,667.69 0,265.59 -84.98,488.74 -255.38,669.88 -173.46,185.52 -391.8,278.28 -654.6,278.28 -261.06,0 -478.97,-92.76 -653.3,-278.28 -171.27,-182.46 -256.69,-406.04 -256.69,-669.88zm483.75 2.63c0,128.2 38.79,237.15 115.94,326.84 81.05,94.07 184.35,140.89 310.3,140.89 119.84,0 221.83,-48.57 305.07,-146.14 80.62,-94.07 121.15,-202.14 121.15,-324.22 0,-130.82 -37.91,-239.77 -113.74,-326.84 -79.75,-91.45 -183.92,-137.39 -312.48,-137.39 -119.86,0 -222.27,48.13 -306.39,144.82 -79.75,92.33 -119.85,199.52 -119.85,322.04zm-2580.91 -860.21c0,-26.69 12.2,-39.82 37.05,-39.82l451.5 0c24.84,0 37.05,14.88 37.05,44.63 0,86.2 -3.06,215.27 -9.15,387.66 -6.11,172.39 -9.16,301.47 -9.16,387.67 0,24.5 4.36,38.06 13.08,39.38 9.58,-4.82 66.68,-136.52 171.27,-395.11 61.45,-151.82 122.91,-302.78 184.35,-453.73 8.28,-19.25 18.75,-30.63 31.38,-34.13 4.36,-0.87 21.36,-1.31 51,-1.31 43.58,0 69.72,8.75 78.44,25.82 46.2,93.63 106.78,230.14 181.74,409.54 80.63,189.45 140.77,326.4 180.86,411.29 1.75,3.93 5.67,8.75 11.77,14 5.66,-7.88 8.71,-20.13 8.71,-37.19 0,-84.01 -2.17,-209.59 -6.53,-376.73 -4.36,-167.58 -6.54,-293.15 -6.54,-377.16 0,-29.75 11.77,-44.63 35.74,-44.63l426.66 0c17.01,0 27.46,2.63 31.39,8.31 3.91,5.69 5.66,15.32 5.66,28.88 0,93.2 -4.36,233.21 -13.07,419.61 -8.72,186.83 -13.08,326.84 -13.08,420.04 0,98.88 4.36,284.84 13.08,557.43 0.86,70.88 4.79,176.33 11.76,316.78l1.31 21.44c0.87,17.06 -17,25.81 -53.6,25.81 -47.08,0 -117.24,1.32 -211.38,3.94 -93.69,2.63 -163.87,3.94 -210.93,3.94 -9.59,0 -22.67,-17.94 -39.66,-53.82l-373.5 -820.39c-26.59,-55.57 -48.81,-83.57 -66.68,-83.57 -9.59,0 -29.63,32.37 -60.14,96.26 -86.29,179.39 -213.98,449.79 -382.65,811.64 -14.82,33.25 -30.51,49.88 -47.51,49.88 -24.84,0 -61.88,-1.31 -111.57,-3.94 -49.68,-2.62 -87.16,-3.94 -112.87,-3.94 -21.36,0 -53.61,2.19 -97.62,6.57 -43.58,4.37 -76.27,6.56 -97.19,6.56 -25.72,0 -38.36,-10.5 -38.36,-31.07 0,-100.63 3.49,-251.15 10.47,-451.54 6.97,-200.4 10.46,-351.35 10.46,-451.98 0,-93.2 -3.92,-232.78 -11.77,-419.17 -7.84,-186.39 -11.77,-325.53 -11.77,-417.85zm-1542.36 357.91c0,-36.76 7.41,-104.14 21.79,-202.15 15.25,-106.32 29.21,-170.2 40.97,-190.33 10.02,-16.19 24.4,-24.5 42.27,-24.5 7.41,0 20.49,1.31 38.36,3.94 61.89,8.31 243.18,12.68 543.46,12.68 65.81,0 162.99,0.44 292.43,1.32 129.44,0.87 226.64,1.31 291.13,1.31 28.33,0 42.27,12.25 42.27,37.19 0,95.82 -5.23,239.34 -15.69,431.42 -10.45,191.64 -15.68,335.16 -15.68,430.98 0,97.57 5.23,279.15 15.68,544.74 2.62,68.26 7.42,170.64 14.39,306.28l1.3 17.94c1.75,19.69 -9.14,29.32 -31.81,29.32 -63.19,0 -157.77,-1.32 -284.59,-4.82 -126.38,-3.5 -220.96,-5.25 -284.15,-5.25 -62.32,0 -156.02,1.75 -281.11,5.25 -125.07,3.5 -218.77,4.82 -281.09,4.82 -44.46,0 -69.74,-16.63 -76.71,-49.45 -4.35,-19.69 -11.34,-79.19 -20.48,-178.51 -9.15,-98.89 -13.52,-159.27 -13.52,-180.71 0,-17.94 8.72,-26.69 25.72,-26.69 4.79,0 13.95,0.44 26.59,1.31 227.06,18.38 430.58,27.57 611.45,27.57 44.89,0 72.78,-10.5 82.8,-31.94 4.36,-10.5 6.54,-43.32 6.54,-98.89 0,-58.19 -8.71,-96.26 -25.72,-115.07 -14.38,-16.19 -42.27,-24.5 -83.24,-24.5 -8.27,0 -24.84,0.43 -49.68,1.75 -24.84,1.31 -45.32,2.18 -61.45,2.18 -107.65,0 -216.16,2.63 -326.42,8.32 -9.16,0.87 -32.69,3.06 -70.18,6.56 -29.19,3.06 -51.85,4.81 -69.29,4.81 -20.48,0 -30.5,-9.62 -30.5,-29.31 0,17.94 7.84,-47.69 23.53,-196.46 6.97,-68.26 10.45,-136.51 10.45,-204.77 0,-17.06 12.22,-25.81 37.06,-25.81 0,0 38.35,4.37 115.05,12.68 48.37,5.25 159.51,7.88 332.09,7.88l135.54 0c34.86,0 55.35,-8.75 61.45,-25.81 0.87,-3.94 1.31,-30.63 1.31,-79.64 0,-64.75 -4.36,-106.76 -12.64,-125.57 -14.82,-32.38 -69.29,-51.63 -163.87,-57.76 1.74,0 -60.14,0 -186.53,0 -44.88,0 -112.01,3.94 -201.34,11.82 -88.91,7.87 -155.59,11.81 -200.04,11.81 -18.75,0 -27.9,-15.32 -27.9,-45.94z"/>
  <path class="fil8" d="M1220.06 8057.28c-17.94,0 -29.32,-3.93 -33.25,-11.33 -2.63,-3.49 -4.82,-15.26 -6.57,-35.74 -5.25,-51.86 -7.87,-124.65 -7.87,-219.22 0,-132.92 2.62,-211.37 7.87,-234.9 5.25,-23.1 16.63,-34.87 34.57,-34.87 67.39,0 168.9,3.05 304.53,9.15 135.64,6.1 236.72,9.15 304.53,9.15 33.26,0 52.51,-9.15 57.76,-27.89 6.56,-29.2 10.06,-132.05 10.06,-309.43 0,-178.25 -3.5,-281.97 -10.06,-311.61 -4.37,-18.74 -23.63,-28.33 -57.76,-28.33 -66.94,0 -166.7,2.18 -299.28,6.54 -133.01,4.36 -232.78,6.54 -299.28,6.54 -25.81,0 -40.69,-11.33 -45.07,-34.43 -5.25,-27.46 -7.87,-107.21 -7.87,-240.14 0,-114.62 2.62,-187.84 7.87,-219.21 4.38,-24.85 17.5,-37.05 39.82,-37.05 92.32,0 231.46,4.36 417.86,13.08 185.95,8.71 325.97,13.07 419.17,13.07 98.88,0 247.64,-4.36 446.29,-13.07 198.65,-8.72 347.85,-13.08 446.74,-13.08 18.82,0 28.44,9.15 28.44,27.02 0,26.15 -1.31,65.81 -3.94,118.98 -2.62,53.17 -3.94,93.27 -3.94,119.41 0,27.46 1.32,68.43 3.94,123.34 2.63,54.91 3.94,95.88 3.94,122.9 0,14.38 -7.88,21.79 -23.2,21.79 -64.31,0 -160.13,-4.36 -287.89,-13.07 -127.77,-8.72 -223.6,-13.08 -287.48,-13.08 -30.19,0 -47.69,8.28 -52.94,24.41 -6.56,21.79 -10.06,130.74 -10.06,326.43 0,182.17 3.5,287.64 10.06,316.84 5.25,20.48 22.75,30.5 52.94,30.5 61.26,0 154.46,-3.05 278.72,-9.15 124.26,-6.1 217.46,-9.15 280.03,-9.15 26.25,0 39.82,10.46 39.82,31.81 0,24.85 -1.31,62.33 -3.94,112.88 -2.62,50.56 -3.94,88.91 -3.94,114.19 0,24.84 1.32,62.32 3.94,112.87 2.63,50.56 3.94,88.91 3.94,114.19 0,24.84 -10.51,37.04 -31.07,37.04 -98,0 -246.34,-3.92 -444.54,-11.77 -198.22,-7.84 -346.98,-11.76 -445.86,-11.76 -93.2,0 -233.22,4.36 -419.17,13.07 -186.4,8.72 -325.54,13.08 -417.86,13.08zm857.59 2008.68c-266.91,0 -490.05,-84.55 -670.32,-254.08 -182.89,-172.59 -274.34,-391.37 -274.34,-655.91 0,-262.8 92.32,-481.14 276.96,-654.6 180.27,-170.4 402.55,-255.39 667.7,-255.39 265.6,0 488.74,84.99 669.88,255.39 185.53,173.46 278.28,391.8 278.28,654.6 0,261.06 -92.75,478.97 -278.28,653.29 -182.45,171.28 -406.04,256.7 -669.88,256.7zm2.63 -483.76c128.19,0 237.14,-38.79 326.84,-115.93 94.08,-81.06 140.89,-184.35 140.89,-310.3 0,-119.85 -48.57,-221.83 -146.14,-305.07 -94.07,-80.63 -202.14,-121.16 -324.22,-121.16 -130.83,0 -239.78,37.92 -326.84,113.75 -91.46,79.75 -137.4,183.91 -137.4,312.48 0,119.85 48.13,222.27 144.84,306.38 92.31,79.76 199.51,119.85 322.03,119.85zm-860.22 2580.92c-26.7,0 -39.82,-12.2 -39.82,-37.04l0 -451.51c0,-24.84 14.88,-37.05 44.63,-37.05 86.2,0 215.28,3.05 387.67,9.16 172.39,6.1 301.47,9.15 387.66,9.15 24.51,0 38.07,-4.36 39.39,-13.08 -4.82,-9.58 -136.52,-66.68 -395.11,-171.27 -151.83,-61.45 -302.78,-122.9 -453.74,-184.35 -19.25,-8.29 -30.63,-18.74 -34.12,-31.38 -0.88,-4.36 -1.32,-21.36 -1.32,-50.99 0,-43.59 8.75,-69.74 25.82,-78.45 93.64,-46.2 230.14,-106.78 409.54,-181.74 189.46,-80.62 326.41,-140.77 411.3,-180.86 3.93,-1.75 8.74,-5.67 13.99,-11.77 -7.87,-5.67 -20.12,-8.72 -37.18,-8.72 -84.02,0 -209.59,2.18 -376.73,6.54 -167.58,4.36 -293.16,6.54 -377.17,6.54 -29.75,0 -44.63,-11.77 -44.63,-35.74l0 -426.66c0,-17 2.62,-27.46 8.32,-31.38 5.69,-3.93 15.31,-5.67 28.87,-5.67 93.2,0 233.22,4.36 419.61,13.08 186.83,8.71 326.85,13.07 420.05,13.07 98.88,0 284.84,-4.36 557.43,-13.07 70.89,-0.88 176.33,-4.8 316.78,-11.77l21.44 -1.31c17.07,-0.87 25.82,17 25.82,53.61 0,47.06 1.31,117.23 3.94,211.37 2.62,93.7 3.94,163.87 3.94,210.93 0,9.59 -17.94,22.67 -53.83,39.66l-820.4 373.5c-55.57,26.59 -83.57,48.81 -83.57,66.68 0,9.59 32.38,29.64 96.26,60.14 179.4,86.3 449.8,213.99 811.65,382.65 33.26,14.82 49.89,30.51 49.89,47.51 0,24.84 -1.32,61.88 -3.94,111.57 -2.63,49.68 -3.94,87.16 -3.94,112.87 0,21.36 2.18,53.61 6.56,97.63 4.38,43.58 6.57,76.26 6.57,97.18 0,25.72 -10.5,38.36 -31.08,38.36 -100.62,0 -251.14,-3.49 -451.54,-10.46 -200.39,-6.98 -351.35,-10.46 -451.98,-10.46 -93.2,0 -232.78,3.92 -419.17,11.76 -186.4,7.85 -325.54,11.77 -417.86,11.77zm357.91 1542.37c-36.75,0 -104.14,-7.41 -202.15,-21.79 -106.32,-15.26 -170.2,-29.2 -190.33,-40.97 -16.19,-10.03 -24.5,-24.41 -24.5,-42.28 0,-7.41 1.31,-20.48 3.94,-38.35 8.31,-61.88 12.69,-243.18 12.69,-543.46 0,-65.81 0.43,-163 1.31,-292.44 0.87,-129.44 1.31,-226.62 1.31,-291.12 0,-28.33 12.25,-42.28 37.19,-42.28 95.83,0 239.34,5.23 431.42,15.69 191.65,10.46 335.17,15.69 430.99,15.69 97.57,0 279.15,-5.23 544.75,-15.69 68.25,-2.61 170.64,-7.41 306.28,-14.38l17.94 -1.31c19.69,-1.74 29.31,9.15 29.31,31.82 0,63.19 -1.31,157.76 -4.82,284.59 -3.49,126.38 -5.25,220.96 -5.25,284.15 0,62.32 1.76,156.02 5.25,281.1 3.51,125.08 4.82,218.78 4.82,281.1 0,44.46 -16.62,69.74 -49.44,76.71 -19.69,4.36 -79.19,11.33 -178.52,20.48 -98.89,9.15 -159.27,13.51 -180.71,13.51 -17.94,0 -26.69,-8.71 -26.69,-25.71 0,-4.8 0.44,-13.95 1.32,-26.59 18.37,-227.06 27.56,-430.58 27.56,-611.45 0,-44.89 -10.5,-72.78 -31.94,-82.8 -10.5,-4.36 -43.32,-6.54 -98.89,-6.54 -58.19,0 -96.26,8.71 -115.07,25.71 -16.19,14.38 -24.5,42.28 -24.5,83.24 0,8.28 0.43,24.84 1.75,49.69 1.31,24.84 2.19,45.32 2.19,61.45 0,107.64 2.62,216.16 8.31,326.42 0.87,9.16 3.06,32.69 6.56,70.17 3.07,29.2 4.81,51.86 4.81,69.3 0,20.48 -9.62,30.5 -29.31,30.5 17.94,0 -47.69,-7.84 -196.46,-23.53 -68.26,-6.97 -136.52,-10.46 -204.77,-10.46 -17.06,0 -25.82,-12.2 -25.82,-37.04 0,0 4.38,-38.36 12.69,-115.06 5.25,-48.38 7.88,-159.51 7.88,-332.09l0 -135.54c0,-34.87 -8.75,-55.35 -25.82,-61.45 -3.94,-0.88 -30.62,-1.31 -79.63,-1.31 -64.76,0 -106.77,4.36 -125.58,12.64 -32.38,14.81 -51.62,69.29 -57.75,163.86 0,-1.74 0,60.15 0,186.53 0,44.89 3.94,112.01 11.81,201.35 7.88,88.91 11.81,155.59 11.81,200.04 0,18.74 -15.31,27.9 -45.94,27.9z"/>
 </g>
</svg>
