<?xml version="1.0" encoding="UTF-8"?>
<!DOCTYPE svg PUBLIC "-//W3C//DTD SVG 1.1//EN" "http://www.w3.org/Graphics/SVG/1.1/DTD/svg11.dtd">
<!-- Creator: CorelDRAW -->
<svg xmlns="http://www.w3.org/2000/svg" xml:space="preserve" width="192mm" height="192mm" version="1.1" style="shape-rendering:geometricPrecision; text-rendering:geometricPrecision; image-rendering:optimizeQuality; fill-rule:evenodd; clip-rule:evenodd"
viewBox="0 0 19200 19200"
 xmlns:xlink="http://www.w3.org/1999/xlink"
 xmlns:xodm="http://www.corel.com/coreldraw/odm/2003">
 <defs>
  <style type="text/css">
   <![CDATA[
    .str1 {stroke:#2B2A29;stroke-width:20;stroke-miterlimit:22.9256}
    .str0 {stroke:#2B2A29;stroke-width:20;stroke-miterlimit:22.9256}
    .fil3 {fill:none}
    .fil4 {fill:#FEFEFE}
    .fil5 {fill:#2B2A29}
    .fil21 {fill:#E31E24}
    .fil1 {fill:#972420}
    .fil8 {fill:#C6B804}
    .fil6 {fill:#066B32}
    .fil11 {fill:blue}
    .fil7 {fill:lime}
    .fil10 {fill:#101594}
    .fil15 {fill:#1C47A6}
    .fil14 {fill:#2A8400}
    .fil19 {fill:#2B6DFF}
    .fil17 {fill:#50FF00}
    .fil12 {fill:#A5AA00}
    .fil13 {fill:#B30007}
    .fil20 {fill:#F7FF00}
    .fil16 {fill:red}
    .fil2 {fill:red}
    .fil18 {fill:yellow}
    .fil9 {fill:yellow}
    .fil26 {fill:white}
    .fil0 {fill:#2B2A29;fill-opacity:0.549020}
    .fil39 {fill:url(#id0)}
    .fil28 {fill:url(#id1)}
    .fil23 {fill:url(#id2)}
    .fil41 {fill:url(#id3)}
    .fil33 {fill:url(#id4)}
    .fil38 {fill:url(#id5)}
    .fil32 {fill:url(#id6)}
    .fil30 {fill:url(#id7)}
    .fil34 {fill:url(#id8)}
    .fil31 {fill:url(#id9)}
    .fil25 {fill:url(#id10)}
    .fil40 {fill:url(#id11)}
    .fil37 {fill:url(#id12)}
    .fil36 {fill:url(#id13)}
    .fil29 {fill:url(#id14)}
    .fil27 {fill:url(#id15)}
    .fil35 {fill:url(#id16)}
    .fil22 {fill:url(#id17)}
    .fil24 {fill:url(#id18)}
   ]]>
  </style>
  <linearGradient id="id0" gradientUnits="userSpaceOnUse" x1="4577.54" y1="8873.41" x2="4577.26" y2="10081.69">
   <stop offset="0" style="stop-opacity:1; stop-color:#AC2A21"/>
   <stop offset="0.478431" style="stop-opacity:1; stop-color:#D51511"/>
   <stop offset="1" style="stop-opacity:1; stop-color:red"/>
  </linearGradient>
  <linearGradient id="id1" gradientUnits="userSpaceOnUse" xlink:href="#id0" x1="6688.67" y1="8013.71" x2="6688.39" y2="9222">
  </linearGradient>
  <linearGradient id="id2" gradientUnits="userSpaceOnUse" x1="10758.07" y1="8214.74" x2="7862.8" y2="8965.31">
   <stop offset="0" style="stop-opacity:1; stop-color:red"/>
   <stop offset="0.611765" style="stop-opacity:1; stop-color:#981818"/>
   <stop offset="1" style="stop-opacity:1; stop-color:#303030"/>
  </linearGradient>
  <linearGradient id="id3" gradientUnits="userSpaceOnUse" x1="2955.36" y1="13839.67" x2="3050.96" y2="12638.97">
   <stop offset="0" style="stop-opacity:1; stop-color:#D4DB0B"/>
   <stop offset="1" style="stop-opacity:1; stop-color:#A0A600"/>
  </linearGradient>
  <linearGradient id="id4" gradientUnits="userSpaceOnUse" x1="12710.92" y1="10052.99" x2="12806.49" y2="8852.29">
   <stop offset="0" style="stop-opacity:1; stop-color:#51DE10"/>
   <stop offset="1" style="stop-opacity:1; stop-color:#2C8702"/>
  </linearGradient>
  <linearGradient id="id5" gradientUnits="userSpaceOnUse" xlink:href="#id4" x1="14587.48" y1="10076.52" x2="14683.05" y2="8875.81">
  </linearGradient>
  <linearGradient id="id6" gradientUnits="userSpaceOnUse" xlink:href="#id4" x1="14265.4" y1="9216.09" x2="14360.97" y2="8015.38">
  </linearGradient>
  <linearGradient id="id7" gradientUnits="userSpaceOnUse" xlink:href="#id0" x1="6487.99" y1="8873.09" x2="6487.71" y2="10081.38">
  </linearGradient>
  <linearGradient id="id8" gradientUnits="userSpaceOnUse" xlink:href="#id3" x1="5669.78" y1="12973.37" x2="5765.38" y2="11772.66">
  </linearGradient>
  <linearGradient id="id9" gradientUnits="userSpaceOnUse" xlink:href="#id0" x1="4924.35" y1="8000.33" x2="4924.07" y2="9208.61">
  </linearGradient>
  <linearGradient id="id10" gradientUnits="userSpaceOnUse" x1="13399.61" y1="12944.03" x2="13495.21" y2="11743.32">
   <stop offset="0" style="stop-opacity:1; stop-color:#0049E8"/>
   <stop offset="1" style="stop-opacity:1; stop-color:#0739A6"/>
  </linearGradient>
  <linearGradient id="id11" gradientUnits="userSpaceOnUse" xlink:href="#id3" x1="5467.42" y1="13816.88" x2="5563.02" y2="12616.18">
  </linearGradient>
  <linearGradient id="id12" gradientUnits="userSpaceOnUse" xlink:href="#id10" x1="16108.16" y1="13821" x2="16203.76" y2="12620.29">
  </linearGradient>
  <linearGradient id="id13" gradientUnits="userSpaceOnUse" xlink:href="#id10" x1="15754.78" y1="12946.2" x2="15850.38" y2="11745.5">
  </linearGradient>
  <linearGradient id="id14" gradientUnits="userSpaceOnUse" xlink:href="#id4" x1="12477.66" y1="9212.76" x2="12573.23" y2="8012.06">
  </linearGradient>
  <linearGradient id="id15" gradientUnits="userSpaceOnUse" xlink:href="#id3" x1="3343.68" y1="12950.26" x2="3439.28" y2="11749.55">
  </linearGradient>
  <linearGradient id="id16" gradientUnits="userSpaceOnUse" xlink:href="#id10" x1="13619.82" y1="13830.61" x2="13715.42" y2="12629.91">
  </linearGradient>
  <linearGradient id="id17" gradientUnits="userSpaceOnUse" xlink:href="#id2" x1="11279.87" y1="9853.58" x2="9106.22" y2="10183.62">
  </linearGradient>
  <linearGradient id="id18" gradientUnits="userSpaceOnUse" xlink:href="#id2" x1="9727.88" y1="10755.83" x2="7488.17" y2="10638.46">
  </linearGradient>
 </defs>
 <g id="Layer_x0020_1">
  <metadata id="CorelCorpID_0Corel-Layer"/>
  <g id="_1976552923440">
   <g>
    <path class="fil0" d="M5516.61 7425.57c507.11,0 952.44,44.36 1205.84,111.24 -37.43,-37.09 -57.61,-76.48 -57.61,-117.32 0,-220.09 585.16,-398.5 1306.98,-398.5 622.91,0 1143.97,132.87 1275.11,310.73 283.19,-84.23 924.73,-143.01 1670.92,-143.01 1008.35,0 1825.78,107.33 1825.78,239.73 0,2.43 -0.36,4.87 -0.9,7.28 251.74,-51.63 626.63,-84.38 1045.36,-84.38 758.08,0 1372.63,107.33 1372.63,239.73 0,132.4 -614.55,239.73 -1372.63,239.73 -758.09,0 -1372.64,-107.33 -1372.64,-239.73 0,-9.19 3.06,-18.24 8.81,-27.15 -329.03,62.96 -880.94,104.25 -1506.41,104.25 -756.44,0 -1405.45,-60.4 -1682.5,-146.48 -148.01,170.57 -657.58,296.3 -1263.53,296.3 -416.68,0 -787.82,-59.46 -1027.14,-152.06 -2.03,132.12 -640.59,239.1 -1428.07,239.1 -788.72,0 -1428.11,-107.33 -1428.11,-239.73 0,-132.4 639.39,-239.73 1428.11,-239.73z"/>
    <g>
     <path class="fil1" d="M4652.22 6658.39c211.91,95.52 384.68,149.2 518.31,161.03 -1.46,-84.31 -2.2,-218.47 -2.2,-401.75l2.2 -566.7c15.86,-401.94 30.49,-729.23 43.9,-981.27 -81.42,98.48 -197.54,146.38 -302.8,112.54 -139.68,-44.91 -211.01,-217.95 -169.95,-397.83 -7.33,-0.16 -15.08,-0.37 -23.23,-0.61 41.36,180.11 -29.96,353.48 -169.81,398.45 -70.28,22.59 -145.4,8.74 -211.81,-32.27 2.56,120.01 6.27,258.61 11.14,415.66 10.26,331.37 15.39,579.9 15.39,746.31 0,155.43 -2.2,389.29 -6.6,700.87 -4.4,311.58 -6.59,544.71 -6.59,700.87 0,37.39 20.52,59.38 62.31,66.71 120.23,6.6 212.61,9.53 277.12,8.06l641.48 8.8c63.05,0.74 223.6,4.41 480.93,10.27 197.94,5.13 358.5,8.06 480.93,8.06 52.05,0 81.38,-1.47 88.7,-4.39 22.74,-7.34 37.4,-29.33 44.73,-65.99 35.19,-177.41 52.78,-388.56 52.78,-632.68 0,-33 -19.06,-49.12 -57.91,-49.12 -129.03,0 -321.84,6.6 -579.17,19.79 -233.82,11.99 -414.37,18.54 -542.21,19.63 -16.68,0.53 -33.29,0.59 -49.84,0.17 -27.44,0 -41.56,0 -42.84,0 -3.49,-0.78 -6.71,-1.76 -9.65,-2.95 -190.69,-16.56 -372.46,-97.12 -545.31,-241.66z"/>
     <circle class="fil1" transform="matrix(0.5729 -0.18419 0.237665 0.739228 4359.94 4631.72)" r="596.69"/>
     <circle class="fil1" transform="matrix(0.303216 -0.0974853 0.125788 0.391247 4393 4806.33)" r="596.69"/>
     <path class="fil1" d="M4317.95 4572.88c99.92,-32.13 214.53,46.36 255.98,175.28 41.45,128.93 -5.95,259.5 -105.87,291.63 -99.92,32.12 -214.53,-46.36 -255.98,-175.29 -41.45,-128.93 5.95,-259.5 105.87,-291.62zm383.83 -51.07c-78.32,-243.6 -294.86,-391.88 -483.65,-331.18 -188.8,60.69 -278.36,307.38 -200.04,550.99 78.32,243.61 294.87,391.88 483.66,331.19 188.79,-60.7 278.35,-307.39 200.03,-551z"/>
     <path class="fil1" d="M4573.93 4748.16c-41.45,-128.92 -156.06,-207.41 -255.98,-175.28 -99.92,32.12 -147.32,162.69 -105.87,291.62 41.45,128.93 156.06,207.41 255.98,175.29 99.92,-32.13 147.32,-162.7 105.87,-291.63z"/>
     <circle class="fil1" transform="matrix(-0.5729 -0.18419 -0.237665 0.739228 5100.33 4631.72)" r="596.69"/>
     <circle class="fil1" transform="matrix(-0.303216 -0.0974853 -0.125788 0.391247 5067.26 4806.33)" r="596.69"/>
     <path class="fil1" d="M5142.32 4572.88c-99.92,-32.13 -214.53,46.36 -255.98,175.28 -41.45,128.93 5.95,259.5 105.87,291.63 99.92,32.12 214.53,-46.36 255.98,-175.29 41.45,-128.93 -5.95,-259.5 -105.87,-291.62zm-383.83 -51.07c78.32,-243.6 294.86,-391.88 483.65,-331.18 188.8,60.69 278.35,307.38 200.04,550.99 -78.33,243.61 -294.87,391.88 -483.66,331.19 -188.8,-60.7 -278.35,-307.39 -200.03,-551z"/>
     <path class="fil1" d="M4886.34 4748.16c41.45,-128.92 156.06,-207.41 255.98,-175.28 99.92,32.12 147.32,162.69 105.87,291.62 -41.45,128.93 -156.06,207.41 -255.98,175.29 -99.92,-32.13 -147.32,-162.7 -105.87,-291.63z"/>
    </g>
    <g>
     <path class="fil2" d="M4803.49 6634.47c205.61,92.68 373.24,144.77 502.9,156.24 -1.42,-81.8 -2.13,-211.97 -2.13,-389.8l2.13 -549.86c15.39,-389.99 29.59,-707.54 42.6,-952.09 -79,95.55 -191.67,142.03 -293.8,109.19 -135.53,-43.57 -204.74,-211.46 -164.9,-386 -7.11,-0.16 -14.63,-0.35 -22.53,-0.59 40.13,174.75 -29.08,342.97 -164.77,386.6 -68.19,21.92 -141.08,8.48 -205.51,-31.31 2.48,116.44 6.09,250.92 10.81,403.3 9.95,321.52 14.93,562.66 14.93,724.13 0,150.81 -2.13,377.72 -6.4,680.03 -4.27,302.32 -6.4,528.51 -6.4,680.03 0,36.28 19.91,57.62 60.46,64.73 116.66,6.4 206.29,9.25 268.88,7.82l622.41 8.54c61.17,0.71 216.95,4.27 466.63,9.96 192.06,4.97 347.84,7.82 466.63,7.82 50.51,0 78.96,-1.42 86.07,-4.26 22.05,-7.12 36.28,-28.46 43.4,-64.02 34.14,-172.14 51.21,-377.01 51.21,-613.88 0,-32.01 -18.5,-47.65 -56.2,-47.65 -125.19,0 -312.27,6.39 -561.94,19.2 -226.87,11.63 -402.05,17.98 -526.09,19.05 -16.18,0.51 -32.31,0.56 -48.36,0.15 -26.62,0 -40.32,0 -41.56,0 -3.39,-0.75 -6.51,-1.7 -9.37,-2.85 -185.02,-16.07 -361.39,-94.23 -529.1,-234.48z"/>
     <circle class="fil3" transform="matrix(0.555867 -0.178714 0.230599 0.71725 4519.9 4668.05)" r="596.69"/>
     <circle class="fil3" transform="matrix(0.294201 -0.094587 0.122048 0.379615 4551.98 4837.48)" r="596.69"/>
     <path class="fil4" d="M4479.16 4610.96c96.95,-31.17 208.15,44.98 248.37,170.08 40.22,125.09 -5.77,251.78 -102.72,282.95 -96.95,31.17 -208.15,-44.98 -248.37,-170.08 -40.22,-125.09 5.77,-251.78 102.72,-282.95zm372.42 -49.55c-75.99,-236.36 -286.1,-380.23 -469.28,-321.34 -183.18,58.9 -270.07,298.25 -194.08,534.61 75.99,236.37 286.1,380.24 469.28,321.35 183.18,-58.9 270.07,-298.25 194.08,-534.62z"/>
     <path class="fil5" d="M4727.53 4781.04c-40.22,-125.1 -151.42,-201.25 -248.37,-170.08 -96.95,31.17 -142.94,157.86 -102.72,282.95 40.22,125.1 151.42,201.25 248.37,170.08 96.95,-31.17 142.94,-157.86 102.72,-282.95z"/>
     <circle class="fil3" transform="matrix(-0.555867 -0.178714 -0.230599 0.71725 5238.28 4668.05)" r="596.69"/>
     <circle class="fil3" transform="matrix(-0.294201 -0.094587 -0.122048 0.379615 5206.2 4837.48)" r="596.69"/>
     <path class="fil4" d="M5279.02 4610.96c-96.95,-31.17 -208.15,44.98 -248.37,170.08 -40.22,125.09 5.77,251.78 102.72,282.95 96.95,31.17 208.16,-44.98 248.37,-170.08 40.22,-125.09 -5.77,-251.78 -102.72,-282.95zm-372.42 -49.55c75.99,-236.36 286.1,-380.23 469.28,-321.34 183.18,58.9 270.07,298.25 194.08,534.61 -75.99,236.37 -286.1,380.24 -469.28,321.35 -183.18,-58.9 -270.07,-298.25 -194.08,-534.62z"/>
     <path class="fil5" d="M5030.65 4781.04c40.22,-125.1 151.42,-201.25 248.37,-170.08 96.95,31.17 142.94,157.86 102.72,282.95 -40.21,125.1 -151.42,201.25 -248.37,170.08 -96.95,-31.17 -142.94,-157.86 -102.72,-282.95z"/>
    </g>
    <g>
     <path class="fil6" d="M7514.73 6660.36c-47.13,-77.59 -70.33,-227.7 -70.33,-450.31 0,-187.09 5.8,-467 17.4,-840.44 11.6,-372.72 17.4,-652.63 17.4,-839.71 0,-31.18 -17.4,-47.14 -52.93,-47.14 -87.02,0 -217.54,-3.62 -393.03,-10.14 -175.48,-7.26 -306.01,-10.88 -392.3,-10.88 -29.73,0 -44.96,16.68 -44.96,50.75 0,163.16 7.98,408.98 23.93,737.47 15.96,327.77 23.93,574.31 23.93,738.92 0,56.56 -2.17,142.13 -6.52,256.7 -4.36,114.57 -6.53,200.87 -6.53,258.87 0,250.9 18.85,424.94 55.84,522.83 73.24,199.41 233.49,335.01 480.04,405.35 154.45,44.24 374.9,65.99 661.33,65.99 633.05,0 1028.97,-120.37 1187.77,-361.12 86.3,-131.25 129.81,-377.8 129.81,-738.92 0,-45.68 -0.73,-113.84 -2.18,-205.21 -1.45,-91.37 -2.18,-159.53 -2.18,-204.49 0,-164.61 6.53,-411.15 19.58,-738.92 13.05,-328.49 19.58,-574.31 19.58,-737.47 0,-34.07 -20.31,-50.75 -61.63,-50.75 -83.4,0 -209.57,3.62 -377.8,10.88 -168.23,6.52 -294.41,10.14 -377.8,10.14 -35.53,0 -52.94,22.48 -52.94,65.99 0,205.22 5.08,513.4 15.23,924.56 10.15,410.42 15.23,718.61 15.23,923.83 0,282.07 -145.03,422.75 -435.09,422.75 -198.68,0 -328.49,-52.94 -390.85,-159.53zm-319.36 -65.38c474.67,385.82 932.36,389.07 1373.06,9.74 -463.54,639.47 -921.22,636.22 -1373.06,-9.74z"/>
     <g>
      <circle class="fil6" transform="matrix(0.566662 -0.182184 0.235077 0.731179 6904.26 4521.27)" r="596.69"/>
      <circle class="fil6" transform="matrix(0.299914 -0.0964238 0.124418 0.386987 6936.97 4693.98)" r="596.69"/>
      <path class="fil6" d="M6862.73 4463.07c98.83,-31.77 212.19,45.85 253.19,173.38 41,127.52 -5.88,256.67 -104.71,288.44 -98.83,31.78 -212.2,-45.85 -253.2,-173.37 -41,-127.53 5.89,-256.67 104.72,-288.45zm379.65 -50.51c-77.46,-240.95 -291.65,-387.62 -478.39,-327.58 -186.73,60.04 -275.32,304.04 -197.85,544.99 77.47,240.96 291.65,387.62 478.39,327.58 186.74,-60.03 275.32,-304.04 197.85,-544.99z"/>
      <path class="fil6" d="M7115.92 4636.45c-41,-127.53 -154.36,-205.15 -253.19,-173.38 -98.83,31.78 -145.72,160.92 -104.72,288.45 41,127.52 154.37,205.15 253.2,173.37 98.83,-31.77 145.71,-160.92 104.71,-288.44z"/>
     </g>
     <g>
      <circle class="fil6" transform="matrix(-0.566662 -0.182184 -0.235077 0.731179 8889.85 4521.27)" r="596.69"/>
      <circle class="fil6" transform="matrix(-0.299914 -0.0964238 -0.124418 0.386987 8857.15 4693.98)" r="596.69"/>
      <path class="fil6" d="M8931.38 4463.07c-98.83,-31.77 -212.19,45.85 -253.19,173.38 -41,127.52 5.88,256.67 104.72,288.44 98.83,31.78 212.19,-45.85 253.19,-173.37 41,-127.53 -5.88,-256.67 -104.72,-288.45zm-379.65 -50.51c77.47,-240.95 291.65,-387.62 478.39,-327.58 186.74,60.04 275.32,304.04 197.85,544.99 -77.46,240.96 -291.65,387.62 -478.39,327.58 -186.73,-60.03 -275.32,-304.04 -197.85,-544.99z"/>
      <path class="fil6" d="M8678.19 4636.45c41,-127.53 154.36,-205.15 253.19,-173.38 98.84,31.78 145.72,160.92 104.72,288.45 -41,127.52 -154.36,205.15 -253.19,173.37 -98.84,-31.77 -145.72,-160.92 -104.72,-288.44z"/>
     </g>
    </g>
    <g>
     <path class="fil7" d="M7621.8 6621.56c-44.87,-73.86 -66.95,-216.74 -66.95,-428.65 0,-178.08 5.52,-444.53 16.56,-800 11.05,-354.79 16.57,-621.23 16.57,-799.32 0,-29.68 -16.57,-44.87 -50.39,-44.87 -82.83,0 -207.07,-3.45 -374.11,-9.66 -167.05,-6.9 -291.29,-10.35 -373.43,-10.35 -28.31,0 -42.8,15.88 -42.8,48.31 0,155.31 7.59,389.31 22.78,701.99 15.18,312 22.77,546.69 22.77,703.37 0,53.84 -2.07,135.29 -6.2,244.36 -4.15,109.05 -6.22,191.2 -6.22,246.41 0,238.83 17.95,404.49 53.15,497.68 69.72,189.82 222.27,318.89 456.95,385.85 147.02,42.1 356.86,62.81 629.51,62.81 602.6,0 979.47,-114.58 1130.64,-343.74 82.14,-124.94 123.56,-359.63 123.56,-703.38 0,-43.48 -0.7,-108.36 -2.08,-195.34 -1.38,-86.97 -2.07,-151.85 -2.07,-194.65 0,-156.68 6.22,-391.37 18.64,-703.37 12.42,-312.68 18.64,-546.68 18.64,-701.99 0,-32.43 -19.33,-48.31 -58.68,-48.31 -79.38,0 -199.48,3.45 -359.62,10.35 -160.14,6.21 -280.24,9.66 -359.62,9.66 -33.82,0 -50.39,21.4 -50.39,62.82 0,195.34 4.83,488.7 14.49,880.07 9.67,390.68 14.5,684.04 14.5,879.39 0,268.5 -138.05,402.41 -414.15,402.41 -189.13,0 -312.69,-50.39 -372.05,-151.85zm-304 -62.23c451.84,367.26 887.5,370.34 1307,9.27 -441.23,608.7 -876.9,605.61 -1307,-9.27z"/>
     <g>
      <circle class="fil3" transform="matrix(0.5394 -0.17342 0.223768 0.696003 7040.7 4585.38)" r="596.69"/>
      <circle class="fil3" transform="matrix(0.285486 -0.091785 0.118433 0.36837 7071.83 4749.78)" r="596.69"/>
      <path class="fil4" d="M7001.16 4529.98c94.08,-30.25 201.99,43.65 241.01,165.03 39.03,121.4 -5.59,244.33 -99.67,274.58 -94.08,30.24 -201.99,-43.65 -241.02,-165.04 -39.02,-121.39 5.61,-244.32 99.68,-274.57zm361.39 -48.08c-73.74,-229.36 -277.62,-368.97 -455.37,-311.82 -177.76,57.15 -262.08,289.41 -188.34,518.77 73.74,229.36 277.62,368.97 455.38,311.82 177.75,-57.15 262.07,-289.41 188.33,-518.77z"/>
      <path class="fil5" d="M7242.17 4695.01c-39.02,-121.38 -146.93,-195.28 -241.01,-165.03 -94.07,30.25 -138.7,153.18 -99.68,274.57 39.03,121.39 146.94,195.28 241.02,165.04 94.08,-30.25 138.7,-153.18 99.67,-274.58z"/>
     </g>
     <g>
      <circle class="fil3" transform="matrix(-0.5394 -0.17342 -0.223768 0.696003 8930.76 4585.38)" r="596.69"/>
      <circle class="fil3" transform="matrix(-0.285486 -0.091785 -0.118433 0.36837 8899.63 4749.78)" r="596.69"/>
      <path class="fil4" d="M8970.3 4529.98c-94.08,-30.25 -201.99,43.65 -241.01,165.03 -39.03,121.4 5.6,244.33 99.67,274.58 94.08,30.24 201.99,-43.65 241.02,-165.04 39.02,-121.39 -5.61,-244.32 -99.68,-274.57zm-361.39 -48.08c73.74,-229.36 277.62,-368.97 455.37,-311.82 177.76,57.15 262.08,289.41 188.34,518.77 -73.74,229.36 -277.62,368.97 -455.38,311.82 -177.75,-57.15 -262.07,-289.41 -188.33,-518.77z"/>
      <path class="fil5" d="M8729.29 4695.01c39.02,-121.38 146.93,-195.28 241.01,-165.03 94.07,30.25 138.7,153.18 99.68,274.57 -39.03,121.39 -146.94,195.28 -241.02,165.04 -94.07,-30.25 -138.7,-153.18 -99.67,-274.58z"/>
     </g>
    </g>
    <g>
     <path class="fil8" d="M12519.91 6071.27c0,431.11 138.73,792.5 416.88,1085.6 283.14,300.21 639.56,450.32 1068.54,450.32 431.82,0 788.94,-148.68 1070.66,-446.05 276.74,-293.1 414.75,-655.91 414.75,-1089.87 0,-428.98 -139.44,-792.51 -419.02,-1089.17 -284.56,-301.63 -640.26,-452.44 -1066.39,-452.44 -428.98,0 -785.4,150.81 -1068.54,452.44 -278.15,294.53 -416.88,657.34 -416.88,1089.17zm975.34 531.42c-123.79,-141.57 -185.68,-318.71 -185.68,-531.42 0,-198.48 66.16,-374.2 197.77,-527.15 135.88,-158.64 302.35,-237.62 497.99,-237.62 205.59,0 374.2,76.13 506.51,229.08 125.93,145.84 189.24,322.98 189.24,531.42 0,199.19 -65.45,373.49 -195.64,523.59 -137.3,157.22 -304.48,235.48 -500.11,235.48 -209.87,0 -379.89,-74.7 -510.08,-223.38z"/>
     <g>
      <circle class="fil8" transform="matrix(0.555929 -0.178734 0.230625 0.71733 13550 4729.03)" r="596.69"/>
      <circle class="fil8" transform="matrix(0.294234 -0.0945975 0.122062 0.379657 13582.1 4898.47)" r="596.69"/>
      <path class="fil8" d="M13509.24 4671.93c96.96,-31.17 208.17,44.99 248.39,170.1 40.23,125.11 -5.77,251.81 -102.73,282.98 -96.96,31.17 -208.17,-44.98 -248.4,-170.09 -40.22,-125.11 5.78,-251.81 102.74,-282.99zm372.46 -49.55c-76,-236.39 -286.13,-380.27 -469.33,-321.37 -183.2,58.9 -270.1,298.28 -194.11,534.66 76.01,236.4 286.13,380.28 469.33,321.38 183.2,-58.9 270.11,-298.28 194.11,-534.67z"/>
      <path class="fil8" d="M13757.63 4842.03c-40.22,-125.11 -151.43,-201.27 -248.39,-170.1 -96.96,31.18 -142.96,157.88 -102.74,282.99 40.23,125.11 151.44,201.26 248.4,170.09 96.96,-31.17 142.96,-157.87 102.73,-282.98z"/>
      <line class="fil3" x1="13412.37" y1="4301" x2="13356.4" y2= "4092.09" />
      <line class="fil3" x1="13464.06" y1="4291.27" x2="13446.16" y2= "4092.1" />
      <line class="fil3" x1="13513.16" y1="4289.83" x2="13521.92" y2= "4128.03" />
      <line class="fil3" x1="13357" y1="4325.86" x2="13284.27" y2= "4158.13" />
      <line class="fil3" x1="13316.52" y1="4356.61" x2="13239.83" y2= "4215.16" />
     </g>
     <g>
      <circle class="fil8" transform="matrix(-0.555929 -0.178734 -0.230625 0.71733 14460.7 4729.03)" r="596.69"/>
      <circle class="fil8" transform="matrix(-0.294234 -0.0945975 -0.122062 0.379657 14428.6 4898.47)" r="596.69"/>
      <path class="fil8" d="M14501.4 4671.93c-96.96,-31.17 -208.17,44.99 -248.39,170.1 -40.23,125.11 5.77,251.81 102.73,282.98 96.96,31.17 208.17,-44.98 248.4,-170.09 40.22,-125.11 -5.78,-251.81 -102.74,-282.99zm-372.46 -49.55c76,-236.39 286.13,-380.27 469.33,-321.37 183.2,58.9 270.11,298.28 194.11,534.66 -76.01,236.4 -286.13,380.28 -469.33,321.38 -183.2,-58.9 -270.11,-298.28 -194.11,-534.67z"/>
      <path class="fil8" d="M14253.01 4842.03c40.22,-125.11 151.43,-201.27 248.39,-170.1 96.96,31.18 142.96,157.88 102.74,282.99 -40.23,125.11 -151.44,201.26 -248.4,170.09 -96.96,-31.17 -142.96,-157.87 -102.73,-282.98z"/>
      <line class="fil3" x1="14598.27" y1="4301" x2="14654.24" y2= "4092.09" />
      <line class="fil3" x1="14546.58" y1="4291.27" x2="14564.48" y2= "4092.1" />
      <line class="fil3" x1="14497.48" y1="4289.83" x2="14488.72" y2= "4128.03" />
      <line class="fil3" x1="14653.64" y1="4325.86" x2="14726.37" y2= "4158.13" />
      <line class="fil3" x1="14694.12" y1="4356.61" x2="14770.81" y2= "4215.16" />
     </g>
     <path class="fil9" d="M12437.27 6064.8c0,418.3 134.6,768.95 404.49,1053.33 274.72,291.29 620.53,436.93 1036.76,436.93 418.98,0 765.49,-144.26 1038.83,-432.79 268.51,-284.38 402.42,-636.41 402.42,-1057.47 0,-416.22 -135.29,-768.94 -406.56,-1056.78 -276.1,-292.66 -621.23,-439 -1034.69,-439 -416.23,0 -762.04,146.34 -1036.76,439 -269.89,285.77 -404.49,637.8 -404.49,1056.78zm946.34 515.62c-120.11,-137.36 -180.16,-309.23 -180.16,-515.62 0,-192.57 64.19,-363.07 191.89,-511.47 131.84,-153.93 293.36,-230.55 483.18,-230.55 199.48,0 363.08,73.86 491.46,222.26 122.18,141.51 183.61,313.38 183.61,515.62 0,193.27 -63.5,362.39 -189.82,508.03 -133.22,152.55 -295.43,228.48 -485.25,228.48 -203.63,0 -368.59,-72.48 -494.91,-216.75z"/>
     <g>
      <g>
       <circle class="fil3" transform="matrix(0.5394 -0.17342 0.223768 0.696003 13436.7 4762.47)" r="596.69"/>
       <circle class="fil3" transform="matrix(0.285486 -0.091785 0.118433 0.36837 13467.8 4926.88)" r="596.69"/>
       <path class="fil4" d="M13397.18 4707.07c94.08,-30.24 201.98,43.65 241.01,165.04 39.03,121.39 -5.6,244.32 -99.67,274.57 -94.08,30.25 -201.99,-43.65 -241.02,-165.04 -39.03,-121.38 5.6,-244.32 99.68,-274.57zm361.39 -48.08c-73.74,-229.36 -277.62,-368.97 -455.38,-311.82 -177.75,57.15 -262.07,289.42 -188.33,518.78 73.74,229.36 277.62,368.97 455.37,311.82 177.76,-57.15 262.08,-289.42 188.34,-518.78z"/>
       <path class="fil5" d="M13638.19 4872.11c-39.03,-121.39 -146.93,-195.28 -241.01,-165.04 -94.08,30.25 -138.71,153.19 -99.68,274.57 39.03,121.39 146.94,195.29 241.02,165.04 94.07,-30.25 138.7,-153.18 99.67,-274.57z"/>
      </g>
      <g>
       <circle class="fil3" transform="matrix(-0.5394 -0.17342 -0.223768 0.696003 14320.3 4762.47)" r="596.69"/>
       <circle class="fil3" transform="matrix(-0.285486 -0.091785 -0.118433 0.36837 14289.2 4926.88)" r="596.69"/>
       <path class="fil4" d="M14359.85 4707.07c-94.08,-30.24 -201.98,43.65 -241.01,165.04 -39.03,121.39 5.6,244.32 99.67,274.57 94.08,30.25 201.99,-43.65 241.02,-165.04 39.03,-121.38 -5.6,-244.32 -99.68,-274.57zm-361.39 -48.08c73.74,-229.36 277.62,-368.97 455.37,-311.82 177.76,57.15 262.08,289.42 188.34,518.78 -73.74,229.36 -277.62,368.97 -455.38,311.82 -177.75,-57.15 -262.07,-289.42 -188.33,-518.78z"/>
       <path class="fil5" d="M14118.84 4872.11c39.03,-121.39 146.93,-195.28 241.01,-165.04 94.08,30.25 138.71,153.19 99.68,274.57 -39.03,121.39 -146.94,195.29 -241.02,165.04 -94.07,-30.25 -138.7,-153.18 -99.67,-274.57z"/>
      </g>
     </g>
    </g>
    <g>
     <g>
      <circle class="fil10" transform="matrix(0.582552 -0.187293 0.241669 0.751683 10091.1 4558.08)" r="596.69"/>
      <circle class="fil10" transform="matrix(0.308324 -0.0991277 0.127907 0.397839 10124.7 4735.64)" r="596.69"/>
      <path class="fil10" d="M10048.4 4498.25c101.6,-32.67 218.14,47.14 260.29,178.24 42.15,131.1 -6.04,263.87 -107.65,296.53 -101.6,32.67 -218.15,-47.13 -260.3,-178.24 -42.14,-131.1 6.06,-263.87 107.66,-296.53zm390.3 -51.93c-79.64,-247.71 -299.83,-398.48 -491.81,-336.76 -191.97,61.72 -283.04,312.56 -203.4,560.27 79.64,247.71 299.83,398.49 491.81,336.77 191.97,-61.72 283.04,-312.57 203.4,-560.28z"/>
      <path class="fil10" d="M10308.69 4676.49c-42.15,-131.1 -158.69,-210.91 -260.29,-178.24 -101.6,32.66 -149.8,165.43 -107.66,296.53 42.15,131.11 158.7,210.91 260.3,178.24 101.61,-32.66 149.8,-165.43 107.65,-296.53z"/>
     </g>
     <path class="fil10" d="M10357.05 6392.74c-2.97,-169.22 -4.47,-295.94 -4.47,-380.93 0,-85.73 1.5,-214.7 4.47,-386.9 2.99,-172.95 4.48,-301.92 4.48,-387.65 0,-59.64 111.82,-89.46 335.46,-89.46 244.52,0 440.58,80.52 588.93,242.28 146.85,155.81 220.66,356.34 220.66,602.35 0,258.68 -67.85,468.16 -202.77,626.2 -143.88,167.73 -342.18,251.22 -593.4,251.22 -232.58,0 -348.88,-31.31 -348.88,-93.93 0,-85.73 -1.49,-213.2 -4.48,-383.18zm1281.74 70.28c336.99,-106.7 568.28,-324.56 693.86,-653.6 -19.58,-171.83 -66.97,-340.28 -142.47,-505.07 -106.61,-235.57 -251.23,-418.95 -434.62,-550.16 -194.56,-140.14 -465.17,-227.37 -809.58,-262.4 -132.7,-12.67 -422.68,-19.39 -871.46,-19.39 -235.57,0 -404.79,5.97 -508.41,17.15 -42.5,5.97 -63.37,24.6 -63.37,55.17 0,165.49 5.96,415.97 17.9,749.94 11.92,333.97 17.88,585.2 17.88,752.19 0,160.27 -5.96,401.06 -17.88,721.62 -11.94,321.3 -17.9,562.08 -17.9,722.36 0,33.54 20.87,49.95 63.37,49.95 71.56,0 178.91,2.23 322.04,6.71 143.14,4.47 250.48,6.7 322.05,6.7 379.44,0 612.03,-1.49 696.27,-4.47 439.83,-14.91 780.51,-162.51 1024.28,-443.56 195.07,-223.08 320.79,-474.67 377.41,-754.73 -321.55,133.95 -544.67,171.15 -669.37,111.59z"/>
     <g>
      <circle class="fil10" transform="matrix(0.582552 -0.187293 0.241669 0.751683 9747.23 4558.08)" r="596.69"/>
      <circle class="fil10" transform="matrix(0.308324 -0.0991277 0.127907 0.397839 9780.86 4735.64)" r="596.69"/>
      <path class="fil10" d="M9704.54 4498.25c101.6,-32.67 218.14,47.14 260.29,178.24 42.15,131.1 -6.05,263.87 -107.65,296.53 -101.6,32.67 -218.15,-47.13 -260.3,-178.24 -42.15,-131.1 6.05,-263.87 107.66,-296.53zm390.3 -51.93c-79.64,-247.71 -299.83,-398.48 -491.81,-336.76 -191.97,61.72 -283.04,312.56 -203.4,560.27 79.64,247.71 299.83,398.49 491.81,336.77 191.97,-61.72 283.04,-312.57 203.4,-560.28z"/>
      <path class="fil10" d="M9964.83 4676.49c-42.15,-131.1 -158.69,-210.91 -260.29,-178.24 -101.61,32.66 -149.81,165.43 -107.66,296.53 42.15,131.11 158.7,210.91 260.3,178.24 101.6,-32.66 149.8,-165.43 107.65,-296.53z"/>
     </g>
    </g>
    <g>
     <g>
      <circle class="fil3" transform="matrix(0.5394 -0.17342 0.223768 0.696003 10094 4653.31)" r="596.69"/>
      <circle class="fil3" transform="matrix(0.285486 -0.091785 0.118433 0.36837 10125.1 4817.72)" r="596.69"/>
      <path class="fil4" d="M10054.43 4597.91c94.08,-30.24 201.99,43.65 241.01,165.04 39.03,121.39 -5.59,244.32 -99.67,274.57 -94.08,30.25 -201.99,-43.65 -241.02,-165.04 -39.02,-121.39 5.61,-244.32 99.68,-274.57zm361.39 -48.08c-73.74,-229.36 -277.62,-368.97 -455.37,-311.82 -177.76,57.15 -262.08,289.42 -188.34,518.78 73.74,229.36 277.62,368.97 455.38,311.82 177.75,-57.15 262.07,-289.42 188.33,-518.78z"/>
      <path class="fil5" d="M10295.44 4762.95c-39.02,-121.39 -146.93,-195.28 -241.01,-165.04 -94.07,30.25 -138.7,153.18 -99.68,274.57 39.03,121.39 146.94,195.29 241.02,165.04 94.08,-30.25 138.7,-153.18 99.67,-274.57z"/>
     </g>
     <path class="fil11" d="M10340.22 6352.08c-2.75,-156.69 -4.14,-274.03 -4.14,-352.72 0,-79.38 1.39,-198.79 4.14,-358.25 2.77,-160.13 4.15,-279.55 4.15,-358.92 0,-55.23 103.53,-82.84 310.61,-82.84 226.41,0 407.94,74.55 545.3,224.34 135.98,144.26 204.32,329.94 204.32,557.72 0,239.52 -62.82,433.48 -187.75,579.82 -133.22,155.3 -316.83,232.61 -549.45,232.61 -215.35,0 -323.03,-28.99 -323.03,-86.97 0,-79.38 -1.38,-197.41 -4.15,-354.79zm1186.79 65.06c312.03,-98.79 526.19,-300.51 642.47,-605.18 -18.13,-159.1 -62.01,-315.08 -131.92,-467.66 -98.71,-218.11 -232.62,-387.92 -402.42,-509.4 -180.15,-129.77 -430.72,-210.53 -749.61,-242.97 -122.87,-11.73 -391.38,-17.95 -806.91,-17.95 -218.12,0 -374.81,5.52 -470.75,15.88 -39.35,5.52 -58.68,22.77 -58.68,51.08 0,153.23 5.52,385.16 16.57,694.39 11.04,309.24 16.57,541.85 16.57,696.47 0,148.4 -5.53,371.36 -16.57,668.17 -11.05,297.5 -16.57,520.45 -16.57,668.85 0,31.06 19.33,46.25 58.68,46.25 66.26,0 165.66,2.07 298.18,6.21 132.54,4.14 231.93,6.21 298.2,6.21 351.33,0 566.69,-1.38 644.69,-4.14 407.25,-13.8 722.7,-150.47 948.41,-410.7 180.62,-206.56 297.02,-439.51 349.46,-698.83 -297.74,124.03 -504.33,158.47 -619.8,103.32z"/>
     <g>
      <circle class="fil3" transform="matrix(0.5394 -0.17342 0.223768 0.696003 9775.58 4653.31)" r="596.69"/>
      <circle class="fil3" transform="matrix(0.285486 -0.091785 0.118433 0.36837 9806.71 4817.72)" r="596.69"/>
      <path class="fil4" d="M9736.04 4597.91c94.08,-30.24 201.99,43.65 241.01,165.04 39.03,121.39 -5.6,244.32 -99.67,274.57 -94.08,30.25 -201.99,-43.65 -241.02,-165.04 -39.03,-121.39 5.61,-244.32 99.68,-274.57zm361.39 -48.08c-73.74,-229.36 -277.62,-368.97 -455.37,-311.82 -177.76,57.15 -262.08,289.42 -188.34,518.78 73.74,229.36 277.62,368.97 455.38,311.82 177.75,-57.15 262.07,-289.42 188.33,-518.78z"/>
      <path class="fil5" d="M9977.05 4762.95c-39.02,-121.39 -146.93,-195.28 -241.01,-165.04 -94.07,30.25 -138.71,153.18 -99.68,274.57 39.03,121.39 146.94,195.29 241.02,165.04 94.07,-30.25 138.7,-153.18 99.67,-274.57z"/>
     </g>
    </g>
   </g>
   <g>
    <g>
     <g>
      <polygon class="fil4 str0" points="325.31,14598.58 18864.09,14598.58 15484.24,8362.09 3766.55,8378.21 "/>
      <polygon class="fil12" points="9005,14183.31 9012.4,13977.2 9019.79,13772.95 7808.34,13772.43 7763.65,14185.1 "/>
      <polygon class="fil13 str0" points="8159.35,10851.22 8435.97,8378.2 3766.55,8378.2 2401.49,10845.7 "/>
      <polygon class="fil14 str0" points="10788.2,8362.09 11062.45,10842.38 16829.29,10844 15484.23,8362.09 "/>
      <polygon class="fil12 str0" points="8008.51,12127.91 1696.16,12120.64 325.31,14598.58 7721,14598.58 "/>
      <polygon class="fil15 str0" points="11203.94,12121.15 11475.17,14598.58 18864.09,14598.58 17521.38,12121.15 "/>
      <path class="fil16" d="M7210.91 9111.73c19.63,140.65 -193.2,283.16 -475.39,318.34 -282.17,35.17 -526.82,-50.33 -546.45,-190.96 -19.61,-140.64 193.22,-283.16 475.39,-318.33 282.17,-35.17 526.82,50.32 546.45,190.95zm833.17 -557.01l-4002.86 0 -1185.68 2115.25 4951.41 4.73 237.13 -2119.98zm-3495.5 1228.61c301.5,-35.16 562.94,50.33 583.89,190.96 20.99,140.64 -206.43,283.16 -507.95,318.34 -301.5,35.16 -562.93,-50.33 -583.89,-190.96 -20.97,-140.64 206.45,-283.16 507.95,-318.34zm1895.09 13.01c299.76,-33.3 559.66,47.64 580.51,180.8 20.86,133.17 -205.24,268.1 -505.02,301.41 -299.75,33.3 -559.66,-47.64 -580.5,-180.8 -20.85,-133.17 205.25,-268.1 505.01,-301.41zm-991.63 -685.5c19.96,140.63 -196.28,283.17 -482.99,318.34 -286.69,35.16 -535.27,-50.33 -555.2,-190.98 -19.94,-140.61 196.3,-283.16 482.98,-318.32 286.67,-35.16 535.27,50.33 555.21,190.96z"/>
      <path class="fil17" d="M12759.53 9802.84c304.03,7.59 546.48,119.27 541.49,249.4 -4.97,130.15 -255.48,229.49 -559.5,221.91 -304.03,-7.59 -546.48,-119.26 -541.49,-249.4 4.97,-130.15 255.48,-229.49 559.5,-221.91zm1853.95 467.83c-303.92,-26.64 -538.43,-151.63 -523.75,-279.12 14.64,-127.51 272.92,-209.27 576.83,-182.61 303.93,26.64 538.43,151.63 523.75,279.12 -14.64,127.51 -272.92,209.27 -576.83,182.61zm-3428.54 -1728.43l234.41 2119.99 4906.28 0 -1126.84 -2119.99 -4013.85 0zm1851.24 647.8c-4.65,130.15 -237.78,229.5 -520.77,221.91 -282.94,-7.59 -508.59,-119.26 -503.96,-249.4 4.65,-130.14 237.78,-229.49 520.77,-221.91 282.94,7.6 508.58,119.27 503.96,249.4zm1233.15 238.05c-282.34,-21.19 -502.72,-148.08 -492.23,-283.4 10.49,-135.32 247.87,-227.85 530.21,-206.68 282.33,21.19 502.72,148.08 492.22,283.4 -10.48,135.32 -247.86,227.85 -530.2,206.68z"/>
      <path class="fil18" d="M5755.63 13175.31c-382.4,28.97 -703.3,-56.59 -716.74,-191.11 -13.45,-134.51 285.65,-267.05 668.04,-296.02 382.4,-28.98 703.3,56.58 716.74,191.1 13.45,134.51 -285.65,267.05 -668.04,296.03zm-2308.32 0.93c-382.39,28.97 -703.29,-56.58 -716.73,-191.09 -13.45,-134.52 285.65,-267.06 668.04,-296.04 382.41,-28.97 703.31,56.59 716.76,191.11 13.43,134.51 -285.66,267.05 -668.07,296.02zm-1355.1 -870.4l-1165.95 2107.55 6290.24 0 244.55 -2101.38 -5368.84 -6.17zm235.2 1547.46c-14.03,-134.51 298.01,-267.05 696.97,-296.03 398.95,-28.97 733.75,56.59 747.78,191.11 14.02,134.5 -298.02,267.05 -696.98,296.02 -398.95,28.97 -733.75,-56.58 -747.77,-191.1zm2481.05 -5.83c-13.32,-134.58 298.38,-265.6 696.18,-292.63 397.81,-27.02 731.12,60.15 744.44,194.74 13.32,134.57 -298.38,265.59 -696.18,292.63 -397.81,27.02 -731.12,-60.16 -744.44,-194.74z"/>
      <path class="fil19" d="M15474.49 13758.65c7.59,-145.01 319.42,-246.56 696.48,-226.79 377.06,19.76 676.56,153.34 668.97,298.36 -7.61,145 -319.43,246.55 -696.49,226.79 -377.06,-19.76 -676.56,-153.35 -668.96,-298.36zm-1797.89 -243.75c395.91,3.91 715.68,124.8 714.24,270.01 -1.43,145.2 -323.52,259.74 -719.43,255.84 -395.93,-3.9 -715.7,-124.8 -714.25,-269.99 1.43,-145.22 323.51,-259.76 719.44,-255.86zm-891.08 -595.09c0,-145.22 306.08,-262.95 683.68,-262.95 377.56,0 683.64,117.73 683.64,262.95 0,145.2 -306.08,262.93 -683.64,262.93 -377.6,0 -683.68,-117.73 -683.68,-262.93zm4329.99 -616.51l-5388.49 0 231.35 2113.13 6302.42 0 -1145.28 -2113.13zm-1994.42 596.05c5.32,-145.12 315.52,-251.55 692.85,-237.71 377.33,13.84 678.88,142.71 673.56,287.82 -5.32,145.11 -315.51,251.54 -692.84,237.7 -377.33,-13.83 -678.89,-142.71 -673.57,-287.81z"/>
      <g>
       <g>
        <path class="fil13" d="M4548.58 9783.33c-301.5,35.18 -528.92,177.7 -507.95,318.34 20.96,140.63 282.39,226.12 583.89,190.96 301.52,-35.18 528.94,-177.7 507.95,-318.34 -20.95,-140.63 -282.39,-226.12 -583.89,-190.96z"/>
        <path class="fil13" d="M4413.85 9238.2c19.93,140.65 268.51,226.14 555.2,190.98 286.71,-35.17 502.95,-177.71 482.99,-318.34 -19.94,-140.63 -268.54,-226.12 -555.21,-190.96 -286.68,35.16 -502.92,177.71 -482.98,318.32z"/>
        <path class="fil13" d="M6664.46 8920.78c-282.17,35.17 -495,177.69 -475.39,318.33 19.63,140.63 264.28,226.13 546.45,190.96 282.19,-35.18 495.02,-177.69 475.39,-318.34 -19.63,-140.63 -264.28,-226.12 -546.45,-190.95z"/>
        <path class="fil13" d="M6443.67 9796.34c-299.76,33.31 -525.86,168.24 -505.01,301.41 20.84,133.16 280.75,214.1 580.5,180.8 299.78,-33.31 525.88,-168.24 505.02,-301.41 -20.85,-133.16 -280.75,-214.1 -580.51,-180.8z"/>
       </g>
       <g>
        <path class="fil14" d="M12011.45 9162.55c-4.63,130.14 221.02,241.81 503.96,249.4 282.99,7.59 516.12,-91.76 520.77,-221.91 4.62,-130.13 -221.02,-241.8 -503.96,-249.4 -282.99,-7.58 -516.12,91.77 -520.77,221.91z"/>
        <path class="fil14" d="M13777.1 9144.69c-10.49,135.32 209.89,262.21 492.23,283.4 282.34,21.17 519.72,-71.36 530.2,-206.68 10.5,-135.32 -209.89,-262.21 -492.22,-283.4 -282.34,-21.17 -519.72,71.36 -530.21,206.68z"/>
        <path class="fil14" d="M13301.02 10052.24c4.99,-130.13 -237.46,-241.81 -541.49,-249.4 -304.02,-7.58 -554.53,91.76 -559.5,221.91 -4.99,130.14 237.46,241.81 541.49,249.4 304.02,7.58 554.53,-91.76 559.5,-221.91z"/>
        <path class="fil14" d="M14089.73 9991.55c-14.68,127.49 219.83,252.48 523.75,279.12 303.91,26.66 562.19,-55.1 576.83,-182.61 14.68,-127.49 -219.82,-252.48 -523.75,-279.12 -303.91,-26.66 -562.19,55.1 -576.83,182.61z"/>
       </g>
       <g>
        <path class="fil12" d="M2730.58 12985.15c13.44,134.51 334.34,220.06 716.73,191.09 382.41,-28.97 681.5,-161.51 668.07,-296.02 -13.45,-134.52 -334.35,-220.08 -716.76,-191.11 -382.39,28.98 -681.49,161.52 -668.04,296.04z"/>
        <path class="fil12" d="M3024.38 13557.27c-398.96,28.98 -711,161.52 -696.97,296.03 14.02,134.52 348.82,220.07 747.77,191.1 398.96,-28.97 711,-161.52 696.98,-296.02 -14.03,-134.52 -348.83,-220.08 -747.78,-191.11z"/>
        <path class="fil12" d="M5504.64 13554.84c-397.8,27.03 -709.5,158.05 -696.18,292.63 13.32,134.58 346.63,221.76 744.44,194.74 397.8,-27.04 709.5,-158.06 696.18,-292.63 -13.32,-134.59 -346.63,-221.76 -744.44,-194.74z"/>
        <path class="fil12" d="M5038.89 12984.2c13.44,134.52 334.34,220.08 716.74,191.11 382.39,-28.98 681.49,-161.52 668.04,-296.03 -13.44,-134.52 -334.34,-220.08 -716.74,-191.1 -382.39,28.97 -681.49,161.51 -668.04,296.02z"/>
       </g>
       <g>
        <path class="fil15" d="M12785.52 12919.81c0,145.2 306.08,262.93 683.68,262.93 377.56,0 683.64,-117.73 683.64,-262.93 0,-145.22 -306.08,-262.95 -683.64,-262.95 -377.6,0 -683.68,117.73 -683.68,262.95z"/>
        <path class="fil15" d="M13676.6 13514.9c-395.93,-3.9 -718.01,110.64 -719.44,255.86 -1.45,145.19 318.32,266.09 714.25,269.99 395.91,3.9 718,-110.64 719.43,-255.84 1.44,-145.21 -318.33,-266.1 -714.24,-270.01z"/>
        <path class="fil15" d="M15121.09 12899.35c-5.32,145.1 296.24,273.98 673.57,287.81 377.33,13.84 687.52,-92.59 692.84,-237.7 5.32,-145.11 -296.23,-273.98 -673.56,-287.82 -377.33,-13.84 -687.53,92.59 -692.85,237.71z"/>
        <path class="fil15" d="M16170.97 13531.86c-377.06,-19.77 -688.89,81.78 -696.48,226.79 -7.6,145.01 291.9,278.6 668.96,298.36 377.06,19.76 688.88,-81.79 696.49,-226.79 7.59,-145.02 -291.91,-278.6 -668.97,-298.36z"/>
       </g>
      </g>
      <polygon class="fil17 str0" points="9607,11455.04 11062.45,10842.38 8159.35,10851.22 "/>
      <polygon class="fil16 str0" points="9607,11455.04 8159.35,10851.22 8008.51,12127.91 "/>
      <polygon class="fil20 str0" points="9607,11455.04 8008.51,12127.91 11203.94,12121.15 "/>
      <polygon class="fil19 str0" points="9607,11455.04 11203.94,12121.15 11062.45,10842.38 "/>
      <line class="fil3 str1" x1="9077.59" y1="12125.64" x2="8990.83" y2= "14598.58" />
      <line class="fil3 str1" x1="10127.94" y1="12123.42" x2="10200.2" y2= "14598.58" />
      <line class="fil3 str1" x1="7962.61" y1="12522.38" x2="11248.16" y2= "12525.04" />
      <line class="fil3 str1" x1="7916.24" y1="12920.82" x2="11291.99" y2= "12925.45" />
      <line class="fil3 str1" x1="7864.75" y1="13363.24" x2="11339.56" y2= "13359.86" />
      <line class="fil3 str1" x1="7818.69" y1="13772.43" x2="11383.43" y2= "13773.97" />
      <line class="fil3 str1" x1="7769.12" y1="14185.15" x2="11428.71" y2= "14174.23" />
      <line class="fil3 str1" x1="8008.51" y1="12127.91" x2="11203.94" y2= "12121.15" />
      <polygon class="fil18 str1" points="10127.94,12123.42 9077.59,12125.64 9063.65,12523.28 10139.64,12524.15 "/>
      <polygon class="fil18 str1" points="10139.64,12524.15 9063.65,12523.28 9049.63,12922.38 10151.31,12923.89 "/>
      <polygon class="fil18 str1" points="10151.31,12923.89 9049.63,12922.38 9034.22,13362.1 10164.08,13361.01 "/>
      <polygon class="fil18 str1" points="10164.08,13361.01 9034.22,13362.1 9019.79,13772.95 10176.11,13773.45 "/>
      <polygon class="fil18 str1" points="10176.11,13773.45 9019.79,13772.95 9005.47,14181.46 10187.92,14177.93 "/>
      <line class="fil3 str1" x1="8390.13" y1="8788.02" x2="10835.09" y2= "8786.26" />
      <line class="fil3 str1" x1="8344.81" y1="9193.19" x2="10879.95" y2= "9191.96" />
      <line class="fil3 str1" x1="8297.66" y1="9614.72" x2="10925.33" y2= "9602.24" />
      <line class="fil3 str1" x1="8250.05" y1="10040.35" x2="10972.87" y2= "10032.32" />
      <line class="fil3 str1" x1="8206.33" y1="10431.27" x2="11017.98" y2= "10440.31" />
      <line class="fil3 str1" x1="8159.35" y1="10851.22" x2="11062.45" y2= "10842.38" />
      <line class="fil3 str1" x1="9217.55" y1="8370.71" x2="9135.63" y2= "10848.24" />
      <line class="fil3 str1" x1="9988.66" y1="8369.66" x2="10075.43" y2= "10845.38" />
      <polygon class="fil17 str1" points="9190.37,9192.77 10017.5,9192.37 10003.28,8786.86 9203.77,8787.43 "/>
      <polygon class="fil17 str1" points="10017.5,9192.37 9190.37,9192.77 9176.56,9610.55 10032,9606.48 "/>
      <polygon class="fil17 str1" points="10032,9606.48 9176.56,9610.55 9162.44,10037.67 10047.03,10035.05 "/>
      <polygon class="fil17 str1" points="10047.03,10035.05 9162.44,10037.67 9149.32,10434.3 10061.12,10437.23 "/>
      <polygon class="fil17 str1" points="10061.12,10437.23 9149.32,10434.3 9135.63,10848.25 10075.43,10845.38 "/>
      <polygon class="fil14 str1" points="10017.5,9192.37 10879.96,9191.96 10835.09,8786.26 10003.28,8786.86 "/>
      <line class="fil3 str1" x1="11062.45" y1="10842.38" x2="11203.94" y2= "12121.15" />
      <line class="fil3 str1" x1="12018.15" y1="10842.65" x2="12224.15" y2= "12121.15" />
      <line class="fil3 str1" x1="12971.99" y1="10842.92" x2="13301.57" y2= "12121.15" />
      <line class="fil3 str1" x1="13945.87" y1="10843.18" x2="14362.65" y2= "12121.15" />
      <line class="fil3 str1" x1="14908.17" y1="10843.45" x2="15418.37" y2= "12121.15" />
      <line class="fil3 str1" x1="15868.34" y1="10843.72" x2="16473.61" y2= "12121.15" />
      <line class="fil3 str1" x1="11111.26" y1="11283.46" x2="17068.25" y2= "11284.91" />
      <line class="fil3 str1" x1="11156.25" y1="11690.15" x2="17287.38" y2= "11689.26" />
      <polygon class="fil19 str1" points="12154.68,11690 12089.21,11283.7 11111.26,11283.46 11156.25,11690.15 "/>
      <polygon class="fil19 str1" points="12089.21,11283.7 12154.68,11690 13190.37,11689.86 13085.7,11283.94 "/>
      <polygon class="fil19 str1" points="13085.7,11283.94 13190.37,11689.86 14221.94,11689.7 14089.69,11284.18 "/>
      <polygon class="fil19 str1" points="14089.69,11284.18 14221.94,11689.7 15246.03,11689.55 15084.26,11284.42 "/>
      <polygon class="fil19 str1" points="15084.26,11284.42 15246.03,11689.55 16269.04,11689.4 16077.27,11284.66 "/>
      <polygon class="fil15 str1" points="16269.04,11689.4 15246.03,11689.55 15418.37,12121.15 16473.61,12121.15 "/>
      <line class="fil3 str1" x1="8159.35" y1="10851.22" x2="8008.51" y2= "12127.91" />
      <line class="fil3 str1" x1="7199.48" y1="10850.3" x2="6973.5" y2= "12126.71" />
      <line class="fil3 str1" x1="6233.6" y1="10849.36" x2="5916.5" y2= "12125.49" />
      <line class="fil3 str1" x1="5280.43" y1="10848.45" x2="4852.34" y2= "12124.28" />
      <line class="fil3 str1" x1="4312.78" y1="10847.53" x2="3791.56" y2= "12123.05" />
      <line class="fil3 str1" x1="3332.29" y1="10846.58" x2="2738.2" y2= "12121.83" />
      <line class="fil3 str1" x1="2159.97" y1="11282.26" x2="8108.87" y2= "11278.53" />
      <line class="fil3 str1" x1="1931.53" y1="11695.18" x2="8061.29" y2= "11681.25" />
      <polygon class="fil16 str1" points="3968.29,11690.55 4135.63,11281.01 3129.61,11281.66 2938.02,11692.89 "/>
      <polygon class="fil16 str1" points="4135.63,11281.01 3968.29,11690.55 4998.66,11688.21 5135.49,11280.39 "/>
      <polygon class="fil16 str1" points="5135.49,11280.39 4998.66,11688.21 6025.74,11685.87 6126.64,11279.77 "/>
      <polygon class="fil16 str1" points="6126.64,11279.77 6025.74,11685.87 7051.96,11683.55 7123.56,11279.14 "/>
      <polygon class="fil16 str1" points="7123.56,11279.14 7051.96,11683.55 8061.29,11681.25 8108.87,11278.53 "/>
      <polygon class="fil13 str1" points="4135.65,11281.01 4312.78,10847.53 3332.29,10846.58 3129.61,11281.66 "/>
      <g>
       <path class="fil12" d="M9378.22 11974.34c0,-8.7 0.5,-21.79 1.51,-39.23 1,-17.44 1.5,-30.49 1.5,-39.11 0,-1.81 -1.56,-2.73 -4.74,-2.73 -3.24,0 -8.15,0.11 -14.63,0.34 -6.47,0.23 -11.28,0.35 -14.46,0.35 -3.24,0 -8.15,-0.12 -14.62,-0.35 -6.48,-0.23 -11.28,-0.34 -14.46,-0.34 -2.74,0 -4.08,1.19 -4.08,3.5 0,5.51 0.39,13.71 1.17,24.64 0.79,10.93 1.18,19.13 1.18,24.52 0,2.66 -1.29,4.2 -3.91,4.66 -3.74,0.58 -17.25,0.88 -40.59,0.88 -25.06,0 -39.02,-0.3 -41.81,-0.88 -2.07,-0.46 -3.13,-2 -3.13,-4.66 0,-5.62 0.56,-14.05 1.68,-25.29 1.11,-11.24 1.67,-19.67 1.67,-25.33 0,-1.35 -0.95,-2.04 -2.79,-2.04 -3.46,0 -8.71,0.11 -15.74,0.34 -7.04,0.23 -12.28,0.35 -15.8,0.35 -3.35,0 -8.49,-0.12 -15.3,-0.35 -6.81,-0.23 -11.89,-0.34 -15.24,-0.34 -2.29,0 -3.46,0.84 -3.46,2.5 0,8.7 0.56,21.83 1.68,39.31 1.11,17.47 1.67,30.56 1.67,39.26 0,8.2 -0.56,20.52 -1.67,36.88 -1.12,16.4 -1.68,28.64 -1.68,36.77 0,1.96 1.56,3.12 4.75,3.5 4.02,0.46 13.4,0.69 28.08,0.69 17.03,0 27.24,-0.23 30.76,-0.69 2.96,-0.38 4.41,-1.69 4.41,-3.96 0,-5.86 -0.28,-14.63 -0.84,-26.34 -0.56,-11.66 -0.84,-20.44 -0.84,-26.33 0,-3 1.23,-4.7 3.63,-5.08 3.8,-0.58 17.08,-0.89 39.92,-0.89 22.72,0 35.89,0.31 39.63,0.89 2.4,0.46 3.58,2.15 3.58,5.08 0,5.97 -0.39,14.86 -1.18,26.8 -0.78,11.93 -1.17,20.86 -1.17,26.79 0,1.58 1.51,2.58 4.47,3.04 3.01,0.46 13.06,0.69 30.09,0.69 12.11,0 21.44,-0.23 28.08,-0.69 2.62,-0.15 4.13,-0.35 4.58,-0.58 0.95,-0.34 1.45,-1.34 1.45,-2.92 0,-8.13 -0.56,-20.37 -1.68,-36.77 -1.11,-16.36 -1.67,-28.68 -1.67,-36.88z"/>
       <path class="fil12" d="M9405.74 11972.53c0,23.33 10.89,42.89 32.71,58.75 22.22,16.25 50.19,24.37 83.86,24.37 33.88,0 61.91,-8.05 84.01,-24.14 21.72,-15.86 32.55,-35.49 32.55,-58.98 0,-23.21 -10.94,-42.88 -32.88,-58.94 -22.33,-16.32 -50.24,-24.48 -83.68,-24.48 -33.67,0 -61.64,8.16 -83.86,24.48 -21.82,15.94 -32.71,35.57 -32.71,58.94zm116.57 40.85c-16.47,0 -29.82,-4.04 -40.03,-12.09 -9.71,-7.66 -14.57,-17.25 -14.57,-28.76 0,-10.74 5.19,-20.25 15.52,-28.52 10.66,-8.59 23.72,-12.86 39.08,-12.86 16.13,0 29.36,4.12 39.74,12.39 9.89,7.9 14.85,17.48 14.85,28.76 0,10.78 -5.13,20.21 -15.35,28.34 -10.77,8.5 -23.89,12.74 -39.24,12.74z"/>
       <path class="fil12" d="M9665 11925.3c1.12,23.98 1.67,40.34 1.67,49.04 0,8.2 -0.55,20.52 -1.67,36.96 -1.12,16.4 -1.68,28.72 -1.68,36.92 0,1.19 0.23,2.04 0.73,2.54 0.5,0.5 1.84,0.73 4.02,0.73l54.65 0c3.07,0 4.58,-1.31 4.58,-3.93 0,-7.39 -0.28,-18.44 -0.84,-33.18 -0.55,-14.71 -0.83,-25.76 -0.83,-33.15 0,-1.5 0.39,-2.58 1.11,-3.27 0.78,0.46 1.29,0.89 1.51,1.23 5.14,7.47 12.84,19.52 23.17,36.19 9.6,15.78 17.36,27.79 23.28,36.03 1.11,1.5 4.46,2.27 10.04,2.27 3.8,0 5.98,-0.03 6.54,-0.11 1.62,-0.31 2.96,-1.31 4.02,-3 7.87,-13.29 15.74,-26.57 23.61,-39.93 13.4,-22.75 20.71,-34.33 21.94,-34.76 1.12,0.12 1.68,1.31 1.68,3.47 0,7.58 -0.39,18.94 -1.18,34.1 -0.78,15.17 -1.17,26.53 -1.17,34.11 0,2.62 1.57,3.93 4.75,3.93l57.83 0c3.18,0 4.75,-1.15 4.75,-3.5 0,-8.13 -0.51,-20.37 -1.51,-36.77 -1,-16.4 -1.51,-28.68 -1.51,-36.88 0,-8.85 0.45,-22.13 1.34,-39.77 0.9,-17.63 1.34,-30.87 1.34,-39.72 0,-1.81 -1.62,-2.74 -4.91,-2.74 -2.68,0 -6.87,0.2 -12.45,0.58 -5.64,0.39 -9.77,0.58 -12.51,0.58 -3.29,0 -8.09,-0.12 -14.45,-0.35 -6.37,-0.23 -11.11,-0.35 -14.3,-0.35 -2.17,0 -4.18,1.47 -6.08,4.39 -21.6,31.84 -37.96,55.63 -49.02,71.41 -3.9,5.62 -6.47,8.47 -7.7,8.47 -2.29,0 -5.14,-2.46 -8.54,-7.35l-47.84 -72.18c-2.18,-3.16 -3.85,-4.74 -5.08,-4.74 -6.03,0 -15.02,0.12 -27.02,0.35 -12.06,0.23 -21.05,0.35 -27.08,0.35 -4.69,0 -6.98,0.77 -6.87,2.27l0.17 1.89c0.9,12.35 1.4,21.63 1.51,27.87z"/>
       <path class="fil12" d="M9940.95 11972.34c0,8.43 -0.67,21.06 -2.01,37.92 -1.34,16.9 -2.01,29.53 -2.01,37.96 0,2.19 1.78,3.27 5.41,3.27 8.26,0 20.71,0.04 37.3,0.11 16.58,0.08 29.03,0.12 37.45,0.12 38.47,0 61.69,0.39 69.62,1.12 2.29,0.23 3.96,0.34 4.91,0.34 2.29,0 4.13,-0.73 5.42,-2.15 1.5,-1.77 3.29,-7.39 5.25,-16.75 1.84,-8.62 2.79,-14.55 2.79,-17.78 0,-2.7 -1.18,-4.05 -3.58,-4.05 -5.69,0 -14.23,0.35 -25.62,1.04 -11.45,0.7 -20.04,1.04 -25.79,1.04 -16.19,0 -24.12,0 -23.9,0 -12.11,-0.54 -19.09,-2.23 -20.99,-5.08 -1.06,-1.65 -1.62,-5.35 -1.62,-11.05 0,-4.31 0.06,-6.66 0.17,-7 0.78,-1.51 3.41,-2.28 7.87,-2.28l17.37 0c22.1,0 36.34,0.24 42.54,0.7 9.82,0.73 14.73,1.11 14.73,1.11 3.19,0 4.75,-0.77 4.75,-2.27 0,-6 0.45,-12.01 1.34,-18.01 1.99,-13.01 3,-18.79 3.01,-17.32 -0.01,-1.71 -1.3,-2.55 -3.9,-2.55 -2.24,0 -5.14,0.16 -8.88,0.43 -4.8,0.3 -7.82,0.5 -8.99,0.57 -14.12,0.5 -28.03,0.73 -41.81,0.73 -2.07,0 -4.69,0.08 -7.88,0.2 -3.18,0.11 -5.3,0.15 -6.36,0.15 -5.25,0 -8.82,-0.73 -10.66,-2.16 -2.18,-1.65 -3.3,-5 -3.3,-10.12 0,-4.89 0.28,-7.78 0.84,-8.7 1.29,-1.89 4.86,-2.81 10.61,-2.81 23.17,0 49.24,0.81 78.32,2.43 1.62,0.07 2.79,0.11 3.41,0.11 2.18,0 3.29,-0.77 3.29,-2.35 0,-1.88 -0.56,-7.2 -1.73,-15.9 -1.17,-8.74 -2.06,-13.97 -2.62,-15.7 -0.9,-2.89 -4.13,-4.35 -9.83,-4.35 -7.98,0 -19.98,0.11 -36,0.42 -16.03,0.31 -28.03,0.46 -36.01,0.46 -8.1,0 -20.21,-0.15 -36.4,-0.46 -16.25,-0.31 -28.36,-0.42 -36.46,-0.42 -2.9,0 -4.29,0.84 -4.07,2.58l0.17 1.57c0.89,11.94 1.5,20.95 1.84,26.95 1.34,23.37 2.01,39.35 2.01,47.93z"/>
      </g>
      <g>
       <path class="fil14" d="M9682.97 10931.67c-22.39,17.26 -33.56,38.62 -33.56,64.17 0,25.26 11.29,46.66 33.91,64.13 23.03,17.76 51.81,26.64 86.3,26.64 34.71,0 63.55,-8.88 86.47,-26.64 22.51,-17.34 33.73,-38.7 33.73,-64.13 0,-25.38 -11.22,-46.66 -33.73,-63.92 -22.92,-17.68 -51.76,-26.51 -86.47,-26.51 -34.95,0 -63.85,8.75 -86.65,26.26zm30.34 64.42c0,-11.73 5.3,-21.99 15.83,-30.83 11.12,-9.25 24.65,-13.86 40.48,-13.86 16.98,0 30.74,4.4 41.28,13.15 10.01,8.34 15.02,18.77 15.02,31.29 0,11.69 -5.35,22.03 -16,31.04 -11,9.34 -24.47,13.99 -40.3,13.99 -16.64,0 -30.28,-4.48 -40.99,-13.49 -10.19,-8.58 -15.32,-19.01 -15.32,-31.29z"/>
       <path class="fil14" d="M9916.48 10953.75c1.15,17.8 1.73,31.2 1.73,40.12 0,9.47 -0.52,23.71 -1.56,42.69 -1.03,18.97 -1.55,33.17 -1.55,42.55 0,1.97 1.61,2.98 4.89,2.98 3.34,0 8.41,-0.13 15.09,-0.38 6.67,-0.25 11.63,-0.38 14.91,-0.38 3.34,0 8.4,0.13 15.08,0.38 6.68,0.25 11.63,0.38 14.91,0.38 2.82,0 4.2,-1.3 4.2,-3.81 0,-5.99 -0.4,-14.92 -1.21,-26.81 -0.8,-11.9 -1.2,-20.82 -1.2,-26.68 0,-2.89 1.32,-4.57 4.03,-5.07 3.85,-0.63 17.78,-0.97 41.85,-0.97 25.85,0 40.24,0.34 43.12,0.97 2.13,0.5 3.22,2.18 3.22,5.07 0,6.11 -0.57,15.28 -1.72,27.52 -1.16,12.23 -1.73,21.4 -1.73,27.56 0,1.46 0.98,2.22 2.88,2.22 3.57,0 8.98,-0.13 16.23,-0.38 7.26,-0.25 12.67,-0.38 16.29,-0.38 3.46,0 8.75,0.13 15.78,0.38 7.02,0.25 12.26,0.38 15.71,0.38 2.37,0 3.58,-0.92 3.58,-2.73 0,-9.46 -0.58,-23.75 -1.73,-42.76 -1.15,-19.02 -1.73,-33.26 -1.73,-42.73 0,-8.92 0.58,-22.32 1.73,-40.12 1.15,-17.85 1.73,-31.17 1.73,-40.01 0,-2.13 -1.62,-3.39 -4.9,-3.81 -4.14,-0.5 -13.82,-0.75 -28.96,-0.75 -17.56,0 -28.09,0.25 -31.72,0.75 -3.05,0.42 -4.55,1.84 -4.55,4.31 0,6.37 0.29,15.92 0.87,28.66 0.57,12.69 0.86,22.24 0.86,28.65 0,3.26 -1.27,5.11 -3.74,5.53 -3.92,0.62 -17.62,0.96 -41.16,0.96 -23.44,0 -37.02,-0.34 -40.88,-0.96 -2.47,-0.51 -3.68,-2.35 -3.68,-5.53 0,-6.5 0.4,-16.17 1.21,-29.16 0.8,-12.98 1.21,-22.7 1.21,-29.15 0,-1.72 -1.56,-2.81 -4.61,-3.31 -3.11,-0.5 -13.47,-0.75 -31.03,-0.75 -12.49,0 -22.11,0.25 -28.96,0.75 -2.7,0.17 -4.26,0.38 -4.72,0.63 -0.98,0.38 -1.5,1.46 -1.5,3.18 0,8.84 0.58,22.16 1.73,40.01z"/>
       <path class="fil14" d="M9622.47 11047.24c-1.16,-26.1 -1.73,-43.9 -1.73,-53.37 0,-8.92 0.57,-22.32 1.73,-40.21 1.15,-17.84 1.72,-31.25 1.72,-40.17 0,-1.3 -0.23,-2.22 -0.74,-2.76 -0.52,-0.55 -1.91,-0.8 -4.15,-0.8l-56.36 0c-3.17,0 -4.72,1.42 -4.72,4.27 0,8.04 0.29,20.07 0.86,36.11 0.58,16 0.87,28.02 0.87,36.06 0,1.64 -0.41,2.81 -1.16,3.57 -0.8,-0.51 -1.32,-0.97 -1.55,-1.35 -5.3,-8.12 -13.24,-21.23 -23.89,-39.37 -9.9,-17.17 -17.91,-30.24 -24.01,-39.21 -1.15,-1.63 -4.6,-2.47 -10.36,-2.47 -3.92,0 -6.16,0.04 -6.74,0.13 -1.67,0.33 -3.05,1.42 -4.14,3.27 -8.12,14.45 -16.24,28.9 -24.36,43.43 -13.81,24.76 -21.35,37.37 -22.62,37.83 -1.15,-0.13 -1.73,-1.43 -1.73,-3.77 0,-8.25 0.41,-20.61 1.21,-37.11 0.81,-16.51 1.21,-28.87 1.21,-37.12 0,-2.85 -1.61,-4.27 -4.89,-4.27l-59.65 0c-3.28,0 -4.89,1.26 -4.89,3.81 0,8.84 0.52,22.16 1.56,40.01 1.03,17.84 1.55,31.2 1.55,40.12 0,9.64 -0.46,24.09 -1.38,43.27 -0.92,19.19 -1.38,33.6 -1.38,43.23 0,1.97 1.67,2.97 5.06,2.97 2.77,0 7.08,-0.21 12.84,-0.62 5.81,-0.42 10.08,-0.63 12.9,-0.63 3.39,0 8.34,0.12 14.91,0.37 6.56,0.26 11.45,0.38 14.74,0.38 2.24,0 4.31,-1.59 6.27,-4.77 22.28,-34.65 39.15,-60.53 50.55,-77.7 4.03,-6.12 6.68,-9.22 7.94,-9.22 2.36,0 5.3,2.68 8.81,8l49.34 78.54c2.24,3.43 3.97,5.15 5.24,5.15 6.21,0 15.48,-0.12 27.86,-0.38 12.44,-0.25 21.71,-0.37 27.92,-0.37 4.84,0 7.2,-0.84 7.08,-2.47l-0.17 -2.06c-0.92,-13.44 -1.44,-23.54 -1.55,-30.32z"/>
       <path class="fil14" d="M9341.87 11077.52c-0.92,-12.98 -1.56,-22.78 -1.9,-29.32 -1.38,-25.43 -2.07,-42.81 -2.07,-52.15 0,-9.17 0.69,-22.91 2.07,-41.26 1.38,-18.39 2.07,-32.13 2.07,-41.3 0,-2.39 -1.84,-3.56 -5.58,-3.56 -8.52,0 -21.36,-0.04 -38.46,-0.12 -17.1,-0.09 -29.94,-0.13 -38.63,-0.13 -39.67,0 -63.61,-0.42 -71.79,-1.22 -2.36,-0.25 -4.09,-0.37 -5.07,-0.37 -2.36,0 -4.26,0.79 -5.58,2.34 -1.55,1.93 -3.4,8.04 -5.41,18.22 -1.9,9.39 -2.88,15.84 -2.88,19.36 0,2.93 1.21,4.39 3.68,4.39 5.88,0 14.68,-0.37 26.43,-1.13 11.8,-0.75 20.67,-1.13 26.6,-1.13 16.69,0 24.87,0 24.64,0 12.49,0.59 19.68,2.43 21.64,5.53 1.1,1.8 1.67,5.82 1.67,12.02 0,4.69 -0.06,7.25 -0.17,7.63 -0.81,1.63 -3.51,2.47 -8.12,2.47l-17.9 0c-22.8,0 -37.48,-0.25 -43.87,-0.76 -10.13,-0.79 -15.2,-1.21 -15.2,-1.21 -3.28,0 -4.89,0.84 -4.89,2.47 0,6.54 -0.46,13.07 -1.39,19.6 -2.05,14.15 -3.09,20.44 -3.1,18.84 0.01,1.87 1.33,2.78 4.03,2.78 2.3,0 5.29,-0.17 9.15,-0.46 4.95,-0.34 8.06,-0.55 9.27,-0.63 14.56,-0.55 28.9,-0.8 43.12,-0.8 2.13,0 4.83,-0.08 8.12,-0.21 3.28,-0.12 5.47,-0.16 6.56,-0.16 5.41,0 9.1,0.79 11,2.34 2.24,1.8 3.39,5.45 3.39,11.02 0,5.32 -0.29,8.46 -0.86,9.46 -1.32,2.06 -5.01,3.06 -10.94,3.06 -23.89,0 -50.78,-0.88 -80.77,-2.64 -1.67,-0.08 -2.88,-0.12 -3.51,-0.12 -2.25,0 -3.4,0.84 -3.4,2.55 0,2.06 0.58,7.84 1.79,17.3 1.2,9.51 2.12,15.21 2.7,17.09 0.92,3.14 4.26,4.74 10.13,4.74 8.24,0 20.61,-0.13 37.14,-0.46 16.52,-0.34 28.9,-0.51 37.13,-0.51 8.35,0 20.84,0.17 37.53,0.51 16.76,0.33 29.25,0.46 37.6,0.46 2.99,0 4.43,-0.93 4.2,-2.81l-0.17 -1.72z"/>
      </g>
      <g>
       <path class="fil15" d="M10873.91 11130.84c-10.26,-0.87 -20.55,-2.08 -30.88,-3.61 -22.36,-3.37 -32.32,-4.96 -29.81,-4.75 -2.93,-0.24 -4.25,0.59 -4.04,2.51 0.18,1.65 0.68,3.82 1.44,6.62 0.92,3.59 1.49,5.84 1.72,6.72 2,10.5 3.52,20.8 4.64,30.98 0.16,1.52 0.51,3.47 0.96,5.84 0.46,2.36 0.7,3.93 0.78,4.72 0.43,3.87 -0.53,6.4 -2.82,7.55 -2.65,1.37 -8.27,1.71 -17.02,0.96 -8.35,-0.71 -13.3,-1.34 -14.92,-1.89 -3.33,-1.22 -5.19,-3.99 -5.66,-8.24 -1.88,-17.1 -2.61,-36.23 -2.21,-57.47 0,-1.18 -0.03,-2.04 -0.08,-2.5 -0.17,-1.6 -1.58,-2.54 -4.27,-2.77 -3.23,-0.28 -12.25,-0.64 -27.01,-1.04 -14.83,-0.41 -23.7,-0.51 -26.61,-0.35 -4.86,0.24 -7.1,2.41 -6.64,6.62 0.65,5.89 1.82,14.77 3.64,26.64 1.83,11.88 3.07,20.76 3.71,26.65 0.66,5.98 1.38,14.9 2.16,26.81 0.79,11.95 1.58,20.88 2.24,26.85 0.23,2.15 1.79,3.3 4.73,3.39l2.68 0.1c20.31,1.08 35.64,1.94 45.87,2.57 39.8,2.42 67.03,4.25 81.68,5.5 14.4,1.23 36.02,3.57 64.92,7.02 28.97,3.45 50.59,5.78 64.99,7.01 3.74,0.32 5.44,-0.84 5.14,-3.52 -0.67,-6.1 -1.61,-15.28 -2.82,-27.52 -1.21,-12.22 -2.16,-21.41 -2.84,-27.63 -3.12,-28.4 -4.34,-45.49 -3.74,-51.24 0.21,-1.65 0.27,-2.87 0.2,-3.57 -0.19,-1.69 -1.59,-3.16 -4.12,-4.32 -3.15,-1.37 -12.89,-3.51 -29.03,-6.31 -14.87,-2.62 -25.07,-4.18 -30.59,-4.66 -4.61,-0.39 -6.81,0.28 -6.62,2.05 0.46,4.21 1.75,10.56 3.85,19.07 2.12,8.55 3.4,14.95 3.87,19.2 1.31,11.95 1.95,17.8 1.94,17.64 0.06,8.86 -2.27,13.77 -6.98,14.75 -2.74,0.54 -9.01,0.42 -18.74,-0.41 -7.36,-0.63 -11.37,-1.01 -11.97,-1.15 -2.63,-0.79 -4.16,-2.84 -4.52,-6.14l-1.41 -12.82c-1.79,-16.32 -2.55,-26.79 -2.26,-31.3 0.45,-7.15 0.71,-10.72 0.71,-10.72 -0.26,-2.35 -1.7,-3.62 -4.26,-3.84z"/>
       <path class="fil15" d="M10864.57 11266.46c-15.12,-1.29 -37.84,-3.56 -68.02,-6.79 -30.18,-3.23 -52.83,-5.49 -67.95,-6.78 -3.09,-0.26 -4.54,0.8 -4.27,3.23 0.22,1.98 0.88,5.1 1.99,9.28 1.12,4.22 1.78,7.29 2,9.31 0.27,2.44 0.46,5.96 0.59,10.63 0.12,4.66 0.3,8.15 0.56,10.5 0.18,1.61 2.84,3.3 7.99,5.13 56.12,20.59 98.07,36.14 125.92,46.6 9.91,3.7 14.99,6.01 15.09,6.92 0.18,1.69 -3.79,3.43 -11.87,5.24l-119.38 24.8c-5.22,1.14 -7.78,2.15 -7.68,3.06 0.49,4.45 1.42,11.1 2.79,20 1.37,8.93 2.29,15.58 2.78,20.04 0.38,3.46 1.88,5.26 4.44,5.4l3.21 0.15c21.03,1.14 36.83,2.12 47.47,2.95 40.87,2.67 68.76,4.64 83.62,5.91 14,1.2 35.08,3.4 63.24,6.62 28.1,3.22 49.18,5.43 63.18,6.62 2.04,0.18 3.47,0.14 4.28,-0.16 0.82,-0.3 1.1,-1.26 0.93,-2.87l-4.43 -40.34c-0.25,-2.27 -2.61,-3.57 -7.08,-3.96 -12.62,-1.07 -31.47,-2.48 -56.6,-4.22 -25.07,-1.73 -43.91,-3.13 -56.53,-4.21 -2.57,-0.22 -4.44,-0.66 -5.68,-1.3 0.72,-0.51 1.4,-0.82 1.98,-0.93 12.34,-2.71 32.29,-6.64 59.92,-11.83 26.17,-4.79 46.05,-8.77 59.64,-11.94 2.47,-0.6 3.52,-2.96 3.06,-7.09 -0.3,-2.8 -0.54,-4.41 -0.72,-4.83 -0.66,-1.25 -2.48,-2.38 -5.45,-3.41 -23.32,-7.75 -46.64,-15.5 -70.09,-23.25 -39.94,-13.21 -60.32,-20.3 -61.14,-21.27 0.1,-0.81 2.1,-1.05 5.78,-0.73 12.95,1.1 32.37,3.05 58.34,5.84 25.96,2.78 45.39,4.73 58.34,5.83 4.47,0.39 6.58,-0.58 6.32,-2.93l-4.69 -42.7c-0.26,-2.35 -2.35,-3.67 -6.37,-4.01 -13.87,-1.18 -34.73,-2.6 -62.66,-4.25 -27.92,-1.65 -48.85,-3.06 -62.85,-4.26z"/>
       <path class="fil15" d="M10986.36 11494.93c-28.84,-18.35 -63.25,-29.2 -103.35,-32.63 -39.64,-3.38 -72.35,1.83 -97.98,15.69 -26.07,14.1 -37.74,33.52 -35.03,58.21 2.73,24.85 18.93,46.69 48.61,65.48 28.98,18.44 63.39,29.34 103.3,32.74 39.84,3.4 72.35,-1.78 97.66,-15.59 25.95,-14.03 37.55,-33.5 34.82,-58.35 -2.75,-25.02 -18.76,-46.88 -48.03,-65.55zm-49.09 28.55c15.4,9.2 23.69,19.5 24.94,30.84 1.33,12.15 -4.49,21.42 -17.4,27.79 -12.29,6.05 -28.27,8.24 -47.93,6.56 -18.34,-1.56 -35,-6.78 -49.97,-15.62 -15.52,-9.12 -23.88,-19.39 -25.12,-30.72 -1.31,-11.91 4.65,-21.08 17.94,-27.54 12.68,-6.14 28.65,-8.42 47.91,-6.77 18.41,1.57 34.93,6.74 49.63,15.46z"/>
       <path class="fil15" d="M10970.07 11659.14c-27.85,-1.56 -48.84,-2.94 -62.84,-4.14 -14.86,-1.26 -37.25,-3.54 -67.12,-6.83 -29.86,-3.28 -52.18,-5.55 -66.91,-6.81 -3.09,-0.26 -4.54,0.76 -4.28,3.1 0.26,2.39 0.86,6.04 1.78,10.85 0.91,4.82 1.5,8.38 1.76,10.73 0.26,2.39 0.46,6 0.59,10.75 0.14,4.75 0.33,8.27 0.58,10.62 0.22,2.02 2.37,3.18 6.32,3.52 9.4,0.8 23.37,1.71 41.98,2.73 18.6,1.01 32.57,1.92 41.78,2.71 4.53,0.38 7.27,1.56 8.27,3.56 1.29,2.85 2.91,12.86 4.8,30.09 2.03,18.51 2.64,28.77 1.88,30.75 -0.62,1.45 -3.17,2.01 -7.7,1.62 -9.6,-0.82 -24.04,-2.46 -43.33,-4.92 -19.29,-2.46 -33.73,-4.1 -43.39,-4.93 -2.3,-0.19 -3.41,0.4 -3.26,1.77 0.28,2.55 0.9,6.44 1.87,11.67 0.96,5.23 1.58,9.12 1.87,11.71 0.27,2.48 0.49,6.25 0.65,11.25 0.16,4.99 0.37,8.72 0.64,11.2 0.19,1.69 1.73,2.68 4.56,2.92 14.85,1.27 37.22,2.77 66.98,4.49 29.75,1.72 52.06,3.22 66.92,4.49 14,1.19 35.08,3.4 63.11,6.61 28.1,3.22 49.05,5.41 62.92,6.6 3.35,0.28 5.2,-0.7 5.6,-3 0.46,-2.9 0.09,-9.79 -1.1,-20.63 -1.38,-12.57 -2.6,-20.14 -3.67,-22.81 -0.9,-2.24 -3.25,-3.5 -7.13,-3.83 -9.99,-0.86 -24.96,-1.93 -44.9,-3.22 -19.87,-1.29 -34.84,-2.36 -44.9,-3.22 -5.12,-0.44 -8.12,-1.59 -8.97,-3.42 -1.29,-2.89 -2.89,-12.74 -4.75,-29.6 -1.84,-16.78 -2.38,-26.46 -1.7,-29.14 0.6,-1.7 3.39,-2.32 8.39,-1.89 10.19,0.87 25.41,2.45 45.85,4.77 20.44,2.32 35.73,3.91 45.85,4.77 2.7,0.23 4.28,-0.74 4.83,-2.85 0.55,-2.16 0.13,-9.55 -1.25,-22.12 -0.99,-8.94 -2.13,-15.86 -3.46,-20.83 -0.48,-1.96 -0.93,-3.1 -1.36,-3.46 -0.67,-0.76 -2.42,-1.27 -5.11,-1.5 -13.87,-1.19 -34.73,-2.56 -62.65,-4.13z"/>
      </g>
      <g>
       <path class="fil13" d="M8240.23 11871.72c8.92,-1.44 17.81,-2.51 26.65,-3.19 19.13,-1.44 27.63,-1.98 25.45,-1.62 2.54,-0.42 3.91,-1.7 4.15,-3.91 0.22,-1.88 0.26,-4.29 0.22,-7.38 0,-3.98 0,-6.48 0,-7.45 0.59,-11.79 1.57,-23.46 2.89,-35.09 0.19,-1.74 0.33,-3.94 0.46,-6.6 0.13,-2.65 0.27,-4.43 0.37,-5.33 0.5,-4.43 1.93,-7.62 4.22,-9.51 2.67,-2.24 7.75,-3.98 15.36,-5.21 7.27,-1.17 11.53,-1.63 12.85,-1.38 2.68,0.63 3.72,3.42 3.17,8.27 -2.2,19.54 -5.88,41.73 -11.05,66.65 -0.27,1.39 -0.44,2.39 -0.5,2.9 -0.2,1.84 0.84,2.6 3.18,2.22 2.8,-0.45 10.75,-2.2 23.8,-5.28 13.1,-3.08 20.96,-5.09 23.59,-5.98 4.38,-1.45 6.86,-4.53 7.4,-9.33 0.76,-6.74 1.73,-16.83 2.79,-30.28 1.07,-13.44 1.98,-23.53 2.74,-30.26 0.77,-6.83 2.15,-17.09 4.15,-30.82 2,-13.77 3.32,-24.02 4.09,-30.85 0.28,-2.45 -0.84,-3.42 -3.44,-2.82l-2.36 0.52c-17.82,3.62 -31.27,6.3 -40.23,8.02 -34.86,6.74 -58.67,11.14 -71.42,13.21 -12.53,2.02 -31.24,4.49 -56.17,7.4 -24.99,2.93 -43.69,5.4 -56.22,7.42 -3.26,0.53 -5.04,2.29 -5.38,5.35 -0.79,6.97 -2.03,17.48 -3.72,31.49 -1.69,14 -2.93,24.52 -3.73,31.63 -3.66,32.44 -6.44,52.13 -8.28,58.99 -0.56,1.99 -0.89,3.43 -0.99,4.23 -0.21,1.93 0.7,3.31 2.7,4.05 2.48,0.84 10.67,1 24.38,0.41 12.65,-0.52 21.37,-1.14 26.17,-1.92 4.01,-0.65 6.12,-1.96 6.35,-3.98 0.54,-4.81 0.84,-11.93 0.89,-21.37 0.06,-9.49 0.36,-16.66 0.91,-21.51 1.54,-13.66 2.29,-20.34 2.27,-20.15 1.95,-10.35 5.14,-16.65 9.55,-18.93 2.56,-1.29 8.11,-2.65 16.58,-4.02 6.4,-1.03 9.89,-1.55 10.39,-1.54 2.16,0.3 3.05,2.33 2.63,6.09l-1.65 14.65c-2.1,18.65 -3.8,30.71 -5.08,36.05 -2.02,8.47 -3.06,12.7 -3.06,12.7 -0.3,2.69 0.7,3.82 2.93,3.46z"/>
       <path class="fil13" d="M8279.25 11710.94c13.16,-2.12 32.85,-4.93 58.97,-8.41 26.12,-3.48 45.76,-6.28 58.92,-8.41 2.69,-0.43 4.22,-2.02 4.53,-4.8 0.26,-2.26 0.37,-5.75 0.33,-10.36 -0.04,-4.67 0.07,-8.11 0.33,-10.42 0.31,-2.77 0.94,-6.85 1.89,-12.27 0.95,-5.43 1.57,-9.46 1.87,-12.14 0.21,-1.84 -1.77,-3.19 -5.94,-4.08 -45.27,-10.59 -79.07,-18.67 -101.48,-24.21 -7.98,-1.95 -11.97,-3.43 -11.85,-4.46 0.22,-1.94 4.15,-4.93 11.74,-8.97l111.83 -57.69c4.9,-2.6 7.4,-4.39 7.52,-5.42 0.57,-5.09 1.26,-12.64 2.05,-22.71 0.81,-10.12 1.49,-17.67 2.06,-22.76 0.45,-3.96 -0.48,-5.7 -2.72,-5.25l-2.82 0.6c-18.45,3.72 -32.29,6.37 -41.57,7.96 -35.75,6.7 -60.12,11.1 -73.05,13.19 -12.18,1.96 -30.44,4.45 -54.77,7.46 -24.26,2.99 -42.52,5.48 -54.71,7.44 -1.77,0.29 -3.05,0.68 -3.84,1.23 -0.79,0.54 -1.26,1.73 -1.47,3.56l-5.2 46.11c-0.29,2.59 1.51,3.54 5.4,2.92 10.99,-1.78 27.43,-4.66 49.4,-8.68 21.91,-4 38.36,-6.89 49.34,-8.66 2.24,-0.36 3.8,-0.29 4.76,0.16 -0.76,0.77 -1.44,1.29 -1.97,1.56 -11.59,6.13 -30.23,15.52 -55.99,28.23 -24.37,11.89 -42.96,21.32 -55.77,28.29 -2.33,1.31 -3.8,4.32 -4.33,9.02 -0.36,3.21 -0.51,5.04 -0.45,5.49 0.31,1.29 1.67,2.18 4.08,2.67 19,3.45 37.99,6.9 57.09,10.33 32.54,5.84 49.07,9.23 49.58,10.17 -0.28,0.97 -2.1,1.72 -5.31,2.24 -11.27,1.82 -28.11,4.22 -50.58,7.2 -22.47,2.98 -39.31,5.38 -50.58,7.2 -3.89,0.63 -5.99,2.26 -6.29,4.95l-5.5 48.78c-0.3,2.69 1.27,3.73 4.76,3.17 12.07,-1.95 30.31,-5.32 54.78,-10.1 24.47,-4.79 42.77,-8.16 54.96,-10.13z"/>
       <path class="fil13" d="M8222.63 11473.14c21.51,14.51 49.66,18.94 84.56,13.3 34.51,-5.57 64.78,-19.53 90.73,-41.89 26.38,-22.75 41.17,-48.26 44.35,-76.47 3.2,-28.4 -6.28,-50.03 -28.42,-64.86 -21.61,-14.58 -49.76,-19.05 -84.49,-13.44 -34.67,5.6 -64.77,19.47 -90.42,41.69 -26.26,22.65 -40.99,48.19 -44.19,76.59 -3.22,28.58 6.07,50.29 27.88,65.08zm50.15 -45.18c-11.62,-7.05 -16.67,-17.1 -15.21,-30.05 1.57,-13.89 8.85,-26.12 21.77,-36.67 12.31,-10.03 27.02,-16.43 44.13,-19.19 15.96,-2.58 29.6,-0.48 40.92,6.24 11.75,6.94 16.86,16.93 15.4,29.88 -1.54,13.61 -8.92,25.76 -22.21,36.51 -12.67,10.23 -27.39,16.72 -44.15,19.43 -16.02,2.59 -29.55,0.52 -40.65,-6.15z"/>
       <path class="fil13" d="M8274.32 11277.26c24.42,-4.87 42.78,-8.3 54.97,-10.27 12.93,-2.09 32.34,-4.8 58.16,-8.14 25.82,-3.34 45.17,-6.05 57.99,-8.12 2.69,-0.44 4.21,-1.98 4.51,-4.66 0.31,-2.73 0.6,-6.85 0.88,-12.26 0.27,-5.4 0.55,-9.43 0.86,-12.11 0.3,-2.73 0.95,-6.9 1.9,-12.42 0.96,-5.52 1.59,-9.6 1.89,-12.28 0.26,-2.31 -1.38,-3.15 -4.82,-2.6 -8.18,1.32 -20.4,3.62 -36.73,6.91 -16.32,3.28 -28.54,5.58 -36.55,6.87 -3.95,0.64 -6.12,-0.08 -6.55,-2.18 -0.51,-3.01 0.32,-14.34 2.54,-34.02 2.38,-21.15 4.17,-33 5.29,-35.49 0.88,-1.85 3.27,-3.11 7.22,-3.75 8.35,-1.35 20.83,-2.91 37.43,-4.66 16.6,-1.76 29.08,-3.31 37.49,-4.67 2,-0.32 3.12,-1.29 3.3,-2.85 0.33,-2.91 0.65,-7.31 0.98,-13.19 0.33,-5.88 0.65,-10.28 0.99,-13.25 0.32,-2.82 0.98,-7.18 1.97,-12.98 0.99,-5.8 1.64,-10.12 1.96,-12.94 0.22,-1.93 -0.93,-2.72 -3.39,-2.32 -12.93,2.09 -32.49,5.71 -58.58,10.85 -26.08,5.14 -45.58,8.75 -58.51,10.84 -12.19,1.96 -30.45,4.45 -54.66,7.44 -24.27,2.99 -42.41,5.46 -54.48,7.41 -2.92,0.47 -4.78,2.07 -5.66,4.84 -1.07,3.51 -2.3,11.47 -3.7,23.86 -1.61,14.36 -2.24,22.92 -1.89,25.78 0.29,2.41 2.1,3.31 5.47,2.77 8.7,-1.41 21.77,-3.75 39.22,-7.03 17.39,-3.27 30.46,-5.61 39.21,-7.03 4.47,-0.72 6.87,-0.09 7.21,1.85 0.5,3.06 -0.31,14.19 -2.48,33.45 -2.16,19.17 -3.87,30.36 -5.09,33.65 -0.91,2.14 -3.54,3.53 -7.89,4.24 -8.87,1.43 -22.04,3.23 -39.71,5.44 -17.66,2.21 -30.9,4.02 -39.71,5.44 -2.34,0.38 -3.97,1.89 -4.94,4.5 -0.98,2.66 -2.27,11.19 -3.89,25.55 -1.16,10.22 -1.7,18.03 -1.64,23.52 -0.02,2.18 0.12,3.4 0.42,3.73 0.42,0.71 1.86,0.9 4.21,0.52 12.07,-1.95 30.32,-5.36 54.8,-10.24z"/>
      </g>
     </g>
     <g>
      <path class="fil0" d="M9590.03 10974.39c944.79,0 1710.69,167.42 1710.69,373.95 0,206.52 -765.9,373.94 -1710.69,373.94 -944.79,0 -1710.69,-167.42 -1710.69,-373.94 0,-206.53 765.9,-373.95 1710.69,-373.95z"/>
      <path class="fil21" d="M9663.99 9350.57c-106.21,92.76 -303.83,129.73 -439.14,82.16l-465.2 -163.52 -888.01 -312.15c-135.32,-47.57 -159.13,-162.38 -52.93,-255.14l67.43 -58.89c-192.53,122.2 -302.01,349.68 -258.89,583.69 5.32,28.87 12.78,56.82 22.18,83.73l-18.92 -100.81c-26.46,-140.98 61.05,-219.01 194.49,-173.41l906.8 309.91 427.57 146.12c133.43,45.6 264.26,198.26 290.72,339.23l89.93 479.03 174.73 930.72c24.65,131.29 -49.58,207.99 -167.68,181.06 178.54,51.74 376.94,16.79 526.9,-111.02 16.51,-14.07 32,-28.91 46.47,-44.41l-55.23 47.4c-108.85,93.41 -220.19,56.62 -247.41,-81.73l-184.64 -938.32 -87.62 -445.3c-27.23,-138.36 39.56,-327.98 148.42,-421.39l363.3 -311.74 725.25 -622.33c108.85,-93.4 220.19,-56.63 247.41,81.73l12.02 61.09c-25.45,-209.5 -163.25,-395.78 -372.28,-470.05 -6.99,-2.48 -14,-4.82 -21.03,-7.01l24.55 8.63c135.32,47.57 159.13,162.38 52.92,255.14l-720.08 628.87 -342.03 298.71z"/>
      <path class="fil22" d="M9807.38 11241.2c27.39,139.2 139.4,176.2 248.92,82.23l1095.14 -939.73c109.52,-93.98 176.71,-284.75 149.32,-423.95l-273.91 -1391.99c-27.39,-139.2 -139.4,-176.2 -248.91,-82.23l-1095.15 939.73c-109.51,93.97 -176.7,284.75 -149.31,423.95l273.9 1391.99z"/>
      <path class="fil23" d="M10734.56 8428c106.86,-93.32 82.9,-208.83 -53.24,-256.68l-1361.41 -478.56c-136.14,-47.86 -334.95,-10.66 -441.8,82.66l-1068.55 933.2c-106.86,93.32 -82.89,208.83 53.24,256.69l1361.41 478.56c136.14,47.85 334.95,10.65 441.8,-82.67l1068.55 -933.2z"/>
      <path class="fil24" d="M7815.88 9018.22c-134.25,-45.88 -222.3,32.63 -195.67,174.46l266.26 1418.29c26.62,141.82 158.24,295.4 292.49,341.28l1342.45 458.79c134.25,45.88 222.3,-32.63 195.67,-174.46l-266.26 -1418.29c-26.62,-141.82 -158.24,-295.4 -292.49,-341.28l-1342.45 -458.79z"/>
      <g>
       <g>
        <circle class="fil4" transform="matrix(0.164455 0.0706189 -0.11867 0.114772 9331.63 7997.03)" r="1158.64"/>
        <circle class="fil4" transform="matrix(0.164455 0.0706189 -0.11867 0.114772 8564.44 8739.02)" r="1158.64"/>
        <circle class="fil4" transform="matrix(0.164455 0.0706189 -0.11867 0.114772 8939.69 8376.09)" r="1158.64"/>
       </g>
       <g>
        <circle class="fil4" transform="matrix(0.164455 0.0706189 -0.11867 0.114772 10071.2 8314.63)" r="1158.64"/>
        <circle class="fil4" transform="matrix(0.164455 0.0706189 -0.11867 0.114772 9304.05 9056.62)" r="1158.64"/>
        <circle class="fil4" transform="matrix(0.164455 0.0706189 -0.11867 0.114772 9679.3 8693.69)" r="1158.64"/>
       </g>
      </g>
      <g>
       <circle class="fil4" transform="matrix(0.167221 0.0197298 0.0291544 0.158213 8346.24 10478.7)" r="1158.64"/>
       <circle class="fil4" transform="matrix(0.167221 0.0197298 0.0291544 0.158213 9002 10044.9)" r="1158.64"/>
      </g>
      <g>
       <circle class="fil4" transform="matrix(0.15294 -0.119666 0.0311872 0.169244 10054.5 9768.17)" r="1158.64"/>
       <circle class="fil4" transform="matrix(0.15294 -0.119666 0.0311872 0.169244 10203.5 10576.9)" r="1158.64"/>
       <circle class="fil4" transform="matrix(0.15294 -0.119666 0.0311872 0.169244 10742.3 9230)" r="1158.64"/>
       <circle class="fil4" transform="matrix(0.15294 -0.119666 0.0311872 0.169244 10891.3 10038.7)" r="1158.64"/>
      </g>
     </g>
    </g>
    <rect class="fil3 str0" x="325.3" y="14598.57" width="18546.98" height="532.29"/>
    <line class="fil3 str0" x1="7721" y1="14598.58" x2="7721" y2= "15130.87" />
    <line class="fil3 str0" x1="11475.17" y1="14598.58" x2="11475.17" y2= "15130.87" />
    <polygon class="fil12 str0" points="7721,15130.87 7721,14598.58 325.31,14598.58 325.31,15130.87 "/>
    <polygon class="fil15 str0" points="11475.17,14598.58 11475.17,15130.87 18872.29,15130.87 18872.29,14598.58 18864.09,14598.58 "/>
    <g>
     <path class="fil25" d="M13447.55 12421.87c-134.02,0 -242.67,-108.64 -242.67,-242.66 0,-134.02 108.65,-242.66 242.67,-242.66 134.02,0 242.66,108.64 242.66,242.66 0,134.02 -108.64,242.66 -242.66,242.66zm-356.87 14.23l89.04 127.79 267.55 383.93 267.54 -383.93 81.09 -116.36 24.41 -35.04c42.4,-67.61 66.92,-147.58 66.92,-233.28 0,-242.83 -196.85,-439.68 -439.68,-439.68 -242.84,0 -439.69,196.85 -439.69,439.68 0,90.8 27.53,175.18 74.69,245.23l8.13 11.66z"/>
     <path class="fil26" d="M13204.88 12179.21c0,134.02 108.65,242.66 242.67,242.66 134.02,0 242.66,-108.64 242.66,-242.66 0,-134.02 -108.64,-242.66 -242.66,-242.66 -134.02,0 -242.67,108.64 -242.67,242.66z"/>
    </g>
    <g>
     <path class="fil27" d="M3391.62 12428.11c-134.02,0 -242.67,-108.65 -242.67,-242.67 0,-134.02 108.65,-242.66 242.67,-242.66 134.01,0 242.66,108.64 242.66,242.66 0,134.02 -108.65,242.67 -242.66,242.67zm-356.88 14.23l89.05 127.78 267.55 383.93 267.54 -383.93 81.09 -116.36 24.41 -35.04c42.4,-67.61 66.92,-147.58 66.92,-233.28 0,-242.83 -196.85,-439.68 -439.68,-439.68 -242.84,0 -439.69,196.85 -439.69,439.68 0,90.8 27.53,175.18 74.69,245.23l8.12 11.67z"/>
     <path class="fil26" d="M3148.95 12185.44c0,134.02 108.65,242.67 242.67,242.67 134.01,0 242.66,-108.65 242.66,-242.67 0,-134.02 -108.65,-242.66 -242.66,-242.66 -134.02,0 -242.67,108.64 -242.67,242.66z"/>
    </g>
    <g>
     <path class="fil28" d="M6688.67 8696.05c-134.02,0 -242.66,-108.64 -242.66,-242.66 0,-134.02 108.64,-242.66 242.66,-242.66 134.02,0 242.66,108.64 242.66,242.66 0,134.02 -108.64,242.66 -242.66,242.66zm-356.87 14.23l89.04 127.79 267.55 383.93 267.55 -383.93 81.08 -116.36 24.42 -35.04c42.4,-67.61 66.91,-147.58 66.91,-233.28 0,-242.83 -196.85,-439.68 -439.68,-439.68 -242.83,0 -439.68,196.85 -439.68,439.68 0,90.8 27.52,175.18 74.68,245.23l8.13 11.66z"/>
     <path class="fil26" d="M6446.01 8453.39c0,134.02 108.64,242.66 242.66,242.66 134.02,0 242.66,-108.64 242.66,-242.66 0,-134.02 -108.64,-242.66 -242.66,-242.66 -134.02,0 -242.66,108.64 -242.66,242.66z"/>
    </g>
    <g>
     <path class="fil29" d="M12525.58 8690.61c-134.01,0 -242.66,-108.64 -242.66,-242.66 0,-134.02 108.65,-242.66 242.66,-242.66 134.02,0 242.67,108.64 242.67,242.66 0,134.02 -108.65,242.66 -242.67,242.66zm-356.87 14.23l89.05 127.78 267.54 383.94 267.55 -383.94 81.08 -116.35 24.42 -35.04c42.4,-67.61 66.92,-147.58 66.92,-233.28 0,-242.83 -196.85,-439.68 -439.69,-439.68 -242.83,0 -439.68,196.85 -439.68,439.68 0,90.8 27.53,175.17 74.69,245.23l8.12 11.66z"/>
     <path class="fil26" d="M12282.92 8447.95c0,134.02 108.65,242.66 242.66,242.66 134.02,0 242.67,-108.64 242.67,-242.66 0,-134.02 -108.65,-242.66 -242.67,-242.66 -134.01,0 -242.66,108.64 -242.66,242.66z"/>
    </g>
    <g>
     <path class="fil30" d="M6487.99 9555.43c-134.02,0 -242.66,-108.64 -242.66,-242.66 0,-134.02 108.64,-242.67 242.66,-242.67 134.02,0 242.67,108.65 242.67,242.67 0,134.02 -108.65,242.66 -242.67,242.66zm-356.87 14.23l89.05 127.78 267.54 383.93 267.55 -383.93 81.08 -116.36 24.42 -35.04c42.4,-67.61 66.92,-147.58 66.92,-233.27 0,-242.83 -196.86,-439.69 -439.69,-439.69 -242.83,0 -439.68,196.86 -439.68,439.69 0,90.8 27.52,175.17 74.69,245.23l8.12 11.66z"/>
     <path class="fil26" d="M6245.33 9312.77c0,134.02 108.64,242.66 242.66,242.66 134.02,0 242.67,-108.64 242.67,-242.66 0,-134.02 -108.65,-242.67 -242.67,-242.67 -134.02,0 -242.66,108.65 -242.66,242.67z"/>
    </g>
    <g>
     <path class="fil31" d="M4924.35 8682.67c-134.01,0 -242.66,-108.64 -242.66,-242.66 0,-134.02 108.65,-242.66 242.66,-242.66 134.02,0 242.67,108.64 242.67,242.66 0,134.02 -108.65,242.66 -242.67,242.66zm-356.87 14.23l89.05 127.78 267.54 383.94 267.55 -383.94 81.08 -116.36 24.42 -35.04c42.4,-67.61 66.92,-147.58 66.92,-233.27 0,-242.83 -196.85,-439.69 -439.69,-439.69 -242.83,0 -439.68,196.86 -439.68,439.69 0,90.8 27.53,175.17 74.69,245.23l8.12 11.66z"/>
     <path class="fil26" d="M4681.69 8440.01c0,134.02 108.65,242.66 242.66,242.66 134.02,0 242.67,-108.64 242.67,-242.66 0,-134.02 -108.65,-242.66 -242.67,-242.66 -134.01,0 -242.66,108.64 -242.66,242.66z"/>
    </g>
    <g>
     <path class="fil32" d="M14313.33 8693.93c-134.02,0 -242.67,-108.65 -242.67,-242.66 0,-134.02 108.65,-242.67 242.67,-242.67 134.01,0 242.66,108.65 242.66,242.67 0,134.01 -108.65,242.66 -242.66,242.66zm-356.88 14.23l89.05 127.78 267.55 383.93 267.54 -383.93 81.08 -116.36 24.42 -35.04c42.4,-67.61 66.92,-147.58 66.92,-233.27 0,-242.84 -196.85,-439.69 -439.68,-439.69 -242.84,0 -439.69,196.85 -439.69,439.69 0,90.8 27.53,175.17 74.69,245.23l8.12 11.66z"/>
     <path class="fil26" d="M14070.66 8451.27c0,134.01 108.65,242.66 242.67,242.66 134.01,0 242.66,-108.65 242.66,-242.66 0,-134.02 -108.65,-242.67 -242.66,-242.67 -134.02,0 -242.67,108.65 -242.67,242.67z"/>
    </g>
    <g>
     <path class="fil33" d="M12758.85 9530.84c-134.02,0 -242.67,-108.64 -242.67,-242.66 0,-134.02 108.65,-242.66 242.67,-242.66 134.01,0 242.66,108.64 242.66,242.66 0,134.02 -108.65,242.66 -242.66,242.66zm-356.88 14.23l89.05 127.78 267.55 383.94 267.54 -383.94 81.09 -116.36 24.41 -35.04c42.4,-67.61 66.92,-147.58 66.92,-233.27 0,-242.83 -196.85,-439.69 -439.68,-439.69 -242.84,0 -439.69,196.86 -439.69,439.69 0,90.8 27.53,175.17 74.69,245.23l8.12 11.66z"/>
     <path class="fil26" d="M12516.18 9288.18c0,134.02 108.65,242.66 242.67,242.66 134.01,0 242.66,-108.64 242.66,-242.66 0,-134.02 -108.65,-242.66 -242.66,-242.66 -134.02,0 -242.67,108.64 -242.67,242.66z"/>
    </g>
    <g>
     <path class="fil34" d="M5717.72 12451.21c-134.02,0 -242.66,-108.64 -242.66,-242.66 0,-134.02 108.64,-242.67 242.66,-242.67 134.02,0 242.66,108.65 242.66,242.67 0,134.02 -108.64,242.66 -242.66,242.66zm-356.87 14.23l89.04 127.78 267.55 383.93 267.54 -383.93 81.09 -116.36 24.42 -35.04c42.4,-67.61 66.91,-147.58 66.91,-233.27 0,-242.83 -196.85,-439.69 -439.68,-439.69 -242.83,0 -439.68,196.86 -439.68,439.69 0,90.8 27.52,175.17 74.68,245.23l8.13 11.66z"/>
     <path class="fil26" d="M5475.06 12208.55c0,134.02 108.64,242.66 242.66,242.66 134.02,0 242.66,-108.64 242.66,-242.66 0,-134.02 -108.64,-242.67 -242.66,-242.67 -134.02,0 -242.66,108.65 -242.66,242.67z"/>
    </g>
    <g>
     <path class="fil35" d="M13667.76 13308.46c-134.02,0 -242.66,-108.65 -242.66,-242.66 0,-134.02 108.64,-242.67 242.66,-242.67 134.02,0 242.66,108.65 242.66,242.67 0,134.01 -108.64,242.66 -242.66,242.66zm-356.87 14.23l89.04 127.78 267.55 383.93 267.54 -383.93 81.09 -116.36 24.42 -35.04c42.4,-67.61 66.91,-147.58 66.91,-233.27 0,-242.84 -196.85,-439.69 -439.68,-439.69 -242.83,0 -439.69,196.85 -439.69,439.69 0,90.8 27.53,175.17 74.69,245.22l8.13 11.67z"/>
     <path class="fil26" d="M13425.1 13065.8c0,134.01 108.64,242.66 242.66,242.66 134.02,0 242.66,-108.65 242.66,-242.66 0,-134.02 -108.64,-242.67 -242.66,-242.67 -134.02,0 -242.66,108.65 -242.66,242.67z"/>
    </g>
    <g>
     <path class="fil36" d="M15802.72 12424.05c-134.02,0 -242.67,-108.64 -242.67,-242.66 0,-134.02 108.65,-242.66 242.67,-242.66 134.02,0 242.66,108.64 242.66,242.66 0,134.02 -108.64,242.66 -242.66,242.66zm-356.87 14.23l89.04 127.79 267.55 383.93 267.54 -383.93 81.09 -116.36 24.41 -35.04c42.41,-67.61 66.92,-147.58 66.92,-233.28 0,-242.83 -196.85,-439.68 -439.68,-439.68 -242.83,0 -439.69,196.85 -439.69,439.68 0,90.8 27.53,175.18 74.69,245.23l8.13 11.66z"/>
     <path class="fil26" d="M15560.05 12181.39c0,134.02 108.65,242.66 242.67,242.66 134.02,0 242.66,-108.64 242.66,-242.66 0,-134.02 -108.64,-242.66 -242.66,-242.66 -134.02,0 -242.67,108.64 -242.67,242.66z"/>
    </g>
    <g>
     <path class="fil37" d="M16156.1 13298.85c-134.02,0 -242.66,-108.65 -242.66,-242.67 0,-134.02 108.64,-242.66 242.66,-242.66 134.02,0 242.66,108.64 242.66,242.66 0,134.02 -108.64,242.67 -242.66,242.67zm-356.87 14.22l89.04 127.79 267.55 383.93 267.54 -383.93 81.09 -116.36 24.42 -35.04c42.4,-67.61 66.91,-147.58 66.91,-233.28 0,-242.83 -196.85,-439.68 -439.68,-439.68 -242.83,0 -439.68,196.85 -439.68,439.68 0,90.8 27.52,175.18 74.68,245.23l8.13 11.66z"/>
     <path class="fil26" d="M15913.44 13056.18c0,134.02 108.64,242.67 242.66,242.67 134.02,0 242.66,-108.65 242.66,-242.67 0,-134.02 -108.64,-242.66 -242.66,-242.66 -134.02,0 -242.66,108.64 -242.66,242.66z"/>
    </g>
    <g>
     <path class="fil38" d="M14635.41 9554.36c-134.02,0 -242.67,-108.64 -242.67,-242.66 0,-134.02 108.65,-242.67 242.67,-242.67 134.02,0 242.66,108.65 242.66,242.67 0,134.02 -108.64,242.66 -242.66,242.66zm-356.87 14.23l89.04 127.78 267.55 383.93 267.54 -383.93 81.09 -116.36 24.41 -35.04c42.4,-67.61 66.92,-147.58 66.92,-233.27 0,-242.83 -196.85,-439.69 -439.68,-439.69 -242.83,0 -439.69,196.86 -439.69,439.69 0,90.8 27.53,175.17 74.69,245.23l8.13 11.66z"/>
     <path class="fil26" d="M14392.74 9311.7c0,134.02 108.65,242.66 242.67,242.66 134.02,0 242.66,-108.64 242.66,-242.66 0,-134.02 -108.64,-242.67 -242.66,-242.67 -134.02,0 -242.67,108.65 -242.67,242.67z"/>
    </g>
    <g>
     <path class="fil39" d="M4577.54 9555.75c-134.02,0 -242.67,-108.64 -242.67,-242.66 0,-134.02 108.65,-242.67 242.67,-242.67 134.02,0 242.66,108.65 242.66,242.67 0,134.02 -108.64,242.66 -242.66,242.66zm-356.87 14.23l89.04 127.78 267.55 383.94 267.54 -383.94 81.09 -116.36 24.41 -35.04c42.41,-67.61 66.92,-147.58 66.92,-233.27 0,-242.83 -196.85,-439.69 -439.68,-439.69 -242.83,0 -439.69,196.86 -439.69,439.69 0,90.8 27.53,175.17 74.69,245.23l8.13 11.66z"/>
     <path class="fil26" d="M4334.87 9313.09c0,134.02 108.65,242.66 242.67,242.66 134.02,0 242.66,-108.64 242.66,-242.66 0,-134.02 -108.64,-242.67 -242.66,-242.67 -134.02,0 -242.67,108.65 -242.67,242.67z"/>
    </g>
    <g>
     <path class="fil40" d="M5515.36 13294.73c-134.02,0 -242.67,-108.65 -242.67,-242.67 0,-134.01 108.65,-242.66 242.67,-242.66 134.02,0 242.66,108.65 242.66,242.66 0,134.02 -108.64,242.67 -242.66,242.67zm-356.87 14.23l89.04 127.78 267.55 383.93 267.54 -383.93 81.09 -116.36 24.41 -35.04c42.41,-67.61 66.92,-147.58 66.92,-233.28 0,-242.83 -196.85,-439.68 -439.68,-439.68 -242.83,0 -439.69,196.85 -439.69,439.68 0,90.81 27.53,175.18 74.69,245.23l8.13 11.67z"/>
     <path class="fil26" d="M5272.69 13052.06c0,134.02 108.65,242.67 242.67,242.67 134.02,0 242.66,-108.65 242.66,-242.67 0,-134.01 -108.64,-242.66 -242.66,-242.66 -134.02,0 -242.67,108.65 -242.67,242.66z"/>
    </g>
    <g>
     <path class="fil41" d="M3003.3 13317.52c-134.02,0 -242.67,-108.64 -242.67,-242.66 0,-134.02 108.65,-242.66 242.67,-242.66 134.02,0 242.66,108.64 242.66,242.66 0,134.02 -108.64,242.66 -242.66,242.66zm-356.87 14.23l89.04 127.78 267.55 383.94 267.54 -383.94 81.09 -116.35 24.41 -35.04c42.4,-67.61 66.92,-147.58 66.92,-233.28 0,-242.83 -196.85,-439.68 -439.68,-439.68 -242.83,0 -439.69,196.85 -439.69,439.68 0,90.8 27.53,175.17 74.69,245.23l8.13 11.66z"/>
     <path class="fil26" d="M2760.63 13074.86c0,134.02 108.65,242.66 242.67,242.66 134.02,0 242.66,-108.64 242.66,-242.66 0,-134.02 -108.64,-242.66 -242.66,-242.66 -134.02,0 -242.67,108.64 -242.67,242.66z"/>
    </g>
   </g>
   <polygon class="fil4 str1" points="8990.83,14598.58 7721,14598.58 7721,15130.87 11475.17,15130.87 11475.17,14598.58 10200.2,14598.58 "/>
  </g>
 </g>
</svg>
